OxygenSans-Skinny.ufo
<glyph name="exclam" format="1">
  <advance width="517.399999723"/>
  <unicode hex="0021"/>
  <outline>
    <contour>
      <point x="260.999999866" y="-16.6000000238" type="curve" smooth="yes"/>
      <point x="335.999999836" y="-16.6000000238"/>
      <point x="350.399999708" y="30.3999999166"/>
      <point x="350.399999708" y="70.3999998122" type="curve" smooth="yes"/>
      <point x="350.399999708" y="107.799999699"/>
      <point x="335.999999836" y="155.999999642"/>
      <point x="260.999999866" y="155.999999642" type="curve" smooth="yes"/>
      <point x="187.399999902" y="155.999999642"/>
      <point x="174.200000033" y="107.799999699"/>
      <point x="174.200000033" y="70.3999998122" type="curve" smooth="yes"/>
      <point x="174.200000033" y="32.7999999225"/>
      <point x="187.399999902" y="-16.6000000238"/>
    </contour>
    <contour>
      <point x="239.99999994" y="402.999999911" type="line"/>
      <point x="269.19999972" y="402.999999911" type="line"/>
      <point x="315.999999687" y="1426.00000051" type="line"/>
      <point x="315.999999687" y="1480.6000001" type="line"/>
      <point x="188.799999982" y="1480.6000001" type="line"/>
      <point x="188.799999982" y="1426.00000051" type="line"/>
    </contour>
  </outline>
</glyph>
<glyph name="quotedbl" format="1">
  <advance width="555.599999487"/>
  <unicode hex="0022"/>
  <outline>
    <contour>
      <point x="364.799999654" y="1073.60000044" type="line"/>
      <point x="394.199999318" y="1073.60000044" type="line"/>
      <point x="423.199999318" y="1502.80000021" type="line"/>
      <point x="331.999999657" y="1502.80000021" type="line"/>
    </contour>
    <contour>
      <point x="156.600000024" y="1073.60000044" type="line"/>
      <point x="185.999999687" y="1073.60000044" type="line"/>
      <point x="213.799999684" y="1502.80000021" type="line"/>
      <point x="123.800000027" y="1502.80000021" type="line"/>
    </contour>
  </outline>
</glyph>
<glyph name="numbersign" format="1">
  <advance width="1175.79999991"/>
  <unicode hex="0023"/>
  <outline>
    <contour>
      <point x="688.399999931" y="464.599999741" type="line"/>
      <point x="433.999999866" y="464.599999741" type="line"/>
      <point x="527.799999923" y="929.99999997" type="line"/>
      <point x="782.399999991" y="929.99999997" type="line"/>
    </contour>
    <contour>
      <point x="588.599999949" y="-33.6000000834" type="line"/>
      <point x="675.399999782" y="-33.6000000834" type="line"/>
      <point x="762.999999791" y="400.799999893" type="line"/>
      <point x="910.199999645" y="400.799999893" type="line"/>
      <point x="922.19999963" y="464.599999741" type="line"/>
      <point x="775.999999762" y="464.599999741" type="line"/>
      <point x="869.999999821" y="929.99999997" type="line"/>
      <point x="998.799999654" y="929.99999997" type="line"/>
      <point x="1010.79999964" y="993.799999818" type="line"/>
      <point x="883.399999797" y="993.799999818" type="line"/>
      <point x="968.399999842" y="1418.8" type="line"/>
      <point x="882.000000015" y="1418.8" type="line"/>
      <point x="795.599999964" y="993.799999818" type="line"/>
      <point x="541.199999899" y="993.799999818" type="line"/>
      <point x="626.199999943" y="1418.8" type="line"/>
      <point x="540.000000119" y="1418.8" type="line"/>
      <point x="453.600000069" y="993.799999818" type="line"/>
      <point x="321.400000274" y="993.799999818" type="line"/>
      <point x="313.000000298" y="929.99999997" type="line"/>
      <point x="440.200000092" y="929.99999997" type="line"/>
      <point x="347.400000036" y="464.599999741" type="line"/>
      <point x="232.800000265" y="464.599999741" type="line"/>
      <point x="224.400000289" y="400.799999893" type="line"/>
      <point x="334.200000063" y="400.799999893" type="line"/>
      <point x="246.400000051" y="-33.6000000834" type="line"/>
      <point x="333.199999884" y="-33.6000000834" type="line"/>
      <point x="420.799999893" y="400.799999893" type="line"/>
      <point x="675.199999958" y="400.799999893" type="line"/>
    </contour>
  </outline>
</glyph>
<glyph name="percent" format="1">
  <advance width="1825.600"/>
  <unicode hex="0025"/>
  <outline>
    <contour>
      <point x="1388.4" y="-12.8" type="curve" smooth="yes"/>
      <point x="1164.2" y="-12.8"/>
      <point x="1057.6" y="151.8"/>
      <point x="1057.6" y="363.6" type="curve" smooth="yes"/>
      <point x="1057.6" y="576.4"/>
      <point x="1168.4" y="739"/>
      <point x="1388.4" y="739" type="curve" smooth="yes"/>
      <point x="1613.6" y="739"/>
      <point x="1720" y="579.4"/>
      <point x="1720" y="363.6" type="curve" smooth="yes"/>
      <point x="1720" y="151.8"/>
      <point x="1610.6" y="-12.8"/>
    </contour>
    <contour>
      <point x="1390.8" y="53" type="curve" smooth="yes"/>
      <point x="1563.6" y="53"/>
      <point x="1637.4" y="189.2"/>
      <point x="1637.4" y="364.4" type="curve" smooth="yes"/>
      <point x="1637.4" y="546"/>
      <point x="1562.6" y="672.8"/>
      <point x="1390.8" y="672.8" type="curve" smooth="yes"/>
      <point x="1216.8" y="672.8"/>
      <point x="1142.2" y="539.8"/>
      <point x="1142.2" y="364.4" type="curve" smooth="yes"/>
      <point x="1142.2" y="183.8"/>
      <point x="1218" y="53"/>
    </contour>
    <contour>
      <point x="421.4" y="777" type="curve" smooth="yes"/>
      <point x="594.2" y="777"/>
      <point x="668" y="913.2"/>
      <point x="668" y="1088.4" type="curve" smooth="yes"/>
      <point x="668" y="1270"/>
      <point x="593.2" y="1396.8"/>
      <point x="421.4" y="1396.8" type="curve" smooth="yes"/>
      <point x="247.4" y="1396.8"/>
      <point x="172.8" y="1263.8"/>
      <point x="172.8" y="1088.4" type="curve" smooth="yes"/>
      <point x="172.8" y="907.8"/>
      <point x="248.6" y="777"/>
    </contour>
    <contour>
      <point x="419" y="711.2" type="curve" smooth="yes"/>
      <point x="194.8" y="711.2"/>
      <point x="88.2" y="875.8"/>
      <point x="88.2" y="1087.6" type="curve" smooth="yes"/>
      <point x="88.2" y="1300.4"/>
      <point x="199" y="1463"/>
      <point x="419" y="1463" type="curve" smooth="yes"/>
      <point x="644.2" y="1463"/>
      <point x="750.6" y="1303.4"/>
      <point x="750.6" y="1087.6" type="curve" smooth="yes"/>
      <point x="750.6" y="875.8"/>
      <point x="641.2" y="711.2"/>
    </contour>
    <contour>
      <point x="449.8" y="0" type="line"/>
      <point x="1282" y="1454.8" type="line"/>
      <point x="1368.4" y="1454.8" type="line"/>
      <point x="545.4" y="0" type="line"/>
    </contour>
  </outline>
</glyph>
<glyph name="ampersand" format="1">
  <advance width="1498.800"/>
  <unicode hex="0026"/>
  <outline>
    <contour>
      <point x="711.8" y="-19.4" type="curve" smooth="yes"/>
      <point x="950" y="-19.4"/>
      <point x="1003.4" y="18"/>
      <point x="1132.8" y="115.4" type="curve"/>
      <point x="1253.4" y="-21.2" type="line"/>
      <point x="1327.6" y="16.4" type="line"/>
      <point x="1178.4" y="171" type="line"/>
      <point x="1250" y="241.2"/>
      <point x="1347.2" y="393.2"/>
      <point x="1380.8" y="479.8" type="curve"/>
      <point x="1311.8" y="527.8" type="line"/>
      <point x="1277" y="436.8"/>
      <point x="1191.4" y="288.6"/>
      <point x="1131.2" y="231.4" type="curve"/>
      <point x="634.6" y="786.8" type="line"/>
      <point x="860" y="880.4"/>
      <point x="1020" y="1006.2"/>
      <point x="1020" y="1167.4" type="curve" smooth="yes"/>
      <point x="1020" y="1349.6"/>
      <point x="924" y="1474"/>
      <point x="703.6" y="1474" type="curve" smooth="yes"/>
      <point x="459.6" y="1474"/>
      <point x="325.6" y="1340.2"/>
      <point x="325.6" y="1175.8" type="curve" smooth="yes"/>
      <point x="325.6" y="1045.4"/>
      <point x="388" y="941.8"/>
      <point x="520.2" y="806" type="curve"/>
      <point x="367.6" y="712"/>
      <point x="210.8" y="570.2"/>
      <point x="210.8" y="357" type="curve" smooth="yes"/>
      <point x="210.8" y="152.6"/>
      <point x="341.6" y="-19.4"/>
    </contour>
    <contour>
      <point x="724.8" y="55.2" type="curve" smooth="yes"/>
      <point x="439.2" y="55.2"/>
      <point x="304" y="183.8"/>
      <point x="304" y="364.6" type="curve" smooth="yes"/>
      <point x="304" y="530.8"/>
      <point x="415.2" y="661.4"/>
      <point x="573.4" y="753.6" type="curve"/>
      <point x="1082" y="182.4" type="line"/>
      <point x="964.2" y="89.2"/>
      <point x="907.8" y="55.2"/>
    </contour>
    <contour>
      <point x="587" y="840.8" type="curve"/>
      <point x="435.8" y="978"/>
      <point x="402.4" y="1069"/>
      <point x="402.4" y="1178.8" type="curve" smooth="yes"/>
      <point x="402.4" y="1309"/>
      <point x="550.4" y="1394.4"/>
      <point x="702.2" y="1394.4" type="curve" smooth="yes"/>
      <point x="864.8" y="1394.4"/>
      <point x="934.6" y="1314.8"/>
      <point x="934.6" y="1177.6" type="curve" smooth="yes"/>
      <point x="934.6" y="1035.2"/>
      <point x="764.4" y="920.8"/>
    </contour>
  </outline>
</glyph>
<glyph name="quotesingle" format="1">
  <advance width="218.799999267"/>
  <unicode hex="0027"/>
  <outline>
    <contour>
      <point x="74.199999705" y="1003.40000032" type="line"/>
      <point x="129.599999443" y="1003.40000032" type="line"/>
      <point x="141.199999407" y="1457.20000012" type="line"/>
      <point x="67.5999997705" y="1457.20000012" type="line"/>
    </contour>
  </outline>
</glyph>
<glyph name="parenleft" format="1">
  <advance width="689.799999923"/>
  <unicode hex="0028"/>
  <outline>
    <contour>
      <point x="459.00000003" y="-287.400000349" type="curve"/>
      <point x="548.199999645" y="-287.400000349" type="line"/>
      <point x="337.199999481" y="31.7999998331"/>
      <point x="302.799999684" y="385.600000069"/>
      <point x="302.799999684" y="707.400000095" type="curve" smooth="yes"/>
      <point x="302.799999684" y="987.799999967"/>
      <point x="323.799999356" y="1224.99999972"/>
      <point x="550.399999648" y="1579.6000002" type="curve"/>
      <point x="456.800000027" y="1579.6000002" type="line"/>
      <point x="281.199999958" y="1312.00000003"/>
      <point x="205.800000072" y="1014.00000003"/>
      <point x="205.800000072" y="701.800000086" type="curve" smooth="yes"/>
      <point x="205.800000072" y="335.0"/>
      <point x="293.200000018" y="-58.0000003427"/>
    </contour>
  </outline>
</glyph>
<glyph name="parenright" format="1">
  <advance width="687.59999989"/>
  <unicode hex="0029"/>
  <outline>
    <contour>
      <point x="129.200000092" y="-287.400000349" type="curve"/>
      <point x="219.199999705" y="-287.400000349" type="line"/>
      <point x="387.599999756" y="-52.2000002563"/>
      <point x="471.399999663" y="331.999999955"/>
      <point x="471.399999663" y="698.200000033" type="curve" smooth="yes"/>
      <point x="471.399999663" y="1010.99999999"/>
      <point x="394.799999744" y="1317.80000012"/>
      <point x="221.799999714" y="1579.6000002" type="curve"/>
      <point x="127.800000086" y="1579.6000002" type="line"/>
      <point x="347.200000271" y="1242.39999998"/>
      <point x="374.400000051" y="989.399999991"/>
      <point x="374.400000051" y="704.800000057" type="curve" smooth="yes"/>
      <point x="374.400000051" y="387.200000092"/>
      <point x="347.400000364" y="49.2000000924"/>
    </contour>
  </outline>
</glyph>
<glyph name="asterisk" format="1">
  <advance width="1223.60000032"/>
  <unicode hex="002A"/>
  <outline>
    <contour>
      <point x="391.200000003" y="603.600000262" type="line"/>
      <point x="308.600000322" y="669.40000014" type="line"/>
      <point x="565.200000405" y="1031.80000034" type="line"/>
      <point x="183.000000253" y="1122.00000039" type="line"/>
      <point x="209.200000152" y="1227.20000009" type="line"/>
      <point x="589.200000316" y="1066.20000002" type="line"/>
      <point x="551.200000301" y="1500.4000002" type="line"/>
      <point x="671.600000024" y="1500.4000002" type="line"/>
      <point x="631.0" y="1066.20000002" type="line"/>
      <point x="1012.80000016" y="1227.20000009" type="line"/>
      <point x="1041.80000007" y="1122.00000039" type="line"/>
      <point x="650.399999902" y="1031.80000034" type="line"/>
      <point x="690.399999902" y="974.600000322"/>
      <point x="749.599999592" y="884.200000674"/>
      <point x="917.600000009" y="669.40000014" type="curve"/>
      <point x="814.399999753" y="604.599999979"/>
      <point x="934.800000563" y="670.000000432"/>
      <point x="831.600000307" y="605.200000271" type="curve"/>
      <point x="603.800000146" y="1005.00000052" type="line"/>
    </contour>
  </outline>
</glyph>
<glyph name="plus" format="1">
  <advance width="1152.60000029"/>
  <unicode hex="002B"/>
  <outline>
    <contour>
      <point x="540.000000224" y="197.200000152" type="line"/>
      <point x="609.799999893" y="197.200000152" type="line"/>
      <point x="609.799999893" y="603.800000191" type="line"/>
      <point x="979.199999869" y="603.800000191" type="line"/>
      <point x="979.199999869" y="654.999999821" type="line"/>
      <point x="609.59999989" y="654.999999821" type="line"/>
      <point x="609.59999989" y="1049.59999983" type="line"/>
      <point x="539.600000218" y="1049.59999983" type="line"/>
      <point x="539.600000218" y="654.999999821" type="line"/>
      <point x="161.000000224" y="654.999999821" type="line"/>
      <point x="161.000000224" y="603.800000191" type="line"/>
      <point x="540.000000224" y="603.800000191" type="line"/>
    </contour>
  </outline>
</glyph>
<glyph name="comma" format="1">
  <advance width="447.600"/>
  <unicode hex="002C"/>
  <outline>
    <contour>
      <point x="155.2" y="-293" type="curve"/>
      <point x="188.8" y="-293" type="line"/>
      <point x="188.8" y="-293"/>
      <point x="265.6" y="118.4"/>
      <point x="265.6" y="167.6" type="curve"/>
      <point x="264.4" y="194.6" type="line"/>
      <point x="158.2" y="194.6" type="line"/>
      <point x="158.2" y="69.8"/>
      <point x="155.2" y="-293"/>
    </contour>
  </outline>
</glyph>
<glyph name="hyphen" format="1">
  <advance width="807.400000528"/>
  <unicode hex="002D"/>
  <outline>
    <contour>
      <point x="170.200000331" y="534.000000268" type="line"/>
      <point x="609.600000128" y="534.000000268" type="line"/>
      <point x="609.600000128" y="604.399999946" type="line"/>
      <point x="170.200000331" y="604.399999946" type="line"/>
    </contour>
  </outline>
</glyph>
<glyph name="period" format="1">
  <advance width="445.799999744"/>
  <unicode hex="002E"/>
  <outline>
    <contour>
      <point x="227.799999833" y="-21.0000000596" type="curve" smooth="yes"/>
      <point x="291.999999776" y="-21.0000000596"/>
      <point x="302.799999639" y="22.5999998748"/>
      <point x="302.799999639" y="56.5999997556" type="curve" smooth="yes"/>
      <point x="302.799999639" y="90.3999996334"/>
      <point x="291.999999776" y="133.599999562"/>
      <point x="227.799999833" y="133.599999562" type="curve" smooth="yes"/>
      <point x="161.399999887" y="133.599999562"/>
      <point x="152.00000003" y="90.3999996334"/>
      <point x="152.00000003" y="56.5999997556" type="curve" smooth="yes"/>
      <point x="152.00000003" y="23.9999998808"/>
      <point x="163.59999989" y="-21.0000000596"/>
    </contour>
  </outline>
</glyph>
<glyph name="slash" format="1">
  <advance width="1021.40000035"/>
  <unicode hex="002F"/>
  <outline>
    <contour>
      <point x="128.600000173" y="-254.000000313" type="line"/>
      <point x="174.399999738" y="-254.000000313" type="line"/>
      <point x="908.40000011" y="1403.19999996" type="line"/>
      <point x="861.000000551" y="1403.19999996" type="line"/>
    </contour>
  </outline>
</glyph>
<glyph name="zero" format="1">
  <advance width="1234.200"/>
  <unicode hex="0030"/>
  <outline>
    <contour>
      <point x="619.6" y="41.2" type="curve" smooth="yes"/>
      <point x="412.4" y="41.2"/>
      <point x="234.6" y="194.4"/>
      <point x="234.6" y="720.4" type="curve"/>
      <point x="231.8" y="1215"/>
      <point x="409.6" y="1389.6"/>
      <point x="619.6" y="1389.6" type="curve" smooth="yes"/>
      <point x="826.8" y="1389.6"/>
      <point x="990.4" y="1264.6"/>
      <point x="990.4" y="723.4" type="curve" smooth="yes"/>
      <point x="990.4" y="196"/>
      <point x="826.8" y="41.2"/>
    </contour>
    <contour>
      <point x="619.6" y="-35.8" type="curve" smooth="yes"/>
      <point x="931" y="-35.8"/>
      <point x="1075.8" y="242.2"/>
      <point x="1075.8" y="718.8" type="curve" smooth="yes"/>
      <point x="1075.8" y="1231.6"/>
      <point x="905.2" y="1469.2"/>
      <point x="619.6" y="1469.2" type="curve" smooth="yes"/>
      <point x="332.4" y="1469.2"/>
      <point x="146.4" y="1228.6"/>
      <point x="146.4" y="718.8" type="curve" smooth="yes"/>
      <point x="146.4" y="242.2"/>
      <point x="308" y="-35.8"/>
    </contour>
  </outline>
</glyph>
<glyph name="one" format="1">
  <advance width="1196"/>
  <unicode hex="0031"/>
  <outline>
    <contour>
      <point x="238.6" y="0" type="line"/>
      <point x="1049" y="0" type="line"/>
      <point x="1049" y="70.8" type="line"/>
      <point x="674.6" y="70.8" type="line"/>
      <point x="711.4" y="34.2" type="line"/>
      <point x="711.4" y="1454.8" type="line"/>
      <point x="613.8" y="1454.8" type="line"/>
      <point x="542.6" y="1405.4"/>
      <point x="339" y="1349.4"/>
      <point x="284.4" y="1344.2" type="curve"/>
      <point x="284.4" y="1267.6" type="line"/>
      <point x="347.6" y="1273.8"/>
      <point x="568.4" y="1330.8"/>
      <point x="655" y="1395.2" type="curve"/>
      <point x="618.8" y="1408.4" type="line"/>
      <point x="618.8" y="36.6" type="line"/>
      <point x="653.2" y="70.8" type="line"/>
      <point x="238.6" y="70.8" type="line"/>
    </contour>
  </outline>
</glyph>
<glyph name="two" format="1">
  <advance width="1196"/>
  <unicode hex="0032"/>
  <outline>
    <contour>
      <point x="142.2" y="0" type="line"/>
      <point x="1010.4" y="0" type="line"/>
      <point x="1012.8" y="70.8" type="line"/>
      <point x="171.4" y="70.8" type="line"/>
      <point x="174.2" y="34.2" type="line"/>
      <point x="744.2" y="610.2" type="line"/>
      <point x="937" y="806"/>
      <point x="996.8" y="863"/>
      <point x="996.8" y="1093.6" type="curve" smooth="yes"/>
      <point x="996.8" y="1402.2"/>
      <point x="670.2" y="1474.2"/>
      <point x="536.2" y="1474.2" type="curve" smooth="yes"/>
      <point x="377.4" y="1474.2"/>
      <point x="220" y="1418.6"/>
      <point x="137" y="1368" type="curve"/>
      <point x="165.6" y="1305.6" type="line"/>
      <point x="282.8" y="1371.6"/>
      <point x="414" y="1407.2"/>
      <point x="543" y="1407.2" type="curve" smooth="yes"/>
      <point x="675.4" y="1407.2"/>
      <point x="912" y="1358.6"/>
      <point x="912" y="1074.4" type="curve" smooth="yes"/>
      <point x="912" y="857"/>
      <point x="826.4" y="803.2"/>
      <point x="676.4" y="650.4" type="curve" smooth="yes"/>
      <point x="103.8" y="69.4" type="line"/>
    </contour>
  </outline>
</glyph>
<glyph name="three" format="1">
  <advance width="1196"/>
  <unicode hex="0033"/>
  <outline>
    <contour>
      <point x="558" y="-17.6" type="curve" smooth="yes"/>
      <point x="879.4" y="-17.6"/>
      <point x="1049.4" y="143"/>
      <point x="1049.4" y="393.4" type="curve" smooth="yes"/>
      <point x="1049.4" y="636.8"/>
      <point x="893.6" y="745.4"/>
      <point x="690.2" y="775.8" type="curve"/>
      <point x="884.8" y="807.8"/>
      <point x="1012.4" y="898.6"/>
      <point x="1012.4" y="1126.6" type="curve" smooth="yes"/>
      <point x="1012.4" y="1358.6"/>
      <point x="802.2" y="1474"/>
      <point x="558.8" y="1474" type="curve" smooth="yes"/>
      <point x="421.8" y="1474"/>
      <point x="277.8" y="1434.6"/>
      <point x="155.2" y="1359" type="curve"/>
      <point x="190" y="1295.2" type="line"/>
      <point x="298" y="1363.2"/>
      <point x="442.2" y="1401.6"/>
      <point x="564.6" y="1401.6" type="curve" smooth="yes"/>
      <point x="754.2" y="1401.6"/>
      <point x="932.4" y="1329"/>
      <point x="932.4" y="1123.4" type="curve" smooth="yes"/>
      <point x="932.4" y="855.6"/>
      <point x="671.6" y="826"/>
      <point x="461.2" y="815.4" type="curve"/>
      <point x="430.6" y="815.4" type="line"/>
      <point x="430.6" y="736.2" type="line"/>
      <point x="458.8" y="736.2" type="line"/>
      <point x="727.6" y="731.2"/>
      <point x="973" y="688"/>
      <point x="973" y="384.8" type="curve" smooth="yes"/>
      <point x="973" y="152"/>
      <point x="815" y="52"/>
      <point x="566" y="52" type="curve" smooth="yes"/>
      <point x="399.8" y="52"/>
      <point x="264.6" y="107.2"/>
      <point x="205.4" y="144.4" type="curve"/>
      <point x="168.8" y="84.6" type="line"/>
      <point x="213.2" y="58.2"/>
      <point x="348.8" y="-17.6"/>
    </contour>
  </outline>
</glyph>
<glyph name="four" format="1">
  <advance width="1195.99999997"/>
  <unicode hex="0034"/>
  <outline>
    <contour>
      <point x="830.400000304" y="0.0" type="line"/>
      <point x="910.399999842" y="0.0" type="line"/>
      <point x="910.399999842" y="408.200000241" type="line"/>
      <point x="1086.9999999" y="408.200000241" type="line"/>
      <point x="1095.99999988" y="476.199999884" type="line"/>
      <point x="910.399999842" y="476.199999884" type="line"/>
      <point x="910.399999842" y="1454.80000009" type="line"/>
      <point x="856.400000528" y="1454.80000009" type="line"/>
      <point x="129.800000086" y="515.200000018" type="line"/>
      <point x="129.800000086" y="408.200000241" type="line"/>
      <point x="830.400000304" y="408.200000241" type="line"/>
    </contour>
    <contour>
      <point x="218.19999963" y="479.399999902" type="line"/>
      <point x="829.200000301" y="1312.20000046" type="line"/>
      <point x="829.200000301" y="479.399999902" type="line"/>
    </contour>
  </outline>
</glyph>
<glyph name="five" format="1">
  <advance width="1196"/>
  <unicode hex="0035"/>
  <outline>
    <contour>
      <point x="547" y="-20.2" type="curve" smooth="yes"/>
      <point x="807.8" y="-20.2"/>
      <point x="1060" y="132.2"/>
      <point x="1060" y="465.8" type="curve" smooth="yes"/>
      <point x="1060" y="692.6"/>
      <point x="916.8" y="899.2"/>
      <point x="601.8" y="899.2" type="curve" smooth="yes"/>
      <point x="503.8" y="899.2"/>
      <point x="415.6" y="881.8"/>
      <point x="301.6" y="806.6" type="curve"/>
      <point x="343.4" y="1384.4" type="line"/>
      <point x="982.8" y="1384.4" type="line"/>
      <point x="992.4" y="1454.8" type="line"/>
      <point x="279.4" y="1454.8" type="line"/>
      <point x="227" y="718.4" type="line"/>
      <point x="319.2" y="712.6" type="line"/>
      <point x="379.8" y="778.4"/>
      <point x="498" y="825"/>
      <point x="616" y="825" type="curve" smooth="yes"/>
      <point x="887.4" y="825"/>
      <point x="969" y="647.2"/>
      <point x="969" y="459.2" type="curve" smooth="yes"/>
      <point x="969" y="184.6"/>
      <point x="763.2" y="52.8"/>
      <point x="538.2" y="52.8" type="curve" smooth="yes"/>
      <point x="436.8" y="52.8"/>
      <point x="320" y="75.4"/>
      <point x="191.2" y="154.6" type="curve"/>
      <point x="160.6" y="87.2" type="line"/>
      <point x="303.6" y="1.2"/>
      <point x="432" y="-20.2"/>
    </contour>
  </outline>
</glyph>
<glyph name="six" format="1">
  <advance width="1196"/>
  <unicode hex="0036"/>
  <outline>
    <contour>
      <point x="624.8" y="-19" type="curve" smooth="yes"/>
      <point x="908.4" y="-19"/>
      <point x="1060.6" y="189.6"/>
      <point x="1060.6" y="422.4" type="curve" smooth="yes"/>
      <point x="1060.6" y="679.6"/>
      <point x="852.8" y="844"/>
      <point x="647.4" y="844" type="curve" smooth="yes"/>
      <point x="306.6" y="844"/>
      <point x="163" y="550"/>
      <point x="156.8" y="521.2" type="curve"/>
      <point x="167.2" y="520.8" type="line"/>
      <point x="167.2" y="520.8"/>
      <point x="316.6" y="710.8"/>
      <point x="464.2" y="928" type="curve"/>
      <point x="819.2" y="1454.8" type="line"/>
      <point x="725.2" y="1454.8" type="line"/>
      <point x="432.6" y="1016" type="line"/>
      <point x="281.6" y="790.4"/>
      <point x="193.6" y="658"/>
      <point x="193.6" y="425" type="curve" smooth="yes"/>
      <point x="193.6" y="216.8"/>
      <point x="323" y="-19"/>
    </contour>
    <contour>
      <point x="624.4" y="54.6" type="curve" smooth="yes"/>
      <point x="386.6" y="54.6"/>
      <point x="270.8" y="230.8"/>
      <point x="270.8" y="414" type="curve" smooth="yes"/>
      <point x="270.8" y="714.4"/>
      <point x="533.6" y="764.8"/>
      <point x="633.4" y="764.8" type="curve" smooth="yes"/>
      <point x="849.2" y="764.8"/>
      <point x="982.8" y="617.4"/>
      <point x="982.8" y="423.2" type="curve" smooth="yes"/>
      <point x="982.8" y="236.4"/>
      <point x="857.6" y="54.6"/>
    </contour>
  </outline>
</glyph>
<glyph name="seven" format="1">
  <advance width="1196"/>
  <unicode hex="0037"/>
  <outline>
    <contour>
      <point x="389.8" y="1.2" type="line"/>
      <point x="462.8" y="1.2" type="line"/>
      <point x="1025" y="1383.8" type="line"/>
      <point x="1025" y="1454.8" type="line"/>
      <point x="208.6" y="1454.8" type="line"/>
      <point x="242.2" y="1387.6" type="line"/>
      <point x="950.6" y="1387.6" type="line"/>
    </contour>
  </outline>
</glyph>
<glyph name="eight" format="1">
  <advance width="1196"/>
  <unicode hex="0038"/>
  <outline>
    <contour>
      <point x="597.4" y="-19" type="curve" smooth="yes"/>
      <point x="854" y="-19"/>
      <point x="1047.2" y="99.4"/>
      <point x="1047.2" y="347.6" type="curve" smooth="yes"/>
      <point x="1047.2" y="543.6"/>
      <point x="915" y="704"/>
      <point x="692" y="756.4" type="curve"/>
      <point x="887" y="809.6"/>
      <point x="1011.4" y="928.6"/>
      <point x="1011.4" y="1120.6" type="curve" smooth="yes"/>
      <point x="1011.4" y="1335.8"/>
      <point x="856.8" y="1474"/>
      <point x="598.8" y="1474" type="curve" smooth="yes"/>
      <point x="338" y="1474"/>
      <point x="181.8" y="1335.8"/>
      <point x="181.8" y="1120.6" type="curve" smooth="yes"/>
      <point x="181.8" y="931.8"/>
      <point x="318" y="795.6"/>
      <point x="499.8" y="752.8" type="curve"/>
      <point x="267.6" y="687"/>
      <point x="148.8" y="567.2"/>
      <point x="148.8" y="347.4" type="curve" smooth="yes"/>
      <point x="148.8" y="97.8"/>
      <point x="344.8" y="-19"/>
    </contour>
    <contour>
      <point x="597.4" y="56" type="curve" smooth="yes"/>
      <point x="348.8" y="56"/>
      <point x="220.4" y="159.4"/>
      <point x="220.4" y="358.8" type="curve" smooth="yes"/>
      <point x="220.4" y="558.8"/>
      <point x="385.8" y="666.4"/>
      <point x="597.4" y="707" type="curve"/>
      <point x="811.6" y="666.4"/>
      <point x="970.2" y="548.2"/>
      <point x="970.2" y="358.6" type="curve" smooth="yes"/>
      <point x="970.2" y="147.4"/>
      <point x="855.4" y="56"/>
    </contour>
    <contour>
      <point x="597.4" y="792.2" type="curve"/>
      <point x="380.6" y="838.4"/>
      <point x="273.2" y="955"/>
      <point x="273.2" y="1128" type="curve" smooth="yes"/>
      <point x="273.2" y="1295"/>
      <point x="402.4" y="1396.2"/>
      <point x="597.4" y="1396.2" type="curve" smooth="yes"/>
      <point x="794.8" y="1396.2"/>
      <point x="918.6" y="1295"/>
      <point x="918.6" y="1128" type="curve" smooth="yes"/>
      <point x="918.6" y="955"/>
      <point x="818" y="838.4"/>
    </contour>
  </outline>
</glyph>
<glyph name="nine" format="1">
  <advance width="1196"/>
  <unicode hex="0039"/>
  <outline>
    <contour>
      <point x="356.4" y="0" type="line"/>
      <point x="457.4" y="0" type="line"/>
      <point x="784.2" y="436.4" type="line" smooth="yes"/>
      <point x="946.8" y="656.6"/>
      <point x="1054.4" y="796.4"/>
      <point x="1054.4" y="1030.2" type="curve" smooth="yes"/>
      <point x="1054.4" y="1238"/>
      <point x="925.2" y="1474"/>
      <point x="623.4" y="1474" type="curve" smooth="yes"/>
      <point x="340" y="1474"/>
      <point x="186.4" y="1265.4"/>
      <point x="186.4" y="1033.2" type="curve" smooth="yes"/>
      <point x="186.4" y="776.8"/>
      <point x="395.6" y="612"/>
      <point x="601" y="612" type="curve" smooth="yes"/>
      <point x="720" y="612"/>
      <point x="844" y="649"/>
      <point x="918" y="714" type="curve"/>
      <point x="906" y="728" type="line"/>
      <point x="747.2" y="519.8" type="line"/>
    </contour>
    <contour>
      <point x="613.4" y="690.6" type="curve" smooth="yes"/>
      <point x="397.6" y="690.6"/>
      <point x="265.6" y="838.4"/>
      <point x="265.6" y="1032" type="curve" smooth="yes"/>
      <point x="265.6" y="1218.4"/>
      <point x="390.2" y="1401"/>
      <point x="623.4" y="1401" type="curve" smooth="yes"/>
      <point x="861.2" y="1401"/>
      <point x="977" y="1222.6"/>
      <point x="977" y="1039.6" type="curve" smooth="yes"/>
      <point x="977" y="740"/>
      <point x="713.4" y="690.6"/>
    </contour>
  </outline>
</glyph>
<glyph name="colon" format="1">
  <advance width="463.999999568"/>
  <unicode hex="003A"/>
  <outline>
    <contour>
      <point x="161.399999902" y="0.0" type="line"/>
      <point x="280.599999532" y="0.0" type="line"/>
      <point x="280.599999532" y="150.599999681" type="line"/>
      <point x="161.399999902" y="150.599999681" type="line"/>
    </contour>
    <contour>
      <point x="161.399999902" y="893.800000235" type="line"/>
      <point x="280.599999532" y="893.800000235" type="line"/>
      <point x="280.599999532" y="1052.59999996" type="line"/>
      <point x="161.399999902" y="1052.59999996" type="line"/>
    </contour>
  </outline>
</glyph>
<glyph name="semicolon" format="1">
  <advance width="448.800"/>
  <unicode hex="003B"/>
  <outline>
    <contour>
      <point x="158.2" y="893.8" type="line"/>
      <point x="277.4" y="893.8" type="line"/>
      <point x="277.4" y="1052.6" type="line"/>
      <point x="158.2" y="1052.6" type="line"/>
    </contour>
    <contour>
      <point x="117" y="-298.6" type="line"/>
      <point x="162" y="-298.6" type="line"/>
      <point x="282.8" y="119.6" type="line"/>
      <point x="172.6" y="119.6" type="line"/>
    </contour>
  </outline>
</glyph>
<glyph name="less" format="1">
  <advance width="1228.60000031"/>
  <unicode hex="003C"/>
  <outline>
    <contour>
      <point x="1051.80000009" y="104.999999821" type="line"/>
      <point x="1051.80000009" y="104.999999821"/>
      <point x="1054.4000001" y="184.799999461"/>
      <point x="1054.6000001" y="184.599999458" type="curve" smooth="yes"/>
      <point x="198.399999544" y="584.999999747" type="line"/>
      <point x="1056.6000001" y="1006.00000001" type="line"/>
      <point x="1056.6000001" y="1093.7999997" type="line"/>
      <point x="116.600000039" y="610.399999663" type="line"/>
      <point x="116.600000039" y="553.399999842" type="line"/>
    </contour>
  </outline>
</glyph>
<glyph name="greater" format="1">
  <advance width="1244.20000035"/>
  <unicode hex="003E"/>
  <outline>
    <contour>
      <point x="147.800000012" y="112.799999833" type="line"/>
      <point x="1087.80000007" y="550.999999836" type="line"/>
      <point x="1087.80000007" y="609.599999666" type="line"/>
      <point x="151.400000021" y="1103.19999972" type="line"/>
      <point x="151.400000021" y="1016.60000004" type="line"/>
      <point x="993.000000536" y="584.999999747" type="line"/>
      <point x="147.800000012" y="194.999999478" type="line"/>
    </contour>
  </outline>
</glyph>
<glyph name="question" format="1">
  <advance width="901.799999833"/>
  <unicode hex="003F"/>
  <outline>
    <contour>
      <point x="381.799999639" y="391.199999869" type="line"/>
      <point x="482.199999541" y="771.800000116"/>
      <point x="724.999999613" y="923.800000131"/>
      <point x="724.999999613" y="1220.8000003" type="curve" smooth="yes"/>
      <point x="724.999999613" y="1396.40000017"/>
      <point x="593.199999779" y="1515.00000021"/>
      <point x="405.199999735" y="1515.00000021" type="curve" smooth="yes"/>
      <point x="285.799999818" y="1515.00000021"/>
      <point x="184.59999983" y="1475.80000021"/>
      <point x="115.799999893" y="1428.40000024" type="curve"/>
      <point x="123.399999723" y="1340.40000045" type="line"/>
      <point x="161.599999681" y="1364.80000043"/>
      <point x="281.999999791" y="1430.40000048"/>
      <point x="390.999999762" y="1430.40000048" type="curve" smooth="yes"/>
      <point x="537.799999848" y="1430.40000048"/>
      <point x="629.199999914" y="1367.60000049"/>
      <point x="628.999999911" y="1212.80000035" type="curve"/>
      <point x="628.999999911" y="940.000000089"/>
      <point x="328.799999714" y="619.999999762"/>
      <point x="335.799999818" y="391.199999869" type="curve"/>
    </contour>
    <contour>
      <point x="364.999999747" y="-16.6000000238" type="curve" smooth="yes"/>
      <point x="440.599999726" y="-16.6000000238"/>
      <point x="456.79999961" y="30.3999999166"/>
      <point x="456.79999961" y="70.3999998122" type="curve" smooth="yes"/>
      <point x="456.79999961" y="107.799999699"/>
      <point x="440.599999726" y="155.999999642"/>
      <point x="364.999999747" y="155.999999642" type="curve" smooth="yes"/>
      <point x="290.999999776" y="155.999999642"/>
      <point x="279.399999917" y="107.799999699"/>
      <point x="279.399999917" y="70.3999998122" type="curve" smooth="yes"/>
      <point x="279.399999917" y="32.9999999255"/>
      <point x="290.799999774" y="-16.6000000238"/>
    </contour>
  </outline>
</glyph>
<glyph name="at" format="1">
  <advance width="2149.800"/>
  <unicode hex="0040"/>
  <outline>
    <contour>
      <point x="1048.2" y="-254.8" type="curve" smooth="yes"/>
      <point x="1255.8" y="-254.8"/>
      <point x="1437" y="-205.2"/>
      <point x="1577.2" y="-111" type="curve"/>
      <point x="1539.2" y="-35.6" type="line"/>
      <point x="1395" y="-118.6"/>
      <point x="1233.2" y="-165.2"/>
      <point x="1054" y="-165.2" type="curve" smooth="yes"/>
      <point x="634.8" y="-165.2"/>
      <point x="314" y="79"/>
      <point x="314" y="591.2" type="curve" smooth="yes"/>
      <point x="314" y="1094.4"/>
      <point x="675" y="1417.8"/>
      <point x="1121.4" y="1417.8" type="curve" smooth="yes"/>
      <point x="1509.4" y="1417.8"/>
      <point x="1837.8" y="1166.2"/>
      <point x="1837.8" y="749.6" type="curve" smooth="yes"/>
      <point x="1837.8" y="502.2"/>
      <point x="1724" y="270.6"/>
      <point x="1536.8" y="270.6" type="curve" smooth="yes"/>
      <point x="1422.8" y="270.6"/>
      <point x="1375" y="368.6"/>
      <point x="1375" y="480.8" type="curve" smooth="yes"/>
      <point x="1375" y="614.8"/>
      <point x="1414.6" y="815.6"/>
      <point x="1445.4" y="1033.4" type="curve"/>
      <point x="1352.4" y="1061.2"/>
      <point x="1246.2" y="1090.6"/>
      <point x="1140.6" y="1090.6" type="curve" smooth="yes"/>
      <point x="844.6" y="1090.6"/>
      <point x="679.4" y="858.6"/>
      <point x="679.4" y="559.2" type="curve" smooth="yes"/>
      <point x="679.4" y="315.2"/>
      <point x="797.6" y="182.6"/>
      <point x="981.4" y="182.6" type="curve" smooth="yes"/>
      <point x="1162.6" y="182.6"/>
      <point x="1281.4" y="364.4"/>
      <point x="1337.6" y="576.2" type="curve"/>
      <point x="1277.6" y="576.2" type="line"/>
      <point x="1288" y="300.2"/>
      <point x="1364.6" y="200.8"/>
      <point x="1540.6" y="200.8" type="curve" smooth="yes"/>
      <point x="1724" y="200.8"/>
      <point x="1931.4" y="387.6"/>
      <point x="1931.4" y="743" type="curve" smooth="yes"/>
      <point x="1931.4" y="1220.8"/>
      <point x="1579.2" y="1512.4"/>
      <point x="1122" y="1512.4" type="curve" smooth="yes"/>
      <point x="587.4" y="1512.4"/>
      <point x="213.6" y="1120.8"/>
      <point x="213.6" y="588.8" type="curve" smooth="yes"/>
      <point x="213.6" y="55.8"/>
      <point x="535.4" y="-254.8"/>
    </contour>
    <contour>
      <point x="994.6" y="274.6" type="curve" smooth="yes"/>
      <point x="869.4" y="274.6"/>
      <point x="786" y="345.4"/>
      <point x="786" y="562.6" type="curve" smooth="yes"/>
      <point x="786" y="786.4"/>
      <point x="916" y="1002.2"/>
      <point x="1127.2" y="1002.2" type="curve" smooth="yes"/>
      <point x="1178.8" y="1002.2"/>
      <point x="1346" y="973"/>
      <point x="1387.8" y="958.8" type="curve"/>
      <point x="1319" y="1044.8" type="line"/>
      <point x="1311.8" y="969.2"/>
      <point x="1276" y="756.8"/>
      <point x="1265.2" y="682.4" type="curve" smooth="yes"/>
      <point x="1239.4" y="467.2"/>
      <point x="1160.4" y="274.6"/>
    </contour>
  </outline>
</glyph>
<glyph name="A" format="1">
  <advance width="1267.400"/>
  <unicode hex="0041"/>
  <outline>
    <contour>
      <point x="49" y="0" type="line"/>
      <point x="132.6" y="0" type="line"/>
      <point x="344.6" y="549.8" type="line"/>
      <point x="297" y="515" type="line"/>
      <point x="986.2" y="515" type="line"/>
      <point x="936.8" y="548.4" type="line"/>
      <point x="1142.6" y="0" type="line"/>
      <point x="1218.4" y="0" type="line"/>
      <point x="661" y="1454.8" type="line"/>
      <point x="606" y="1454.8" type="line"/>
    </contour>
    <contour>
      <point x="346.2" y="553.4" type="line"/>
      <point x="657" y="1406.2" type="line"/>
      <point x="608.6" y="1408.6" type="line"/>
      <point x="935.4" y="553.2" type="line"/>
      <point x="968.2" y="581.8" type="line"/>
      <point x="319.2" y="581.8" type="line"/>
    </contour>
  </outline>
</glyph>
<glyph name="B" format="1">
  <advance width="1366.200"/>
  <unicode hex="0042"/>
  <outline>
    <contour>
      <point x="222.8" y="0" type="line"/>
      <point x="743.6" y="0" type="line" smooth="yes"/>
      <point x="1112.4" y="0"/>
      <point x="1245" y="166.6"/>
      <point x="1245" y="398.8" type="curve" smooth="yes"/>
      <point x="1245" y="619.2"/>
      <point x="1103.6" y="742.8"/>
      <point x="828.2" y="772.8" type="curve"/>
      <point x="828.2" y="740.2" type="line"/>
      <point x="1129.2" y="797.2"/>
      <point x="1181.8" y="921.8"/>
      <point x="1181.8" y="1103.8" type="curve" smooth="yes"/>
      <point x="1181.8" y="1333.6"/>
      <point x="1028.4" y="1454.8"/>
      <point x="648.8" y="1454.8" type="curve" smooth="yes"/>
      <point x="222.8" y="1454.8" type="line"/>
    </contour>
    <contour>
      <point x="266.2" y="67.4" type="line"/>
      <point x="308.8" y="24.2" type="line"/>
      <point x="308.8" y="757.6" type="line"/>
      <point x="265" y="728.6" type="line"/>
      <point x="646.6" y="728.6" type="line" smooth="yes"/>
      <point x="991.8" y="728.6"/>
      <point x="1159" y="651.8"/>
      <point x="1159" y="392.4" type="curve" smooth="yes"/>
      <point x="1159" y="159.4"/>
      <point x="1034" y="67.4"/>
      <point x="734" y="67.4" type="curve" smooth="yes"/>
    </contour>
    <contour>
      <point x="263.8" y="801.8" type="line"/>
      <point x="308.8" y="770.4" type="line"/>
      <point x="308.8" y="1427.4" type="line"/>
      <point x="267.4" y="1386.2" type="line"/>
      <point x="671.6" y="1386.2" type="line" smooth="yes"/>
      <point x="963.8" y="1386.2"/>
      <point x="1103.8" y="1329.4"/>
      <point x="1103.8" y="1097.8" type="curve" smooth="yes"/>
      <point x="1103.8" y="849.8"/>
      <point x="947.8" y="801.8"/>
      <point x="734.8" y="801.8" type="curve" smooth="yes"/>
    </contour>
  </outline>
</glyph>
<glyph name="C" format="1">
  <advance width="1308.600"/>
  <unicode hex="0043"/>
  <outline>
    <contour>
      <point x="840" y="-19" type="curve" smooth="yes"/>
      <point x="1083.8" y="-19"/>
      <point x="1203.8" y="60.4"/>
      <point x="1208.4" y="67.2" type="curve"/>
      <point x="1177.6" y="130" type="line"/>
      <point x="1153.4" y="118.6"/>
      <point x="1049.2" y="47.4"/>
      <point x="851" y="47.4" type="curve" smooth="yes"/>
      <point x="430.8" y="47.4"/>
      <point x="232.6" y="368.2"/>
      <point x="232.6" y="724" type="curve" smooth="yes"/>
      <point x="232.6" y="1082.4"/>
      <point x="419.4" y="1406.6"/>
      <point x="834.4" y="1406.6" type="curve" smooth="yes"/>
      <point x="964.8" y="1406.6"/>
      <point x="1091.6" y="1369.2"/>
      <point x="1178.2" y="1310.6" type="curve"/>
      <point x="1221" y="1362.2" type="line"/>
      <point x="1144.2" y="1424.6"/>
      <point x="1007.8" y="1474"/>
      <point x="821.4" y="1474" type="curve" smooth="yes"/>
      <point x="362.2" y="1474"/>
      <point x="146.8" y="1122.6"/>
      <point x="146.8" y="731.8" type="curve" smooth="yes"/>
      <point x="146.8" y="297.8"/>
      <point x="420.6" y="-19"/>
    </contour>
  </outline>
</glyph>
<glyph name="D" format="1">
  <advance width="1527.600"/>
  <unicode hex="0044"/>
  <outline>
    <contour>
      <point x="308.8" y="23.2" type="line"/>
      <point x="308.8" y="1432" type="line"/>
      <point x="261.8" y="1386.2" type="line"/>
      <point x="598.6" y="1386.2" type="line" smooth="yes"/>
      <point x="1034.4" y="1386.2"/>
      <point x="1294.2" y="1211"/>
      <point x="1294.2" y="724" type="curve" smooth="yes"/>
      <point x="1294.2" y="280.6"/>
      <point x="1078.4" y="67.4"/>
      <point x="625.6" y="67.4" type="curve" smooth="yes"/>
      <point x="261.6" y="67.4" type="line"/>
    </contour>
    <contour>
      <point x="222.8" y="0" type="line"/>
      <point x="652.4" y="0" type="line" smooth="yes"/>
      <point x="1111.4" y="0"/>
      <point x="1380.4" y="242.6"/>
      <point x="1380.4" y="729" type="curve" smooth="yes"/>
      <point x="1380.4" y="1245.6"/>
      <point x="1076.6" y="1454.8"/>
      <point x="620" y="1454.8" type="curve" smooth="yes"/>
      <point x="222.8" y="1454.8" type="line"/>
    </contour>
  </outline>
</glyph>
<glyph name="E" format="1">
  <advance width="1121.600"/>
  <unicode hex="0045"/>
  <outline>
    <contour>
      <point x="222.8" y="0" type="line"/>
      <point x="1061.6" y="0" type="line"/>
      <point x="1068.8" y="67.4" type="line"/>
      <point x="271.8" y="67.4" type="line"/>
      <point x="308.8" y="28.8" type="line"/>
      <point x="308.8" y="735.6" type="line"/>
      <point x="272" y="710.6" type="line"/>
      <point x="983" y="710.6" type="line"/>
      <point x="983" y="779.2" type="line"/>
      <point x="271.8" y="779.2" type="line"/>
      <point x="308.8" y="745.6" type="line"/>
      <point x="308.8" y="1415.8" type="line"/>
      <point x="274.4" y="1386.2" type="line"/>
      <point x="1068.4" y="1386.2" type="line"/>
      <point x="1071" y="1454.8" type="line"/>
      <point x="222.8" y="1454.8" type="line"/>
    </contour>
  </outline>
</glyph>
<glyph name="F" format="1">
  <advance width="1044"/>
  <unicode hex="0046"/>
  <outline>
    <contour>
      <point x="222.8" y="0" type="line"/>
      <point x="313.6" y="0" type="line"/>
      <point x="313.6" y="720.2" type="line"/>
      <point x="272.6" y="700.6" type="line"/>
      <point x="925.4" y="700.6" type="line"/>
      <point x="925.4" y="763.6" type="line"/>
      <point x="265" y="763.6" type="line"/>
      <point x="313.6" y="731.4" type="line"/>
      <point x="313.6" y="1432.2" type="line"/>
      <point x="266" y="1388.2" type="line"/>
      <point x="967.6" y="1388.2" type="line"/>
      <point x="976" y="1454.8" type="line"/>
      <point x="222.8" y="1454.8" type="line"/>
    </contour>
  </outline>
</glyph>
<glyph name="G" format="1">
  <advance width="1488.400"/>
  <unicode hex="0047"/>
  <outline>
    <contour>
      <point x="833.4" y="-19" type="curve" smooth="yes"/>
      <point x="1032.6" y="-19"/>
      <point x="1186" y="10.8"/>
      <point x="1326.6" y="59.6" type="curve"/>
      <point x="1326.6" y="715" type="line"/>
      <point x="902.2" y="715" type="line"/>
      <point x="890.2" y="631.4" type="line"/>
      <point x="1280.2" y="631.4" type="line"/>
      <point x="1232" y="679.6" type="line"/>
      <point x="1232" y="56.6" type="line"/>
      <point x="1265" y="99.4" type="line"/>
      <point x="1210.6" y="82.4"/>
      <point x="1033" y="47.6"/>
      <point x="878" y="47.6" type="curve" smooth="yes"/>
      <point x="409.6" y="47.6"/>
      <point x="231.6" y="318.8"/>
      <point x="231.6" y="720.6" type="curve" smooth="yes"/>
      <point x="231.6" y="1090.8"/>
      <point x="450.4" y="1406.2"/>
      <point x="852.6" y="1406.2" type="curve" smooth="yes"/>
      <point x="1139.8" y="1406.2"/>
      <point x="1221.2" y="1315"/>
      <point x="1256.6" y="1289.2" type="curve"/>
      <point x="1279.4" y="1359" type="line"/>
      <point x="1183" y="1446.2"/>
      <point x="1023.8" y="1474"/>
      <point x="860.8" y="1474" type="curve" smooth="yes"/>
      <point x="387" y="1474"/>
      <point x="145.8" y="1125.6"/>
      <point x="145.8" y="720" type="curve" smooth="yes"/>
      <point x="145.8" y="313.4"/>
      <point x="363" y="-19"/>
    </contour>
  </outline>
</glyph>
<glyph name="H" format="1">
  <advance width="1487.200"/>
  <unicode hex="0048"/>
  <outline>
    <contour>
      <point x="219.2" y="0" type="line"/>
      <point x="305.2" y="0" type="line"/>
      <point x="305.2" y="743.4" type="line"/>
      <point x="255.8" y="717.8" type="line"/>
      <point x="1237" y="717.8" type="line"/>
      <point x="1182" y="743.4" type="line"/>
      <point x="1182" y="0" type="line"/>
      <point x="1268" y="0" type="line"/>
      <point x="1268" y="1454.8" type="line"/>
      <point x="1182" y="1454.8" type="line"/>
      <point x="1182" y="750.2" type="line"/>
      <point x="1236" y="777" type="line"/>
      <point x="256" y="777" type="line"/>
      <point x="305.2" y="750.2" type="line"/>
      <point x="305.2" y="1454.8" type="line"/>
      <point x="219.2" y="1454.8" type="line"/>
    </contour>
  </outline>
</glyph>
<glyph name="I" format="1">
  <advance width="734"/>
  <unicode hex="0049"/>
  <outline>
    <contour>
      <point x="112.8" y="1454.8" type="line"/>
      <point x="112.8" y="1398.2" type="line"/>
      <point x="353" y="1398.2" type="line"/>
      <point x="324.8" y="1433.8" type="line"/>
      <point x="324.8" y="14.8" type="line"/>
      <point x="359.2" y="56.8" type="line"/>
      <point x="112.8" y="56.8" type="line"/>
      <point x="112.8" y="0" type="line"/>
      <point x="622.4" y="0" type="line"/>
      <point x="622.4" y="56.8" type="line"/>
      <point x="378.4" y="56.8" type="line"/>
      <point x="410.8" y="17.4" type="line"/>
      <point x="410.8" y="1430.8" type="line"/>
      <point x="383.2" y="1398.2" type="line"/>
      <point x="622.4" y="1398.2" type="line"/>
      <point x="622.4" y="1454.8" type="line"/>
    </contour>
  </outline>
</glyph>
<glyph name="J" format="1">
  <advance width="664.600"/>
  <unicode hex="004A"/>
  <outline>
    <contour>
      <point x="49.4" y="-121.4" type="line"/>
      <point x="385" y="-121.4"/>
      <point x="441.6" y="3"/>
      <point x="441.6" y="281.2" type="curve" smooth="yes"/>
      <point x="441.6" y="1454.8" type="line"/>
      <point x="355.8" y="1454.8" type="line"/>
      <point x="355.8" y="244.4" type="line" smooth="yes"/>
      <point x="355.8" y="-8.8"/>
      <point x="282.4" y="-49.4"/>
      <point x="57.6" y="-49.4" type="curve" smooth="yes"/>
      <point x="5" y="-49.4" type="line"/>
      <point x="5" y="-121.4" type="line"/>
    </contour>
  </outline>
</glyph>
<glyph name="K" format="1">
  <advance width="1235.400"/>
  <unicode hex="004B"/>
  <outline>
    <contour>
      <point x="222.8" y="0" type="line"/>
      <point x="308.8" y="0" type="line"/>
      <point x="308.8" y="659" type="line"/>
      <point x="264.4" y="571.4" type="line"/>
      <point x="478.4" y="780.8" type="line"/>
      <point x="418.8" y="780.8" type="line"/>
      <point x="1069.2" y="0" type="line"/>
      <point x="1175" y="0" type="line"/>
      <point x="475.2" y="841.2" type="line"/>
      <point x="475.2" y="793.8" type="line"/>
      <point x="1145.6" y="1454.8" type="line"/>
      <point x="1042.6" y="1454.8" type="line"/>
      <point x="271.8" y="684.6" type="line"/>
      <point x="308.8" y="674.4" type="line"/>
      <point x="308.8" y="1454.8" type="line"/>
      <point x="222.8" y="1454.8" type="line"/>
    </contour>
  </outline>
</glyph>
<glyph name="L" format="1">
  <advance width="1080"/>
  <unicode hex="004C"/>
  <outline>
    <contour>
      <point x="222.8" y="0" type="line"/>
      <point x="1013.8" y="0" type="line"/>
      <point x="1011" y="67.4" type="line"/>
      <point x="260" y="67.4" type="line"/>
      <point x="308.8" y="16.4" type="line"/>
      <point x="308.8" y="1454.8" type="line"/>
      <point x="222.8" y="1454.8" type="line"/>
    </contour>
  </outline>
</glyph>
<glyph name="M" format="1">
  <advance width="1762.200"/>
  <unicode hex="004D"/>
  <outline>
    <contour>
      <point x="200" y="0" type="line"/>
      <point x="279.2" y="0" type="line"/>
      <point x="296.4" y="1182.4" type="line"/>
      <point x="296.4" y="1492" type="line"/>
      <point x="276.8" y="1492" type="line"/>
      <point x="832" y="132.8" type="line"/>
      <point x="936" y="132.8" type="line"/>
      <point x="1497" y="1492" type="line"/>
      <point x="1468.2" y="1492" type="line"/>
      <point x="1468.2" y="1186.6" type="line"/>
      <point x="1485.4" y="0" type="line"/>
      <point x="1562.4" y="0" type="line"/>
      <point x="1539" y="1454.8" type="line"/>
      <point x="1390" y="1454.8" type="line"/>
      <point x="859" y="143.8" type="line"/>
      <point x="909.6" y="143.8" type="line"/>
      <point x="378.6" y="1454.8" type="line"/>
      <point x="221" y="1454.8" type="line"/>
    </contour>
  </outline>
</glyph>
<glyph name="N" format="1">
  <advance width="1543.800"/>
  <unicode hex="004E"/>
  <outline>
    <contour>
      <point x="222.8" y="0" type="line"/>
      <point x="289" y="0" type="line"/>
      <point x="289" y="997.8" type="line"/>
      <point x="278.4" y="1422.6" type="line"/>
      <point x="248.4" y="1396.2" type="line"/>
      <point x="1249.8" y="0" type="line"/>
      <point x="1321" y="0" type="line"/>
      <point x="1321" y="1454.8" type="line"/>
      <point x="1256" y="1454.8" type="line"/>
      <point x="1256" y="468" type="line"/>
      <point x="1261.4" y="46.2" type="line"/>
      <point x="1299" y="52.2" type="line"/>
      <point x="291.6" y="1454.8" type="line"/>
      <point x="222.8" y="1454.8" type="line"/>
    </contour>
  </outline>
</glyph>
<glyph name="O" format="1">
  <advance width="1646.200"/>
  <unicode hex="004F"/>
  <outline>
    <contour>
      <point x="824" y="48.4" type="curve" smooth="yes"/>
      <point x="395.4" y="48.4"/>
      <point x="232.6" y="326.6"/>
      <point x="232.6" y="714.2" type="curve" smooth="yes"/>
      <point x="232.6" y="1124.8"/>
      <point x="413.2" y="1407"/>
      <point x="826.4" y="1407" type="curve" smooth="yes"/>
      <point x="1240.8" y="1407"/>
      <point x="1413.4" y="1121.2"/>
      <point x="1413.4" y="714.2" type="curve" smooth="yes"/>
      <point x="1413.4" y="326.6"/>
      <point x="1252.6" y="48.4"/>
    </contour>
    <contour>
      <point x="826.4" y="-19" type="curve" smooth="yes"/>
      <point x="1288.6" y="-19"/>
      <point x="1499.4" y="292.2"/>
      <point x="1499.4" y="710.2" type="curve" smooth="yes"/>
      <point x="1499.4" y="1156.2"/>
      <point x="1269.8" y="1474"/>
      <point x="827.6" y="1474" type="curve" smooth="yes"/>
      <point x="369.8" y="1474"/>
      <point x="146.8" y="1162.2"/>
      <point x="146.8" y="713.8" type="curve" smooth="yes"/>
      <point x="146.8" y="282.6"/>
      <point x="354.6" y="-19"/>
    </contour>
  </outline>
</glyph>
<glyph name="P" format="1">
  <advance width="1196.200"/>
  <unicode hex="0050"/>
  <outline>
    <contour>
      <point x="222.8" y="0" type="line"/>
      <point x="308.8" y="0" type="line"/>
      <point x="308.8" y="767" type="line"/>
      <point x="254.2" y="734.4" type="line"/>
      <point x="673.2" y="734.4" type="line" smooth="yes"/>
      <point x="961.2" y="734.4"/>
      <point x="1094.2" y="858.8"/>
      <point x="1094.2" y="1112.8" type="curve" smooth="yes"/>
      <point x="1094.2" y="1350.4"/>
      <point x="920" y="1454.8"/>
      <point x="679.2" y="1454.8" type="curve" smooth="yes"/>
      <point x="222.8" y="1454.8" type="line"/>
    </contour>
    <contour>
      <point x="687" y="801.2" type="curve" smooth="yes"/>
      <point x="252.4" y="801.2" type="line"/>
      <point x="308.8" y="770.4" type="line"/>
      <point x="308.8" y="1438" type="line"/>
      <point x="252.4" y="1386.2" type="line"/>
      <point x="676.6" y="1386.2" type="line" smooth="yes"/>
      <point x="864.8" y="1386.2"/>
      <point x="1008.2" y="1324"/>
      <point x="1008.2" y="1115.8" type="curve" smooth="yes"/>
      <point x="1008.2" y="869.6"/>
      <point x="900.4" y="801.2"/>
    </contour>
  </outline>
</glyph>
<glyph name="Q" format="1">
  <advance width="1646.600"/>
  <unicode hex="0051"/>
  <outline>
    <contour>
      <point x="1278" y="-394.2" type="curve"/>
      <point x="1323" y="-345.8" type="line"/>
      <point x="1250.4" y="-269.6"/>
      <point x="1106" y="-102.4"/>
      <point x="1053" y="16.2" type="curve"/>
      <point x="986.8" y="14.2" type="line"/>
      <point x="1079.8" y="-170.8"/>
      <point x="1240" y="-341"/>
    </contour>
    <component base="O"/>
  </outline>
</glyph>
<glyph name="R" format="1">
  <advance width="1404.600"/>
  <unicode hex="0052"/>
  <outline>
    <contour>
      <point x="222.8" y="0" type="line"/>
      <point x="308.8" y="0" type="line"/>
      <point x="308.8" y="788.6" type="line"/>
      <point x="253.8" y="747.2" type="line"/>
      <point x="914" y="747.2" type="line"/>
      <point x="841" y="803" type="line"/>
      <point x="967.2" y="536.4" type="line"/>
      <point x="1192.4" y="0" type="line"/>
      <point x="1277.6" y="0" type="line"/>
      <point x="1018.6" y="585" type="line"/>
      <point x="924.6" y="819.8" type="line"/>
      <point x="922.8" y="757.6" type="line"/>
      <point x="1130.4" y="786"/>
      <point x="1215" y="903"/>
      <point x="1215" y="1110.6" type="curve" smooth="yes"/>
      <point x="1215" y="1315.2"/>
      <point x="1122.2" y="1454.8"/>
      <point x="831.2" y="1454.8" type="curve" smooth="yes"/>
      <point x="222.8" y="1454.8" type="line"/>
    </contour>
    <contour>
      <point x="308.8" y="786.4" type="line"/>
      <point x="308.8" y="1435.8" type="line"/>
      <point x="250.6" y="1386.2" type="line"/>
      <point x="826" y="1386.2" type="line" smooth="yes"/>
      <point x="1066.4" y="1386.2"/>
      <point x="1135" y="1284"/>
      <point x="1135" y="1109" type="curve" smooth="yes"/>
      <point x="1135" y="898.2"/>
      <point x="1078" y="823.8"/>
      <point x="781.2" y="823.8" type="curve" smooth="yes"/>
      <point x="254.2" y="823.8" type="line"/>
    </contour>
  </outline>
</glyph>
<glyph name="S" format="1">
  <advance width="1190.154"/>
  <unicode hex="0053"/>
  <outline>
    <contour>
      <point x="600.8" y="-19" type="curve" smooth="yes"/>
      <point x="849.8" y="-19"/>
      <point x="1051.8" y="66.2"/>
      <point x="1071" y="360.4" type="curve" smooth="yes"/>
      <point x="1087.8" y="623.2"/>
      <point x="902.2" y="683"/>
      <point x="720" y="758.8" type="curve" smooth="yes"/>
      <point x="486.4" y="855.2" type="line" smooth="yes"/>
      <point x="295.2" y="932.6"/>
      <point x="244.2" y="969.4"/>
      <point x="244.2" y="1133.4" type="curve" smooth="yes"/>
      <point x="244.2" y="1347.4"/>
      <point x="453.2" y="1407"/>
      <point x="623.2" y="1407" type="curve" smooth="yes"/>
      <point x="813" y="1407"/>
      <point x="935.2" y="1316.2"/>
      <point x="950.6" y="1300.6" type="curve"/>
      <point x="1000.6" y="1346.4" type="line"/>
      <point x="949.2" y="1398"/>
      <point x="803.2" y="1474"/>
      <point x="641.2" y="1474" type="curve" smooth="yes"/>
      <point x="432.2" y="1474"/>
      <point x="168.8" y="1411.6"/>
      <point x="168.8" y="1121.4" type="curve" smooth="yes"/>
      <point x="168.8" y="922.6"/>
      <point x="283.6" y="867.2"/>
      <point x="474" y="789.6" type="curve" smooth="yes"/>
      <point x="710.2" y="693.8" type="line" smooth="yes"/>
      <point x="949" y="598.6"/>
      <point x="1008.2" y="541"/>
      <point x="999.8" y="354.8" type="curve" smooth="yes"/>
      <point x="987.8" y="132.2"/>
      <point x="846.4" y="48.4"/>
      <point x="604.8" y="48.4" type="curve" smooth="yes"/>
      <point x="393.8" y="48.4"/>
      <point x="294.6" y="120.8"/>
      <point x="194.4" y="199.2" type="curve"/>
      <point x="154.4" y="142.6" type="line"/>
      <point x="190" y="103.6"/>
      <point x="307.8" y="-19"/>
    </contour>
  </outline>
</glyph>
<glyph name="T" format="1">
  <advance width="1121.800"/>
  <unicode hex="0054"/>
  <outline>
    <contour>
      <point x="514.4" y="0" type="line"/>
      <point x="600.2" y="0" type="line"/>
      <point x="600.2" y="1433.4" type="line"/>
      <point x="564" y="1397.6" type="line"/>
      <point x="1065" y="1397.6" type="line"/>
      <point x="1065" y="1454.8" type="line"/>
      <point x="56.8" y="1454.8" type="line"/>
      <point x="56.8" y="1397.6" type="line"/>
      <point x="550.6" y="1397.6" type="line"/>
      <point x="514.4" y="1430.8" type="line"/>
    </contour>
  </outline>
</glyph>
<glyph name="U" format="1">
  <advance width="1453.400"/>
  <unicode hex="0055"/>
  <outline>
    <contour>
      <point x="727.8" y="-19" type="curve" smooth="yes"/>
      <point x="1126.6" y="-19"/>
      <point x="1279.8" y="234"/>
      <point x="1279.8" y="539.2" type="curve" smooth="yes"/>
      <point x="1279.8" y="1454.8" type="line"/>
      <point x="1193.8" y="1454.8" type="line"/>
      <point x="1193.8" y="533.6" type="line" smooth="yes"/>
      <point x="1193.8" y="220.6"/>
      <point x="1042.4" y="47.6"/>
      <point x="727.8" y="47.6" type="curve" smooth="yes"/>
      <point x="392.8" y="47.6"/>
      <point x="259.4" y="222"/>
      <point x="259.4" y="535" type="curve" smooth="yes"/>
      <point x="259.4" y="1454.8" type="line"/>
      <point x="173.6" y="1454.8" type="line"/>
      <point x="173.6" y="542.6" type="line" smooth="yes"/>
      <point x="173.6" y="223.6"/>
      <point x="323.2" y="-19"/>
    </contour>
  </outline>
</glyph>
<glyph name="V" format="1">
  <advance width="1332.400"/>
  <unicode hex="0056"/>
  <outline>
    <contour>
      <point x="657" y="0" type="line"/>
      <point x="677" y="0" type="line"/>
      <point x="1259.6" y="1454.8" type="line"/>
      <point x="1178.6" y="1454.8" type="line"/>
      <point x="793.2" y="461.2" type="line"/>
      <point x="636.8" y="75" type="line"/>
      <point x="692.4" y="75" type="line"/>
      <point x="538" y="455.4" type="line"/>
      <point x="154.4" y="1454.8" type="line"/>
      <point x="72.8" y="1454.8" type="line"/>
    </contour>
  </outline>
</glyph>
<glyph name="W" format="1">
  <advance width="2091.600"/>
  <unicode hex="0057"/>
  <outline>
    <contour>
      <point x="544.4" y="0" type="line"/>
      <point x="629.4" y="0" type="line"/>
      <point x="1074.2" y="1414.8" type="line"/>
      <point x="1023.6" y="1414.8" type="line"/>
      <point x="1471.2" y="0" type="line"/>
      <point x="1560.4" y="0" type="line"/>
      <point x="2026" y="1453.6" type="line"/>
      <point x="1945.8" y="1453.6" type="line"/>
      <point x="1496.6" y="32.6" type="line"/>
      <point x="1541" y="32.6" type="line"/>
      <point x="1095.4" y="1405.8" type="line"/>
      <point x="998.6" y="1405.8" type="line"/>
      <point x="565" y="30.2" type="line"/>
      <point x="607.4" y="30.2" type="line"/>
      <point x="142" y="1453.6" type="line"/>
      <point x="65.6" y="1453.6" type="line"/>
    </contour>
  </outline>
</glyph>
<glyph name="X" format="1">
  <advance width="1308"/>
  <unicode hex="0058"/>
  <outline>
    <contour>
      <point x="163.4" y="0" type="line"/>
      <point x="236.8" y="0" type="line"/>
      <point x="665" y="695.6" type="line"/>
      <point x="697" y="694.8" type="line"/>
      <point x="1169.6" y="1454.8" type="line"/>
      <point x="1086.8" y="1454.8" type="line"/>
      <point x="659.6" y="747.6" type="line"/>
      <point x="622" y="732.4" type="line"/>
    </contour>
    <contour>
      <point x="1102.2" y="0" type="line"/>
      <point x="1165" y="0" type="line"/>
      <point x="205.4" y="1454.8" type="line"/>
      <point x="136.2" y="1454.8" type="line"/>
    </contour>
  </outline>
</glyph>
<glyph name="Y" format="1">
  <advance width="1195.600"/>
  <unicode hex="0059"/>
  <outline>
    <contour>
      <point x="582" y="0" type="line"/>
      <point x="660.8" y="0" type="line"/>
      <point x="660.8" y="671.4" type="line"/>
      <point x="626.4" y="556.4" type="line"/>
      <point x="1131.4" y="1454.8" type="line"/>
      <point x="1057.2" y="1454.8" type="line"/>
      <point x="602.6" y="652.8" type="line"/>
      <point x="642.4" y="652.8" type="line"/>
      <point x="136.2" y="1454.8" type="line"/>
      <point x="64.2" y="1454.8" type="line"/>
      <point x="621" y="552.4" type="line"/>
      <point x="582" y="673.8" type="line"/>
    </contour>
  </outline>
</glyph>
<glyph name="Z" format="1">
  <advance width="1203.800"/>
  <unicode hex="005A"/>
  <outline>
    <contour>
      <point x="147.6" y="0" type="line"/>
      <point x="1070.2" y="0" type="line"/>
      <point x="1083.4" y="67.4" type="line"/>
      <point x="172.2" y="67.4" type="line"/>
      <point x="188.4" y="28.4" type="line"/>
      <point x="1078" y="1387.2" type="line"/>
      <point x="1066" y="1454.8" type="line"/>
      <point x="198.8" y="1454.8" type="line"/>
      <point x="198.8" y="1386.2" type="line"/>
      <point x="1037" y="1386.2" type="line"/>
      <point x="1011.4" y="1407.8" type="line"/>
      <point x="147.6" y="83.8" type="line"/>
    </contour>
  </outline>
</glyph>
<glyph name="bracketleft" format="1">
  <advance width="616.799999654"/>
  <unicode hex="005B"/>
  <outline>
    <contour>
      <point x="179.199999928" y="-345.800000578" type="line"/>
      <point x="179.199999928" y="1437.59999983" type="line"/>
      <point x="600.799999848" y="1437.59999983" type="line"/>
      <point x="600.799999848" y="1369.80000013" type="line"/>
      <point x="247.799999461" y="1369.80000013" type="line"/>
      <point x="247.799999461" y="-280.600000888" type="line"/>
      <point x="600.799999848" y="-280.600000888" type="line"/>
      <point x="600.799999848" y="-345.800000578" type="line"/>
    </contour>
  </outline>
</glyph>
<glyph name="backslash" format="1">
  <advance width="982.200"/>
  <unicode hex="005C"/>
  <outline>
    <contour>
      <point x="743.6" y="-72" type="line"/>
      <point x="142.6" y="1458.2" type="line"/>
      <point x="193.8" y="1458.2" type="line"/>
      <point x="797" y="-72" type="line"/>
    </contour>
  </outline>
</glyph>
<glyph name="bracketright" format="1">
  <advance width="620.400"/>
  <unicode hex="005D"/>
  <outline>
    <contour>
      <point x="18" y="-345.8" type="line"/>
      <point x="18" y="-280.4" type="line"/>
      <point x="372.2" y="-280.4" type="line"/>
      <point x="372.2" y="1370" type="line"/>
      <point x="18" y="1370" type="line"/>
      <point x="18" y="1437.6" type="line"/>
      <point x="438.4" y="1437.6" type="line"/>
      <point x="438.4" y="-345.8" type="line"/>
    </contour>
  </outline>
</glyph>
<glyph name="asciicircum" format="1">
  <advance width="1377.40000074"/>
  <unicode hex="005E"/>
  <outline>
    <contour>
      <point x="224.400000438" y="624.000000268" type="line"/>
      <point x="641.600000381" y="1517.20000026" type="line"/>
      <point x="704.000000209" y="1517.20000026" type="line"/>
      <point x="1143.40000014" y="624.000000268" type="line"/>
      <point x="1081.80000053" y="624.000000268" type="line"/>
      <point x="675.000000298" y="1451.8000008" type="line"/>
      <point x="282.400000036" y="624.000000268" type="line"/>
    </contour>
  </outline>
</glyph>
<glyph name="underscore" format="1">
  <advance width="1090.00000019"/>
  <unicode hex="005F"/>
  <outline>
    <contour>
      <point x="107.40000014" y="-313.600000322" type="line"/>
      <point x="956.999999866" y="-313.600000322" type="line"/>
      <point x="956.999999866" y="-242.400000602" type="line"/>
      <point x="107.40000014" y="-242.400000602" type="line"/>
    </contour>
  </outline>
</glyph>
<glyph name="grave" format="1">
  <advance width="795"/>
  <unicode hex="0060"/>
  <outline>
    <contour>
      <point x="492" y="1282.6" type="line"/>
      <point x="528.2" y="1282.6" type="line"/>
      <point x="359" y="1653.2" type="line"/>
      <point x="262.2" y="1653.2" type="line"/>
    </contour>
  </outline>
</glyph>
<glyph name="a" format="1">
  <advance width="1133.200"/>
  <unicode hex="0061"/>
  <outline>
    <contour>
      <point x="452.6" y="-14.2" type="curve" smooth="yes"/>
      <point x="577.4" y="-14.2"/>
      <point x="754" y="8.8"/>
      <point x="899.2" y="223.2" type="curve"/>
      <point x="868" y="215.6" type="line"/>
      <point x="887.2" y="1.2" type="line"/>
      <point x="950.4" y="1.2" type="line"/>
      <point x="950.4" y="703.8" type="line" smooth="yes"/>
      <point x="950.4" y="982.2"/>
      <point x="786.2" y="1071.6"/>
      <point x="548.6" y="1071.6" type="curve" smooth="yes"/>
      <point x="428.6" y="1071.6"/>
      <point x="274.6" y="1030.4"/>
      <point x="200.2" y="984.6" type="curve"/>
      <point x="236.2" y="916.2" type="line"/>
      <point x="328.2" y="970.8"/>
      <point x="472.2" y="1000.8"/>
      <point x="582.6" y="1000.8" type="curve" smooth="yes"/>
      <point x="778.8" y="1000.8"/>
      <point x="861.2" y="893.4"/>
      <point x="861.2" y="723" type="curve" smooth="yes"/>
      <point x="861.2" y="571.8" type="line"/>
      <point x="891.2" y="605.8" type="line"/>
      <point x="654.2" y="609.6" type="line" smooth="yes"/>
      <point x="270.6" y="614"/>
      <point x="124.8" y="490"/>
      <point x="124.8" y="268.2" type="curve" smooth="yes"/>
      <point x="124.8" y="87.2"/>
      <point x="258" y="-14.2"/>
    </contour>
    <contour>
      <point x="427.6" y="57.8" type="curve" smooth="yes"/>
      <point x="330" y="57.8"/>
      <point x="219.2" y="117.8"/>
      <point x="219.2" y="269.2" type="curve" smooth="yes"/>
      <point x="219.2" y="443.8"/>
      <point x="283.6" y="548.4"/>
      <point x="662.6" y="545" type="curve" smooth="yes"/>
      <point x="894.2" y="542.6" type="line"/>
      <point x="861.4" y="576" type="line"/>
      <point x="861.4" y="235.8" type="line"/>
      <point x="891.4" y="358.4" type="line"/>
      <point x="764.2" y="115.6"/>
      <point x="612.6" y="57.8"/>
    </contour>
  </outline>
</glyph>
<glyph name="b" format="1">
  <advance width="1249.400"/>
  <unicode hex="0062"/>
  <outline>
    <contour>
      <point x="654.2" y="-19" type="curve" smooth="yes"/>
      <point x="969.4" y="-19"/>
      <point x="1126.6" y="189.2"/>
      <point x="1126.6" y="515" type="curve" smooth="yes"/>
      <point x="1126.6" y="855.2"/>
      <point x="983" y="1070.2"/>
      <point x="664.2" y="1070.2" type="curve" smooth="yes"/>
      <point x="476" y="1070.2"/>
      <point x="317.4" y="948"/>
      <point x="253.6" y="774.4" type="curve"/>
      <point x="285.6" y="778.2" type="line"/>
      <point x="284.4" y="1038.2" type="line"/>
      <point x="284.4" y="1499.6" type="line"/>
      <point x="188.2" y="1490.8" type="line"/>
      <point x="188.2" y="0" type="line"/>
      <point x="254.6" y="0" type="line"/>
      <point x="270.2" y="340.8" type="line"/>
      <point x="221.4" y="341" type="line"/>
      <point x="257" y="207.6"/>
      <point x="384.6" y="-19"/>
    </contour>
    <contour>
      <point x="673.4" y="50" type="curve" smooth="yes"/>
      <point x="429" y="50"/>
      <point x="281.8" y="227.4"/>
      <point x="281.8" y="538.6" type="curve"/>
      <point x="280.2" y="789"/>
      <point x="387.8" y="1001"/>
      <point x="683.2" y="1001" type="curve" smooth="yes"/>
      <point x="958.2" y="1001"/>
      <point x="1034" y="772.2"/>
      <point x="1034" y="518" type="curve" smooth="yes"/>
      <point x="1034" y="249.4"/>
      <point x="943.6" y="50"/>
    </contour>
  </outline>
</glyph>
<glyph name="c" format="1">
  <advance width="978.600"/>
  <unicode hex="0063"/>
  <outline>
    <contour>
      <point x="611.8" y="-19" type="curve" smooth="yes"/>
      <point x="715.8" y="-19"/>
      <point x="832.8" y="10.6"/>
      <point x="874" y="45.4" type="curve"/>
      <point x="845" y="100.6" type="line"/>
      <point x="806" y="77.8"/>
      <point x="712.4" y="50.2"/>
      <point x="626.8" y="49.2" type="curve" smooth="yes"/>
      <point x="332" y="47.8"/>
      <point x="215.4" y="279.4"/>
      <point x="215.4" y="512.6" type="curve" smooth="yes"/>
      <point x="215.4" y="794.8"/>
      <point x="369.8" y="1002"/>
      <point x="619.2" y="1002" type="curve" smooth="yes"/>
      <point x="757.2" y="1002"/>
      <point x="843" y="943.4"/>
      <point x="836.6" y="947.2" type="curve"/>
      <point x="872" y="1008.2" type="line"/>
      <point x="889.2" y="996.4"/>
      <point x="791.8" y="1070.2"/>
      <point x="611.2" y="1070.2" type="curve" smooth="yes"/>
      <point x="325" y="1070.2"/>
      <point x="125.2" y="827"/>
      <point x="125.2" y="512" type="curve" smooth="yes"/>
      <point x="125.2" y="225.8"/>
      <point x="312.6" y="-19"/>
    </contour>
  </outline>
</glyph>
<glyph name="d" format="1">
  <advance width="1241.400"/>
  <unicode hex="0064"/>
  <outline>
    <contour>
      <point x="591.2" y="-19.2" type="curve" smooth="yes"/>
      <point x="831.4" y="-19.2"/>
      <point x="949.8" y="153.2"/>
      <point x="1003.4" y="340.4" type="curve"/>
      <point x="970.6" y="346.4" type="line"/>
      <point x="982.8" y="0" type="line"/>
      <point x="1054.2" y="0" type="line"/>
      <point x="1054.2" y="1499.6" type="line"/>
      <point x="961.6" y="1490.8" type="line"/>
      <point x="961.6" y="1149.4" type="line"/>
      <point x="973.8" y="730.8" type="line"/>
      <point x="1003" y="732.4" type="line"/>
      <point x="937" y="897.2"/>
      <point x="860.4" y="1070.2"/>
      <point x="586.4" y="1070.2" type="curve" smooth="yes"/>
      <point x="297" y="1070.2"/>
      <point x="125.2" y="850.2"/>
      <point x="125.2" y="532.2" type="curve" smooth="yes"/>
      <point x="125.2" y="195.6"/>
      <point x="277.6" y="-19.2"/>
    </contour>
    <contour>
      <point x="573.4" y="50" type="curve" smooth="yes"/>
      <point x="304.4" y="50"/>
      <point x="217.8" y="277"/>
      <point x="217.8" y="530.8" type="curve" smooth="yes"/>
      <point x="217.8" y="798"/>
      <point x="314" y="1001.4"/>
      <point x="580.6" y="1001.4" type="curve" smooth="yes"/>
      <point x="820.4" y="1001.4"/>
      <point x="962.8" y="807.8"/>
      <point x="962.8" y="514.8" type="curve"/>
      <point x="963.2" y="264.4"/>
      <point x="861.6" y="50"/>
    </contour>
  </outline>
</glyph>
<glyph name="e" format="1">
  <advance width="1121.200"/>
  <unicode hex="0065"/>
  <outline>
    <contour>
      <point x="604.8" y="-18.8" type="curve" smooth="yes"/>
      <point x="756.8" y="-18.8"/>
      <point x="871.6" y="19.8"/>
      <point x="972.6" y="74.2" type="curve"/>
      <point x="936.8" y="131.4" type="line"/>
      <point x="796.8" y="62.2"/>
      <point x="709.6" y="53.6"/>
      <point x="619" y="53.6" type="curve" smooth="yes"/>
      <point x="395" y="53.6"/>
      <point x="210.2" y="192.4"/>
      <point x="210" y="553.2" type="curve"/>
      <point x="171" y="526.6" type="line"/>
      <point x="990" y="526.6" type="line"/>
      <point x="990" y="526.6"/>
      <point x="995.6" y="554.6"/>
      <point x="995.6" y="588.6" type="curve" smooth="yes"/>
      <point x="995.6" y="884.6"/>
      <point x="855.4" y="1070.4"/>
      <point x="605.6" y="1070.4" type="curve" smooth="yes"/>
      <point x="354.2" y="1070.6"/>
      <point x="125.2" y="868.6"/>
      <point x="125.2" y="515.4" type="curve" smooth="yes"/>
      <point x="125.2" y="181.2"/>
      <point x="325.4" y="-18.8"/>
    </contour>
    <contour>
      <point x="212.4" y="557.4" type="line"/>
      <point x="226.8" y="807.2"/>
      <point x="370" y="999.2"/>
      <point x="612.4" y="999.2" type="curve" smooth="yes"/>
      <point x="837.4" y="999.2"/>
      <point x="924.4" y="838.2"/>
      <point x="923.6" y="544.6" type="curve"/>
      <point x="976.8" y="587.8" type="line"/>
      <point x="170.6" y="587.8" type="line"/>
    </contour>
  </outline>
</glyph>
<glyph name="f" format="1">
  <advance width="728.400"/>
  <unicode hex="0066"/>
  <outline>
    <contour>
      <point x="297.2" y="0" type="line"/>
      <point x="389.8" y="0" type="line"/>
      <point x="389.8" y="1027" type="line"/>
      <point x="346.6" y="1003.4" type="line"/>
      <point x="642.4" y="1003.4" type="line"/>
      <point x="642.4" y="1052.6" type="line"/>
      <point x="351.2" y="1052.6" type="line"/>
      <point x="389.8" y="1033.4" type="line"/>
      <point x="389.8" y="1144" type="line" smooth="yes"/>
      <point x="389.8" y="1392.2"/>
      <point x="460" y="1419.4"/>
      <point x="571.2" y="1419.4" type="curve" smooth="yes"/>
      <point x="619.2" y="1419.4"/>
      <point x="689.4" y="1408.8"/>
      <point x="683" y="1409.8" type="curve"/>
      <point x="686.6" y="1469.4" type="line"/>
      <point x="700.6" y="1466.6"/>
      <point x="635.6" y="1483.4"/>
      <point x="553.2" y="1483.4" type="curve" smooth="yes"/>
      <point x="381.8" y="1483.4"/>
      <point x="297.2" y="1385.4"/>
      <point x="297.2" y="1142.4" type="curve" smooth="yes"/>
      <point x="297.2" y="1033.8" type="line"/>
      <point x="338.2" y="1055.4" type="line"/>
      <point x="82" y="1036" type="line"/>
      <point x="77" y="1003.4" type="line"/>
      <point x="327.2" y="1003.4" type="line"/>
      <point x="297.2" y="1028.6" type="line"/>
    </contour>
  </outline>
</glyph>
<glyph name="g" format="1">
  <advance width="1266.600"/>
  <unicode hex="0067"/>
  <outline>
    <contour>
      <point x="598.6" y="66.4" type="curve" smooth="yes"/>
      <point x="311.8" y="66.4"/>
      <point x="215.8" y="349"/>
      <point x="215.8" y="518.4" type="curve" smooth="yes"/>
      <point x="215.8" y="718.4"/>
      <point x="307.6" y="1001.4"/>
      <point x="600.4" y="1001.4" type="curve" smooth="yes"/>
      <point x="893.8" y="1001.4"/>
      <point x="995" y="806"/>
      <point x="995" y="590.6" type="curve" smooth="yes"/>
      <point x="995" y="458.6" type="line"/>
      <point x="995.4" y="275.4"/>
      <point x="879.8" y="66.4"/>
    </contour>
    <contour>
      <point x="518.4" y="-435.4" type="curve" smooth="yes"/>
      <point x="962.2" y="-435.4"/>
      <point x="1090" y="-186.4"/>
      <point x="1090" y="86.2" type="curve" smooth="yes"/>
      <point x="1090" y="1052.6" type="line"/>
      <point x="1000.8" y="1052.6" type="line"/>
      <point x="987.8" y="802" type="line"/>
      <point x="1020" y="800" type="line"/>
      <point x="972" y="945.4"/>
      <point x="843" y="1070.2"/>
      <point x="620" y="1070.2" type="curve" smooth="yes"/>
      <point x="223" y="1070.2"/>
      <point x="123.2" y="760.2"/>
      <point x="123.2" y="509" type="curve" smooth="yes"/>
      <point x="123.2" y="305.6"/>
      <point x="243.2" y="-4.2"/>
      <point x="603.8" y="-4.2" type="curve" smooth="yes"/>
      <point x="861.6" y="-4.2"/>
      <point x="996" y="170"/>
      <point x="1028.8" y="291.2" type="curve"/>
      <point x="995.6" y="286.8" type="line"/>
      <point x="995.6" y="107.8" type="line" smooth="yes"/>
      <point x="995.6" y="-213.4"/>
      <point x="874.4" y="-365"/>
      <point x="503.2" y="-365" type="curve" smooth="yes"/>
      <point x="408.2" y="-365"/>
      <point x="275.6" y="-350.6"/>
      <point x="309.2" y="-350.4" type="curve"/>
      <point x="309.2" y="-420.8" type="line"/>
      <point x="262" y="-419.8"/>
      <point x="387.8" y="-435.4"/>
    </contour>
  </outline>
</glyph>
<glyph name="h" format="1">
  <advance width="1181.600"/>
  <unicode hex="0068"/>
  <outline>
    <contour>
      <point x="188.2" y="0" type="line"/>
      <point x="281.4" y="0" type="line"/>
      <point x="281.4" y="625.4" type="line" smooth="yes"/>
      <point x="281.4" y="784.6"/>
      <point x="357" y="1001.4"/>
      <point x="651" y="1001.4" type="curve" smooth="yes"/>
      <point x="842.8" y="1001.4"/>
      <point x="914.2" y="879"/>
      <point x="914.2" y="648" type="curve" smooth="yes"/>
      <point x="914.2" y="0" type="line"/>
      <point x="1005.6" y="0" type="line"/>
      <point x="1005.6" y="642" type="line" smooth="yes"/>
      <point x="1005.6" y="899.4"/>
      <point x="898.8" y="1070.4"/>
      <point x="661.8" y="1070.4" type="curve" smooth="yes"/>
      <point x="456.8" y="1070.4"/>
      <point x="305.2" y="978.2"/>
      <point x="242.8" y="787.2" type="curve"/>
      <point x="274.4" y="778.2" type="line"/>
      <point x="280.8" y="1090" type="line"/>
      <point x="280.8" y="1499.8" type="line"/>
      <point x="188.2" y="1491" type="line"/>
    </contour>
  </outline>
</glyph>
<glyph name="i" format="1">
  <advance width="463.200"/>
  <unicode hex="0069"/>
  <outline>
    <contour>
      <point x="188" y="0" type="line"/>
      <point x="280.6" y="0" type="line"/>
      <point x="280.6" y="1052.6" type="line"/>
      <point x="188" y="1052.6" type="line"/>
    </contour>
    <contour>
      <point x="188" y="1309.8" type="line"/>
      <point x="280.6" y="1309.8" type="line"/>
      <point x="280.6" y="1454.8" type="line"/>
      <point x="188" y="1454.8" type="line"/>
    </contour>
  </outline>
</glyph>
<glyph name="j" format="1">
  <advance width="488.200"/>
  <unicode hex="006A"/>
  <outline>
    <contour>
      <point x="23" y="-308" type="line"/>
      <point x="77.6" y="-308" type="line" smooth="yes"/>
      <point x="217.2" y="-308"/>
      <point x="312.2" y="-243.6"/>
      <point x="312.2" y="-20.4" type="curve" smooth="yes"/>
      <point x="312.2" y="1052.4" type="line"/>
      <point x="216.6" y="1052.4" type="line"/>
      <point x="216.6" y="58" type="line" smooth="yes"/>
      <point x="216.6" y="-150.4"/>
      <point x="218.2" y="-221.2"/>
      <point x="64.2" y="-221.2" type="curve" smooth="yes"/>
      <point x="29.2" y="-221.2" type="line"/>
    </contour>
    <contour>
      <point x="216.6" y="1309.8" type="line"/>
      <point x="312.2" y="1309.8" type="line"/>
      <point x="312.2" y="1454.8" type="line"/>
      <point x="216.6" y="1454.8" type="line"/>
    </contour>
  </outline>
</glyph>
<glyph name="k" format="1">
  <advance width="1054.600"/>
  <unicode hex="006B"/>
  <outline>
    <contour>
      <point x="188.2" y="0" type="line"/>
      <point x="280.8" y="0" type="line"/>
      <point x="280.8" y="416.8" type="line"/>
      <point x="251.4" y="359.4" type="line"/>
      <point x="451.8" y="537.8" type="line"/>
      <point x="394" y="537.8" type="line"/>
      <point x="907.8" y="0" type="line"/>
      <point x="1017.4" y="0" type="line"/>
      <point x="450.8" y="583.6" type="line"/>
      <point x="450.8" y="540.4" type="line"/>
      <point x="1014" y="1052.6" type="line"/>
      <point x="911.4" y="1052.6" type="line"/>
      <point x="243.2" y="447" type="line"/>
      <point x="273.8" y="447" type="line"/>
      <point x="280.8" y="678.8" type="line"/>
      <point x="280.8" y="1499.6" type="line"/>
      <point x="188.2" y="1490.8" type="line"/>
    </contour>
  </outline>
</glyph>
<glyph name="l" format="1">
  <advance width="585.800"/>
  <unicode hex="006C"/>
  <outline>
    <contour>
      <point x="430" y="-10.4" type="curve" smooth="yes"/>
      <point x="492.2" y="-10.4"/>
      <point x="540.6" y="-7.2"/>
      <point x="565.8" y="-3.6" type="curve"/>
      <point x="565.8" y="59.6" type="line"/>
      <point x="553.8" y="58.4"/>
      <point x="501.4" y="53.6"/>
      <point x="447" y="53.6" type="curve" smooth="yes"/>
      <point x="306.6" y="53.6"/>
      <point x="280.6" y="113.4"/>
      <point x="280.6" y="226.6" type="curve" smooth="yes"/>
      <point x="280.6" y="1499.6" type="line"/>
      <point x="188" y="1490.8" type="line"/>
      <point x="188" y="230.4" type="line" smooth="yes"/>
      <point x="188" y="13.8"/>
      <point x="331" y="-10.4"/>
    </contour>
  </outline>
</glyph>
<glyph name="m" format="1">
  <advance width="1754"/>
  <unicode hex="006D"/>
  <outline>
    <contour>
      <point x="188.2" y="0" type="line"/>
      <point x="280.8" y="0" type="line"/>
      <point x="280.8" y="735" type="line" smooth="yes"/>
      <point x="325.2" y="883.8"/>
      <point x="461.8" y="1001.2"/>
      <point x="615.2" y="1001.2" type="curve" smooth="yes"/>
      <point x="788.6" y="1001.2"/>
      <point x="844.6" y="879.6"/>
      <point x="844.6" y="575.6" type="curve" smooth="yes"/>
      <point x="844.6" y="0" type="line"/>
      <point x="937.2" y="0" type="line"/>
      <point x="937.2" y="484.4" type="line"/>
      <point x="936" y="590.8"/>
      <point x="931.8" y="650.2"/>
      <point x="935" y="671.2" type="curve" smooth="yes"/>
      <point x="981" y="898.2"/>
      <point x="1136.4" y="1001.2"/>
      <point x="1275" y="1001.2" type="curve" smooth="yes"/>
      <point x="1514.8" y="1001.2"/>
      <point x="1485.2" y="730.4"/>
      <point x="1485.2" y="598.4" type="curve" smooth="yes"/>
      <point x="1485.2" y="0" type="line"/>
      <point x="1577.8" y="0" type="line"/>
      <point x="1577.8" y="685.2" type="line" smooth="yes"/>
      <point x="1577.8" y="940.8"/>
      <point x="1477.2" y="1070.2"/>
      <point x="1275.6" y="1070.2" type="curve" smooth="yes"/>
      <point x="1059.2" y="1070.2"/>
      <point x="940.4" y="932.8"/>
      <point x="881.8" y="764.2" type="curve"/>
      <point x="909.6" y="764.2" type="line"/>
      <point x="884.2" y="904.2"/>
      <point x="827.4" y="1070.2"/>
      <point x="605.6" y="1070.2" type="curve" smooth="yes"/>
      <point x="442.8" y="1070.2"/>
      <point x="320.4" y="963.2"/>
      <point x="242.6" y="799.2" type="curve"/>
      <point x="281.8" y="787.4" type="line"/>
      <point x="262" y="1052.6" type="line"/>
      <point x="188.2" y="1052.6" type="line"/>
    </contour>
  </outline>
</glyph>
<glyph name="n" format="1">
  <advance width="1167.400"/>
  <unicode hex="006E"/>
  <outline>
    <contour>
      <point x="188.2" y="0" type="line"/>
      <point x="280.8" y="0" type="line"/>
      <point x="280.8" y="639.8" type="line" smooth="yes"/>
      <point x="280.8" y="808.6"/>
      <point x="352.4" y="1001.2"/>
      <point x="645" y="1001.2" type="curve" smooth="yes"/>
      <point x="841.8" y="1001.2"/>
      <point x="900.2" y="874.6"/>
      <point x="898.8" y="680.2" type="curve"/>
      <point x="898.8" y="0" type="line"/>
      <point x="991.4" y="0" type="line"/>
      <point x="991.4" y="628.8" type="line" smooth="yes"/>
      <point x="991.4" y="934.8"/>
      <point x="886.8" y="1070.2"/>
      <point x="645.8" y="1070.2" type="curve" smooth="yes"/>
      <point x="432.2" y="1070.2"/>
      <point x="314.2" y="971.4"/>
      <point x="263" y="832.6" type="curve"/>
      <point x="295.2" y="832.6" type="line"/>
      <point x="278.8" y="1052.6" type="line"/>
      <point x="188.2" y="1052.6" type="line"/>
    </contour>
  </outline>
</glyph>
<glyph name="o" format="1">
  <advance width="1209.200"/>
  <unicode hex="006F"/>
  <outline>
    <contour>
      <point x="605" y="50" type="curve" smooth="yes"/>
      <point x="340" y="50"/>
      <point x="215.4" y="271.2"/>
      <point x="215.4" y="518.8" type="curve" smooth="yes"/>
      <point x="215.4" y="779"/>
      <point x="339" y="1002"/>
      <point x="605" y="1002" type="curve" smooth="yes"/>
      <point x="878" y="1002"/>
      <point x="993.8" y="777.8"/>
      <point x="993.8" y="517.6" type="curve" smooth="yes"/>
      <point x="993.8" y="271.6"/>
      <point x="881" y="50"/>
    </contour>
    <contour>
      <point x="605" y="-18" type="curve" smooth="yes"/>
      <point x="884" y="-18"/>
      <point x="1084" y="221.4"/>
      <point x="1084" y="521.2" type="curve" smooth="yes"/>
      <point x="1084" y="838.6"/>
      <point x="919" y="1070"/>
      <point x="605" y="1070" type="curve" smooth="yes"/>
      <point x="303" y="1070"/>
      <point x="125.2" y="830.8"/>
      <point x="125.2" y="521.2" type="curve" smooth="yes"/>
      <point x="125.2" y="216.8"/>
      <point x="301" y="-18"/>
    </contour>
  </outline>
</glyph>
<glyph name="p" format="1">
  <advance width="1240.800"/>
  <unicode hex="0070"/>
  <outline>
    <contour>
      <point x="187.8" y="-490.4" type="line"/>
      <point x="280.6" y="-483.4" type="line"/>
      <point x="280.6" y="-101.2" type="line"/>
      <point x="266.2" y="378" type="line"/>
      <point x="233.2" y="344.6" type="line"/>
      <point x="290.2" y="158.6"/>
      <point x="424.2" y="-19"/>
      <point x="664.6" y="-19" type="curve" smooth="yes"/>
      <point x="954.4" y="-19"/>
      <point x="1115.6" y="197.6"/>
      <point x="1115.6" y="516.2" type="curve" smooth="yes"/>
      <point x="1115.6" y="857.8"/>
      <point x="965.8" y="1070.2"/>
      <point x="649.4" y="1070.2" type="curve" smooth="yes"/>
      <point x="436.2" y="1070.2"/>
      <point x="306" y="931.2"/>
      <point x="256.6" y="757.8" type="curve"/>
      <point x="271" y="751.8" type="line"/>
      <point x="257.8" y="1052.6" type="line"/>
      <point x="187.8" y="1052.6" type="line"/>
    </contour>
    <contour>
      <point x="656.8" y="50" type="curve" smooth="yes"/>
      <point x="419.4" y="50"/>
      <point x="276.2" y="252.8"/>
      <point x="276.2" y="536.8" type="curve"/>
      <point x="275.8" y="786"/>
      <point x="385" y="1001.2"/>
      <point x="672" y="1001.2" type="curve" smooth="yes"/>
      <point x="943" y="1001.2"/>
      <point x="1023" y="773.2"/>
      <point x="1023" y="518.2" type="curve" smooth="yes"/>
      <point x="1023" y="247.2"/>
      <point x="923.2" y="50"/>
    </contour>
  </outline>
</glyph>
<glyph name="q" format="1">
  <advance width="1295.600"/>
  <unicode hex="0071"/>
  <outline>
    <contour>
      <point x="1018" y="-490.4" type="line"/>
      <point x="1108.2" y="-486.2" type="line"/>
      <point x="1108.2" y="1052.6" type="line"/>
      <point x="1018.6" y="1052.6" type="line"/>
      <point x="997.4" y="779.8" type="line"/>
      <point x="1018.2" y="779.8" type="line"/>
      <point x="953.4" y="958"/>
      <point x="820.2" y="1070.2"/>
      <point x="610" y="1070.2" type="curve" smooth="yes"/>
      <point x="302.4" y="1070.2"/>
      <point x="125.2" y="842.4"/>
      <point x="125.2" y="510.2" type="curve" smooth="yes"/>
      <point x="125.2" y="204.8"/>
      <point x="321.4" y="-19"/>
      <point x="601.8" y="-19" type="curve" smooth="yes"/>
      <point x="896.4" y="-19"/>
      <point x="1013" y="167.8"/>
      <point x="1050.2" y="332.4" type="curve"/>
      <point x="1025" y="349.8" type="line"/>
      <point x="1018" y="-134.2" type="line"/>
    </contour>
    <contour>
      <point x="611.4" y="50.4" type="curve" smooth="yes"/>
      <point x="338.2" y="50.4"/>
      <point x="215.4" y="258.4"/>
      <point x="215.4" y="526.2" type="curve" smooth="yes"/>
      <point x="215.4" y="777.2"/>
      <point x="326.6" y="1001.4"/>
      <point x="614.4" y="1001.4" type="curve" smooth="yes"/>
      <point x="908" y="1001.4"/>
      <point x="1005" y="800.8"/>
      <point x="1005" y="576.4" type="curve"/>
      <point x="1009.2" y="270"/>
      <point x="931.4" y="50.4"/>
    </contour>
  </outline>
</glyph>
<glyph name="r" format="1">
  <advance width="773.800"/>
  <unicode hex="0072"/>
  <outline>
    <contour>
      <point x="188" y="0" type="line"/>
      <point x="280.6" y="0" type="line"/>
      <point x="280.6" y="613.8" type="line" smooth="yes"/>
      <point x="280.6" y="812.6"/>
      <point x="433" y="999.4"/>
      <point x="621.2" y="999.4" type="curve" smooth="yes"/>
      <point x="639.8" y="999.4"/>
      <point x="667" y="996.2"/>
      <point x="685.2" y="991.4" type="curve"/>
      <point x="694" y="1062.4" type="line"/>
      <point x="674.4" y="1064.8"/>
      <point x="642.8" y="1067.2"/>
      <point x="609.2" y="1067.2" type="curve" smooth="yes"/>
      <point x="468.4" y="1067.2"/>
      <point x="312.4" y="987.8"/>
      <point x="243.6" y="731" type="curve"/>
      <point x="265" y="728.4" type="line"/>
      <point x="253" y="1052.6" type="line"/>
      <point x="188" y="1052.6" type="line"/>
    </contour>
  </outline>
</glyph>
<glyph name="s" format="1">
  <advance width="929"/>
  <unicode hex="0073"/>
  <outline>
    <contour>
      <point x="463.2" y="-19.2" type="curve" smooth="yes"/>
      <point x="682" y="-19.2"/>
      <point x="816.4" y="70.4"/>
      <point x="816.4" y="249" type="curve" smooth="yes"/>
      <point x="816.4" y="401.4"/>
      <point x="769" y="486.2"/>
      <point x="506.4" y="568.8" type="curve" smooth="yes"/>
      <point x="388.4" y="605.6" type="line" smooth="yes"/>
      <point x="246" y="652.2"/>
      <point x="209.4" y="697.8"/>
      <point x="209.4" y="813.8" type="curve" smooth="yes"/>
      <point x="209.4" y="917.8"/>
      <point x="309.8" y="999"/>
      <point x="494.4" y="999" type="curve" smooth="yes"/>
      <point x="606.2" y="999"/>
      <point x="665.6" y="979.6"/>
      <point x="729.8" y="951.2" type="curve"/>
      <point x="756" y="1024.6" type="line"/>
      <point x="673.2" y="1058"/>
      <point x="610" y="1070.2"/>
      <point x="484.4" y="1070.2" type="curve" smooth="yes"/>
      <point x="247.8" y="1070.2"/>
      <point x="128.6" y="943.4"/>
      <point x="128.6" y="799" type="curve"/>
      <point x="128.4" y="698.6"/>
      <point x="169.2" y="602.2"/>
      <point x="373.8" y="538.6" type="curve" smooth="yes"/>
      <point x="484" y="504.4" type="line" smooth="yes"/>
      <point x="704.4" y="436"/>
      <point x="738.2" y="372.2"/>
      <point x="739.4" y="256.6" type="curve" smooth="yes"/>
      <point x="740.4" y="124"/>
      <point x="661.4" y="52.6"/>
      <point x="472.8" y="52.6" type="curve" smooth="yes"/>
      <point x="313.8" y="52.6"/>
      <point x="241.6" y="77.6"/>
      <point x="184" y="95" type="curve"/>
      <point x="158.4" y="29.8" type="line"/>
      <point x="204.6" y="9.2"/>
      <point x="332.6" y="-19.2"/>
    </contour>
  </outline>
</glyph>
<glyph name="t" format="1">
  <advance width="754"/>
  <unicode hex="0074"/>
  <outline>
    <contour>
      <point x="490.4" y="-10.4" type="curve" smooth="yes"/>
      <point x="588.6" y="-10.4"/>
      <point x="647" y="2.2"/>
      <point x="647" y="2.2" type="curve"/>
      <point x="647" y="59.4" type="line"/>
      <point x="647" y="59.4"/>
      <point x="578" y="50.2"/>
      <point x="503.2" y="50.2" type="curve" smooth="yes"/>
      <point x="398" y="50.2"/>
      <point x="328.4" y="92.4"/>
      <point x="328.4" y="262" type="curve" smooth="yes"/>
      <point x="328.4" y="1025.2" type="line"/>
      <point x="298.4" y="1000.6" type="line"/>
      <point x="659.4" y="1000.6" type="line"/>
      <point x="659.4" y="1052.6" type="line"/>
      <point x="298.6" y="1052.6" type="line"/>
      <point x="328.4" y="1026.8" type="line"/>
      <point x="328.4" y="1326.2" type="line"/>
      <point x="270.6" y="1319" type="line"/>
      <point x="236.4" y="1040" type="line"/>
      <point x="255.6" y="1055.6" type="line"/>
      <point x="89" y="1043.2" type="line"/>
      <point x="92" y="1000.4" type="line"/>
      <point x="265.8" y="1000.4" type="line"/>
      <point x="235.8" y="1026.2" type="line"/>
      <point x="235.8" y="253.4" type="line" smooth="yes"/>
      <point x="235.8" y="60.8"/>
      <point x="354.4" y="-10.4"/>
    </contour>
  </outline>
</glyph>
<glyph name="u" format="1">
  <advance width="1166.400"/>
  <unicode hex="0075"/>
  <outline>
    <contour>
      <point x="980.4" y="1052.6" type="line"/>
      <point x="887.6" y="1052.6" type="line"/>
      <point x="887.6" y="418.2" type="line" smooth="yes"/>
      <point x="887.6" y="249.4"/>
      <point x="814.4" y="51.4"/>
      <point x="515.4" y="51.4" type="curve" smooth="yes"/>
      <point x="321.2" y="51.4"/>
      <point x="268.4" y="178"/>
      <point x="269.6" y="372.4" type="curve" smooth="yes"/>
      <point x="269.6" y="1052.6" type="line"/>
      <point x="177" y="1052.6" type="line"/>
      <point x="177" y="423.8" type="line" smooth="yes"/>
      <point x="177" y="120"/>
      <point x="279.4" y="-17.6"/>
      <point x="520.4" y="-17.6" type="curve" smooth="yes"/>
      <point x="734" y="-17.6"/>
      <point x="853" y="70.8"/>
      <point x="918.2" y="258.4" type="curve"/>
      <point x="884.8" y="258.4" type="line"/>
      <point x="902.4" y="0" type="line"/>
      <point x="980.4" y="0" type="line"/>
    </contour>
  </outline>
</glyph>
<glyph name="v" format="1">
  <advance width="1034.600"/>
  <unicode hex="0076"/>
  <outline>
    <contour>
      <point x="464.6" y="0" type="line"/>
      <point x="567.8" y="0" type="line"/>
      <point x="972.6" y="1052.6" type="line"/>
      <point x="883.6" y="1052.6" type="line"/>
      <point x="649.4" y="426.6" type="line"/>
      <point x="495.2" y="21.4" type="line"/>
      <point x="534" y="21.4" type="line"/>
      <point x="384" y="421.6" type="line"/>
      <point x="150.2" y="1052.6" type="line"/>
      <point x="62" y="1052.6" type="line"/>
    </contour>
  </outline>
</glyph>
<glyph name="w" format="1">
  <advance width="1508.400"/>
  <unicode hex="0077"/>
  <outline>
    <contour>
      <point x="355.6" y="0" type="line"/>
      <point x="444.8" y="0" type="line"/>
      <point x="769.2" y="1044.4" type="line"/>
      <point x="746.2" y="1044.4" type="line"/>
      <point x="1112" y="0" type="line"/>
      <point x="1179.2" y="0" type="line"/>
      <point x="1442" y="1052.6" type="line"/>
      <point x="1365.2" y="1052.6" type="line"/>
      <point x="1129.6" y="28.6" type="line"/>
      <point x="1163.6" y="28.6" type="line"/>
      <point x="811.4" y="1052.6" type="line"/>
      <point x="697.8" y="1052.6" type="line"/>
      <point x="378.8" y="28.6" type="line"/>
      <point x="412.6" y="28.6" type="line"/>
      <point x="147.2" y="1052.6" type="line"/>
      <point x="66.4" y="1052.6" type="line"/>
    </contour>
  </outline>
</glyph>
<glyph name="x" format="1">
  <advance width="1010"/>
  <unicode hex="0078"/>
  <outline>
    <contour>
      <point x="45" y="0" type="line"/>
      <point x="147" y="0" type="line"/>
      <point x="527.8" y="487" type="line"/>
      <point x="557.8" y="501.8" type="line"/>
      <point x="968.8" y="1052.6" type="line"/>
      <point x="866.8" y="1052.6" type="line"/>
      <point x="504.2" y="552.6" type="line"/>
      <point x="481.2" y="552.4" type="line"/>
    </contour>
    <contour>
      <point x="866.2" y="0" type="line"/>
      <point x="964.6" y="0" type="line"/>
      <point x="180.6" y="1052.6" type="line"/>
      <point x="79.2" y="1052.6" type="line"/>
    </contour>
  </outline>
</glyph>
<glyph name="y" format="1">
  <advance width="1064.600"/>
  <unicode hex="0079"/>
  <outline>
    <contour>
      <point x="434.4" y="-401" type="line"/>
      <point x="1007.8" y="1052.6" type="line"/>
      <point x="919.8" y="1052.6" type="line"/>
      <point x="544.2" y="90.4" type="line"/>
      <point x="575.6" y="90.4" type="line"/>
      <point x="177.8" y="1052.6" type="line"/>
      <point x="85.8" y="1052.6" type="line"/>
      <point x="541" y="-28.8" type="line"/>
      <point x="541" y="74.8" type="line"/>
      <point x="365" y="-369.2" type="line"/>
    </contour>
  </outline>
</glyph>
<glyph name="z" format="1">
  <advance width="886.600"/>
  <unicode hex="007A"/>
  <outline>
    <contour>
      <point x="121.6" y="0" type="line"/>
      <point x="779.4" y="0" type="line"/>
      <point x="779.4" y="59.2" type="line"/>
      <point x="137.6" y="59.2" type="line"/>
      <point x="162.6" y="9.4" type="line"/>
      <point x="775.6" y="990" type="line"/>
      <point x="775.6" y="1052.6" type="line"/>
      <point x="142.2" y="1052.6" type="line"/>
      <point x="142.2" y="991.6" type="line"/>
      <point x="749.2" y="991.6" type="line"/>
      <point x="728.2" y="1038.4" type="line"/>
      <point x="121.6" y="65.2" type="line"/>
    </contour>
  </outline>
</glyph>
<glyph name="braceleft" format="1">
  <advance width="826.600000337"/>
  <unicode hex="007B"/>
  <outline>
    <contour>
      <point x="617.59999989" y="-285.800000072" type="line"/>
      <point x="408.800000042" y="-285.800000072"/>
      <point x="355.200000256" y="-127.799999833"/>
      <point x="355.200000256" y="86.0000001341" type="curve" smooth="yes"/>
      <point x="355.200000256" y="220.199999824" type="line" smooth="yes"/>
      <point x="355.200000256" y="411.199999943"/>
      <point x="347.200000331" y="583.000000253"/>
      <point x="139.800000221" y="586.600000262" type="curve"/>
      <point x="139.800000221" y="642.599999845" type="line"/>
      <point x="338.600000292" y="642.399999842"/>
      <point x="355.200000256" y="822.800000191"/>
      <point x="355.200000256" y="1008.60000029" type="curve" smooth="yes"/>
      <point x="355.200000256" y="1205.20000009" type="line" smooth="yes"/>
      <point x="355.200000256" y="1379.99999997"/>
      <point x="442.800000116" y="1520.40000017"/>
      <point x="617.59999989" y="1521.60000017" type="curve"/>
      <point x="617.59999989" y="1462.80000055" type="line"/>
      <point x="468.799999848" y="1460.80000055"/>
      <point x="405.799999744" y="1384.40000044"/>
      <point x="405.799999744" y="1176.60000022" type="curve" smooth="yes"/>
      <point x="405.799999744" y="916.4000002" type="line"/>
      <point x="406.19999975" y="749.600000098"/>
      <point x="365.199999779" y="659.800000042"/>
      <point x="224.799999729" y="608.800000042" type="curve"/>
      <point x="369.399999812" y="568.600000024"/>
      <point x="405.799999744" y="491.200000018"/>
      <point x="405.799999744" y="316.199999899" type="curve" smooth="yes"/>
      <point x="405.799999744" y="57.5999998897" type="line" smooth="yes"/>
      <point x="405.799999744" y="-140.600000307"/>
      <point x="465.399999842" y="-229.400000453"/>
      <point x="617.59999989" y="-231.400000453" type="curve"/>
    </contour>
  </outline>
</glyph>
<glyph name="bar" format="1">
  <advance width="146.599998862"/>
  <unicode hex="007C"/>
  <outline>
    <contour>
      <point x="30.7999995202" y="-435.800000414" type="line"/>
      <point x="30.7999995202" y="1565.00000009" type="line"/>
      <point x="91.7999991477" y="1565.00000009" type="line"/>
      <point x="91.7999991477" y="-435.800000414" type="line"/>
    </contour>
  </outline>
</glyph>
<glyph name="braceright" format="1">
  <advance width="826.600"/>
  <unicode hex="007D"/>
  <outline>
    <contour>
      <point x="133.2" y="-285.8" type="curve"/>
      <point x="133.2" y="-227.8" type="line"/>
      <point x="282" y="-225.8"/>
      <point x="345.4" y="-148.8"/>
      <point x="345.4" y="58.8" type="curve" smooth="yes"/>
      <point x="345.4" y="318.6" type="line" smooth="yes"/>
      <point x="345.4" y="437"/>
      <point x="371.6" y="553.4"/>
      <point x="526" y="629.2" type="curve"/>
      <point x="382.6" y="667.4"/>
      <point x="345" y="815.8"/>
      <point x="345.4" y="918.8" type="curve"/>
      <point x="345.4" y="1177.8" type="line" smooth="yes"/>
      <point x="345.4" y="1375.8"/>
      <point x="285.4" y="1465.6"/>
      <point x="133.2" y="1467.6" type="curve"/>
      <point x="133.2" y="1521.6" type="line"/>
      <point x="342.2" y="1521.6"/>
      <point x="396" y="1362"/>
      <point x="396" y="1149.4" type="curve" smooth="yes"/>
      <point x="396" y="1017.2" type="line" smooth="yes"/>
      <point x="396" y="826.2"/>
      <point x="405" y="653.2"/>
      <point x="611.2" y="649.8" type="curve"/>
      <point x="611.2" y="595" type="line"/>
      <point x="411" y="595"/>
      <point x="396" y="415.4"/>
      <point x="396" y="229.8" type="curve" smooth="yes"/>
      <point x="396" y="30.2" type="line" smooth="yes"/>
      <point x="396" y="-145"/>
      <point x="306.8" y="-284.6"/>
    </contour>
  </outline>
</glyph>
<glyph name="asciitilde" format="1">
  <advance width="1218.200"/>
  <unicode hex="007E"/>
  <outline>
    <contour>
      <point x="100.4" y="517.4" type="curve"/>
      <point x="92.8" y="574.8" type="line"/>
      <point x="134.6" y="687.8"/>
      <point x="225" y="770"/>
      <point x="340" y="770" type="curve" smooth="yes"/>
      <point x="417.2" y="770"/>
      <point x="454.4" y="751.4"/>
      <point x="568" y="700.8" type="curve" smooth="yes"/>
      <point x="671.4" y="657.8"/>
      <point x="763.4" y="607"/>
      <point x="828.6" y="607" type="curve" smooth="yes"/>
      <point x="919" y="607"/>
      <point x="1009.4" y="704"/>
      <point x="1019" y="785" type="curve"/>
      <point x="1042.2" y="737.4" type="line"/>
      <point x="994.6" y="596.6"/>
      <point x="947.8" y="533.4"/>
      <point x="836.4" y="533.4" type="curve" smooth="yes"/>
      <point x="783.8" y="533.4"/>
      <point x="708.6" y="560.2"/>
      <point x="632.8" y="594.2" type="curve"/>
      <point x="502.4" y="650"/>
      <point x="412.4" y="692.2"/>
      <point x="340.6" y="692.2" type="curve" smooth="yes"/>
      <point x="247.8" y="692.2"/>
      <point x="152.8" y="615"/>
    </contour>
  </outline>
</glyph>
<glyph name="cent" format="1">
  <advance width="1015"/>
  <unicode hex="00A2"/>
  <outline>
    <contour>
      <point x="546.4" y="-156.6" type="line"/>
      <point x="623.6" y="-156.6" type="line"/>
      <point x="623.6" y="1241.6" type="line"/>
      <point x="546.4" y="1241.6" type="line"/>
    </contour>
    <component base="c"/>
  </outline>
</glyph>
<glyph name="sterling" format="1">
  <advance width="1238.800"/>
  <unicode hex="00A3"/>
  <outline>
    <contour>
      <point x="160.2" y="-20.8" type="line"/>
      <point x="147.8" y="48.8" type="line"/>
      <point x="341.8" y="61.2" type="line"/>
      <point x="341.8" y="681.8" type="line"/>
      <point x="153.2" y="681.8" type="line"/>
      <point x="153.2" y="752" type="line"/>
      <point x="341.8" y="752" type="line"/>
      <point x="341.8" y="863.2" type="line" smooth="yes"/>
      <point x="341.8" y="1156.4"/>
      <point x="353.4" y="1475.2"/>
      <point x="738" y="1475.2" type="curve" smooth="yes"/>
      <point x="879" y="1475.2"/>
      <point x="984" y="1420.8"/>
      <point x="1060.8" y="1355.4" type="curve"/>
      <point x="1024" y="1297.6" type="line"/>
      <point x="934.6" y="1371.6"/>
      <point x="838.8" y="1409.2"/>
      <point x="729.8" y="1409.2" type="curve" smooth="yes"/>
      <point x="479" y="1409.2"/>
      <point x="412.8" y="1214.8"/>
      <point x="412.8" y="937.2" type="curve" smooth="yes"/>
      <point x="412.8" y="752" type="line"/>
      <point x="847.2" y="752" type="line"/>
      <point x="847.2" y="680.4" type="line"/>
      <point x="412.8" y="680.4" type="line"/>
      <point x="412.8" y="63.2" type="line"/>
      <point x="1071.6" y="63.2" type="line"/>
      <point x="1053.6" y="-20.8" type="line"/>
    </contour>
  </outline>
</glyph>
<glyph name="currency" format="1">
  <advance width="1469.40000112"/>
  <unicode hex="00A4"/>
  <outline>
    <contour>
      <point x="1182.60000058" y="228.400000021" type="line"/>
      <point x="1214.60000041" y="266.59999986" type="line"/>
      <point x="1032.80000038" y="446.199999899" type="line"/>
      <point x="1092.60000043" y="516.799999908"/>
      <point x="1121.60000044" y="605.399999946"/>
      <point x="1121.60000044" y="705.399999991" type="curve" smooth="yes"/>
      <point x="1121.60000044" y="795.800000012"/>
      <point x="1094.40000044" y="885.000000045"/>
      <point x="1031.80000038" y="965.800000086" type="curve"/>
      <point x="1215.60000041" y="1141.40000011" type="line"/>
      <point x="1182.60000058" y="1180.99999996" type="line"/>
      <point x="996.800000548" y="1006.39999993" type="line"/>
      <point x="922.60000053" y="1071.79999997"/>
      <point x="825.000000477" y="1109.39999999"/>
      <point x="719.000000432" y="1109.39999999" type="curve" smooth="yes"/>
      <point x="612.600000381" y="1109.39999999"/>
      <point x="516.200000346" y="1075.79999998"/>
      <point x="439.000000313" y="1007.19999993" type="curve"/>
      <point x="253.400000274" y="1180.99999996" type="line"/>
      <point x="216.600000441" y="1144.80000012" type="line"/>
      <point x="405.000000477" y="965.800000086" type="line"/>
      <point x="344.000000432" y="893.000000075"/>
      <point x="314.000000417" y="800.800000027"/>
      <point x="314.000000417" y="705.399999991" type="curve" smooth="yes"/>
      <point x="314.000000417" y="608.999999955"/>
      <point x="342.400000423" y="522.199999928"/>
      <point x="405.000000477" y="446.199999899" type="curve"/>
      <point x="217.600000441" y="269.399999872" type="line"/>
      <point x="253.400000274" y="229.200000018" type="line"/>
      <point x="440.600000322" y="404.600000054" type="line"/>
      <point x="516.200000346" y="337.800000012"/>
      <point x="612.000000387" y="303.599999994"/>
      <point x="719.000000432" y="303.599999994" type="curve" smooth="yes"/>
      <point x="826.400000483" y="303.599999994"/>
      <point x="921.000000522" y="337.200000003"/>
      <point x="996.800000548" y="403.200000048" type="curve"/>
    </contour>
    <contour>
      <point x="719.000000432" y="349.199999735" type="curve" smooth="yes"/>
      <point x="495.400000215" y="349.199999735"/>
      <point x="372.600000188" y="515.199999869"/>
      <point x="372.600000188" y="705.399999991" type="curve" smooth="yes"/>
      <point x="372.600000188" y="895.800000116"/>
      <point x="495.400000215" y="1062.60000025"/>
      <point x="719.000000432" y="1062.60000025" type="curve" smooth="yes"/>
      <point x="942.200000644" y="1062.60000025"/>
      <point x="1065.00000067" y="894.40000011"/>
      <point x="1065.00000067" y="705.399999991" type="curve" smooth="yes"/>
      <point x="1065.00000067" y="516.399999872"/>
      <point x="943.200000644" y="349.199999735"/>
    </contour>
  </outline>
</glyph>
<glyph name="yen" format="1">
  <advance width="1219.800"/>
  <unicode hex="00A5"/>
  <outline>
    <contour>
      <point x="583" y="0" type="line"/>
      <point x="670.2" y="0" type="line"/>
      <point x="670.2" y="331" type="line"/>
      <point x="986.4" y="331" type="line"/>
      <point x="986.4" y="385" type="line"/>
      <point x="670.2" y="385" type="line"/>
      <point x="670.2" y="628.2" type="line"/>
      <point x="984" y="628.2" type="line"/>
      <point x="984" y="689" type="line"/>
      <point x="706" y="689" type="line"/>
      <point x="1137.2" y="1454.8" type="line"/>
      <point x="1063" y="1454.8" type="line"/>
      <point x="627" y="665.6" type="line"/>
      <point x="142" y="1454.8" type="line"/>
      <point x="70" y="1454.8" type="line"/>
      <point x="541.2" y="689" type="line"/>
      <point x="251.6" y="689" type="line"/>
      <point x="251.6" y="628.2" type="line"/>
      <point x="583" y="628.2" type="line"/>
      <point x="583" y="385" type="line"/>
      <point x="249.2" y="385" type="line"/>
      <point x="249.2" y="331" type="line"/>
      <point x="583" y="331" type="line"/>
    </contour>
  </outline>
</glyph>
<glyph name="brokenbar" format="1">
  <advance width="60.400"/>
  <unicode hex="00A6"/>
  <outline>
    <contour>
      <point x="-11.4" y="-127.2" type="line"/>
      <point x="-11.4" y="541.2" type="line"/>
      <point x="50.8" y="541.2" type="line"/>
      <point x="50.8" y="-127.2" type="line"/>
    </contour>
    <contour>
      <point x="-11.4" y="786" type="line"/>
      <point x="-11.4" y="1451.2" type="line"/>
      <point x="50.8" y="1451.2" type="line"/>
      <point x="50.8" y="786" type="line"/>
    </contour>
  </outline>
</glyph>
<glyph name="dieresis" format="1">
  <advance width="783.400"/>
  <unicode hex="00A8"/>
  <outline>
    <contour>
      <point x="166.8" y="1288" type="line"/>
      <point x="255.6" y="1288" type="line"/>
      <point x="255.6" y="1403.2" type="line"/>
      <point x="166.8" y="1403.2" type="line"/>
    </contour>
    <contour>
      <point x="523.4" y="1288" type="line"/>
      <point x="613.6" y="1288" type="line"/>
      <point x="613.6" y="1403.2" type="line"/>
      <point x="523.4" y="1403.2" type="line"/>
    </contour>
  </outline>
</glyph>
<glyph name="copyright" format="1">
  <advance width="1973.200"/>
  <unicode hex="00A9"/>
  <outline>
    <contour>
      <point x="1027.8" y="225.2" type="curve" smooth="yes"/>
      <point x="1120.2" y="225.2"/>
      <point x="1219" y="253"/>
      <point x="1316.6" y="315.2" type="curve"/>
      <point x="1293.4" y="382.4" type="line"/>
      <point x="1191.4" y="319.6"/>
      <point x="1113.2" y="302.2"/>
      <point x="1023.8" y="302.2" type="curve" smooth="yes"/>
      <point x="799.6" y="302.2"/>
      <point x="604" y="476.2"/>
      <point x="604" y="773" type="curve" smooth="yes"/>
      <point x="604" y="1030.8"/>
      <point x="799.8" y="1218.6"/>
      <point x="1013.8" y="1218.6" type="curve" smooth="yes"/>
      <point x="1091.2" y="1218.6"/>
      <point x="1196.2" y="1190.2"/>
      <point x="1276.4" y="1121.4" type="curve"/>
      <point x="1312" y="1194.6" type="line"/>
      <point x="1212.4" y="1264.6"/>
      <point x="1108.4" y="1296.6"/>
      <point x="1013.6" y="1296.6" type="curve" smooth="yes"/>
      <point x="747.4" y="1296.6"/>
      <point x="502.2" y="1073.4"/>
      <point x="502.2" y="763.4" type="curve" smooth="yes"/>
      <point x="502.2" y="447.8"/>
      <point x="753" y="225.2"/>
    </contour>
    <contour>
      <point x="984.4" y="20.6" type="curve" smooth="yes"/>
      <point x="647.4" y="20.6"/>
      <point x="267.8" y="236.2"/>
      <point x="267.8" y="762.8" type="curve" smooth="yes"/>
      <point x="267.8" y="1289.8"/>
      <point x="647.6" y="1507.6"/>
      <point x="984.8" y="1507.6" type="curve" smooth="yes"/>
      <point x="1321" y="1507.6"/>
      <point x="1705.2" y="1288.6"/>
      <point x="1705.2" y="763" type="curve" smooth="yes"/>
      <point x="1705.2" y="237.4"/>
      <point x="1320.6" y="20.6"/>
    </contour>
    <contour>
      <point x="984.4" y="-48" type="curve" smooth="yes"/>
      <point x="1368" y="-48"/>
      <point x="1797.2" y="192.2"/>
      <point x="1797.2" y="762.8" type="curve" smooth="yes"/>
      <point x="1797.2" y="1333.6"/>
      <point x="1368.6" y="1577.2"/>
      <point x="984.8" y="1577.2" type="curve" smooth="yes"/>
      <point x="600.4" y="1577.2"/>
      <point x="176" y="1333.4"/>
      <point x="176" y="762.8" type="curve" smooth="yes"/>
      <point x="176" y="192.2"/>
      <point x="600" y="-48"/>
    </contour>
  </outline>
</glyph>
<glyph name="guillemotleft" format="1">
  <advance width="1011.60000016"/>
  <unicode hex="00AB"/>
  <outline>
    <contour>
      <point x="724.59999992" y="163.200000092" type="line"/>
      <point x="776.399999529" y="175.999999985" type="line"/>
      <point x="519.399999529" y="540.199999988" type="line"/>
      <point x="783.999999538" y="898.199999973" type="line"/>
      <point x="727.799999923" y="911.199999869" type="line"/>
      <point x="455.600000009" y="537.199999988" type="line"/>
    </contour>
    <contour>
      <point x="413.200000167" y="163.200000092" type="line"/>
      <point x="464.999999776" y="175.999999985" type="line"/>
      <point x="209.199999779" y="540.199999988" type="line"/>
      <point x="473.599999785" y="898.199999973" type="line"/>
      <point x="417.40000017" y="911.199999869" type="line"/>
      <point x="144.200000256" y="537.199999988" type="line"/>
    </contour>
  </outline>
</glyph>
<glyph name="logicalnot" format="1">
  <advance width="1220.20000023"/>
  <unicode hex="00AC"/>
  <outline>
    <contour>
      <point x="996.200000361" y="262.800000057" type="line"/>
      <point x="1061.80000003" y="262.800000057" type="line"/>
      <point x="1061.80000003" y="777.59999992" type="line"/>
      <point x="112.400000066" y="777.59999992" type="line"/>
      <point x="112.400000066" y="707.400000244" type="line"/>
      <point x="996.200000361" y="707.400000244" type="line"/>
    </contour>
  </outline>
</glyph>
<glyph name="uni00AD" format="1">
  <advance width="1175.2000013"/>
  <unicode hex="00AD"/>
  <outline>
    <contour>
      <point x="149.200000212" y="89.9999993145" type="line"/>
      <point x="1011.20000093" y="89.9999993145" type="line"/>
      <point x="1011.20000093" y="164.999998972" type="line"/>
      <point x="149.200000212" y="164.999998972" type="line"/>
    </contour>
  </outline>
</glyph>
<glyph name="registered" format="1">
  <advance width="1974.800"/>
  <unicode hex="00AE"/>
  <outline>
    <contour>
      <point x="677.4" y="319.6" type="line"/>
      <point x="762.2" y="319.6" type="line"/>
      <point x="762.2" y="802.4" type="line"/>
      <point x="1053.6" y="802.4" type="line"/>
      <point x="1047.2" y="808.8"/>
      <point x="1279" y="319.6"/>
      <point x="1279" y="319.6" type="curve"/>
      <point x="1370.8" y="319.6" type="line"/>
      <point x="1370.8" y="319.6"/>
      <point x="1129.2" y="828.8"/>
      <point x="1140.6" y="813.6" type="curve"/>
      <point x="1270.8" y="812.4"/>
      <point x="1343.6" y="911.8"/>
      <point x="1343.6" y="1054.4" type="curve" smooth="yes"/>
      <point x="1343.6" y="1212"/>
      <point x="1296" y="1294"/>
      <point x="1022.6" y="1294" type="curve" smooth="yes"/>
      <point x="677.4" y="1294" type="line"/>
    </contour>
    <contour>
      <point x="763.6" y="875.6" type="line"/>
      <point x="763.6" y="1220.8" type="line"/>
      <point x="1022.2" y="1220.8" type="line" smooth="yes"/>
      <point x="1205.8" y="1220.8"/>
      <point x="1266" y="1190.6"/>
      <point x="1266" y="1049" type="curve" smooth="yes"/>
      <point x="1266" y="940.6"/>
      <point x="1239.4" y="875.6"/>
      <point x="1081.8" y="875.6" type="curve" smooth="yes"/>
    </contour>
    <contour>
      <point x="985.2" y="22" type="curve" smooth="yes"/>
      <point x="648" y="22"/>
      <point x="268.2" y="237.6"/>
      <point x="268.2" y="764.2" type="curve" smooth="yes"/>
      <point x="268.2" y="1291.2"/>
      <point x="648.2" y="1507.6"/>
      <point x="985.4" y="1507.6" type="curve" smooth="yes"/>
      <point x="1321.8" y="1507.6"/>
      <point x="1706.6" y="1290"/>
      <point x="1706.6" y="764.4" type="curve" smooth="yes"/>
      <point x="1706.6" y="238.8"/>
      <point x="1321.8" y="22"/>
    </contour>
    <contour>
      <point x="985.2" y="-46.6" type="curve" smooth="yes"/>
      <point x="1369.2" y="-46.6"/>
      <point x="1798.4" y="193.6"/>
      <point x="1798.4" y="764.2" type="curve" smooth="yes"/>
      <point x="1798.4" y="1335"/>
      <point x="1369.4" y="1577.2"/>
      <point x="985.4" y="1577.2" type="curve" smooth="yes"/>
      <point x="601" y="1577.2"/>
      <point x="176.4" y="1334.8"/>
      <point x="176.4" y="764.2" type="curve" smooth="yes"/>
      <point x="176.4" y="193.6"/>
      <point x="600.8" y="-46.6"/>
    </contour>
  </outline>
</glyph>
<glyph name="macron" format="1">
  <advance width="1238.800"/>
  <unicode hex="00AF"/>
  <outline>
    <contour>
      <point x="340.8" y="1285.4" type="line"/>
      <point x="857.2" y="1285.4" type="line"/>
      <point x="857.2" y="1370.8" type="line"/>
      <point x="340.8" y="1370.8" type="line"/>
    </contour>
  </outline>
</glyph>
<glyph name="degree" format="1">
  <advance width="852.200000256"/>
  <unicode hex="00B0"/>
  <outline>
    <contour>
      <point x="425.400000125" y="988.799999967" type="curve" smooth="yes"/>
      <point x="296.199999988" y="988.799999967"/>
      <point x="199.799999923" y="1083.40000007"/>
      <point x="199.799999923" y="1211.80000015" type="curve" smooth="yes"/>
      <point x="199.799999923" y="1340.80000024"/>
      <point x="298.599999994" y="1435.80000034"/>
      <point x="425.200000122" y="1435.80000034" type="curve" smooth="yes"/>
      <point x="556.000000268" y="1435.80000034"/>
      <point x="653.80000034" y="1340.80000024"/>
      <point x="653.80000034" y="1211.80000015" type="curve" smooth="yes"/>
      <point x="653.80000034" y="1085.80000007"/>
      <point x="555.800000265" y="988.799999967"/>
    </contour>
    <contour>
      <point x="424.200000122" y="927.000000164" type="curve" smooth="yes"/>
      <point x="565.199999988" y="927.000000164"/>
      <point x="723.40000011" y="1037.60000008"/>
      <point x="723.40000011" y="1211.60000014" type="curve" smooth="yes"/>
      <point x="723.40000011" y="1390.80000021"/>
      <point x="562.599999994" y="1498.00000015"/>
      <point x="424.200000122" y="1498.00000015" type="curve" smooth="yes"/>
      <point x="292.400000274" y="1498.00000015"/>
      <point x="130.000000149" y="1390.80000021"/>
      <point x="130.000000149" y="1211.60000014" type="curve" smooth="yes"/>
      <point x="130.000000149" y="1027.00000006"/>
      <point x="295.400000289" y="927.000000164"/>
    </contour>
  </outline>
</glyph>
<glyph name="plusminus" format="1">
  <advance width="1171.8000001"/>
  <unicode hex="00B1"/>
  <outline>
    <contour>
      <point x="113.200000003" y="0.0" type="line"/>
      <point x="113.200000003" y="64.799999699" type="line"/>
      <point x="1058.6000001" y="64.799999699" type="line"/>
      <point x="1058.6000001" y="0.0" type="line"/>
    </contour>
    <contour>
      <point x="536.000000179" y="173.799999803" type="line"/>
      <point x="605.599999845" y="173.799999803" type="line"/>
      <point x="605.599999845" y="588.399999961" type="line"/>
      <point x="980.599999905" y="588.399999961" type="line"/>
      <point x="980.599999905" y="637.599999562" type="line"/>
      <point x="605.799999848" y="637.599999562" type="line"/>
      <point x="605.799999848" y="1041.99999972" type="line"/>
      <point x="536.000000179" y="1041.99999972" type="line"/>
      <point x="536.000000179" y="637.599999562" type="line"/>
      <point x="150.400000095" y="637.599999562" type="line"/>
      <point x="150.400000095" y="588.399999961" type="line"/>
      <point x="536.000000179" y="588.399999961" type="line"/>
    </contour>
  </outline>
</glyph>
<glyph name="uni00B3" format="1">
  <advance width="869.600"/>
  <unicode hex="00B3"/>
  <outline>
    <contour>
      <point x="460.8" y="638.6" type="curve" smooth="yes"/>
      <point x="599" y="638.6"/>
      <point x="697.2" y="738.2"/>
      <point x="697.2" y="884.6" type="curve" smooth="yes"/>
      <point x="697.2" y="989.4"/>
      <point x="638" y="1073.8"/>
      <point x="501.8" y="1102.8" type="curve"/>
      <point x="624.4" y="1117.6"/>
      <point x="678.4" y="1205.8"/>
      <point x="678" y="1289.6" type="curve"/>
      <point x="678" y="1439"/>
      <point x="561.8" y="1518.6"/>
      <point x="444.2" y="1518.6" type="curve" smooth="yes"/>
      <point x="365" y="1518.6"/>
      <point x="237.4" y="1483"/>
      <point x="188.2" y="1419.4" type="curve"/>
      <point x="233.2" y="1353" type="line"/>
      <point x="274.8" y="1401.6"/>
      <point x="376.6" y="1434.4"/>
      <point x="443.8" y="1434.4" type="curve" smooth="yes"/>
      <point x="515.4" y="1434.4"/>
      <point x="582.8" y="1392.8"/>
      <point x="582.8" y="1290" type="curve" smooth="yes"/>
      <point x="582.8" y="1188.2"/>
      <point x="473" y="1143.8"/>
      <point x="376" y="1143.8" type="curve" smooth="yes"/>
      <point x="315" y="1143.8" type="line"/>
      <point x="315" y="1054.4" type="line"/>
      <point x="381.2" y="1054.2" type="line"/>
      <point x="495.8" y="1054.2"/>
      <point x="597.6" y="999.2"/>
      <point x="597.6" y="890.4" type="curve" smooth="yes"/>
      <point x="597.6" y="779.2"/>
      <point x="524.6" y="725.4"/>
      <point x="445.4" y="725.4" type="curve" smooth="yes"/>
      <point x="381.6" y="725.4"/>
      <point x="286" y="754"/>
      <point x="230.6" y="802.6" type="curve"/>
      <point x="189.2" y="730.8" type="line"/>
      <point x="242.2" y="661.8"/>
      <point x="380.6" y="638.6"/>
    </contour>
  </outline>
</glyph>
<glyph name="acute" format="1">
  <advance width="675.400"/>
  <unicode hex="00B4"/>
  <outline>
    <contour>
      <point x="70.2" y="1297.8" type="line"/>
      <point x="118.8" y="1297.8" type="line"/>
      <point x="397.6" y="1668.4" type="line"/>
      <point x="263.4" y="1668.4" type="line"/>
    </contour>
  </outline>
</glyph>
<glyph name="paragraph" format="1">
  <advance width="1117.600"/>
  <unicode hex="00B6"/>
  <outline>
    <contour>
      <point x="548.4" y="-194.4" type="line"/>
      <point x="618.8" y="-194.4" type="line"/>
      <point x="618.8" y="1530.6" type="line"/>
      <point x="853.4" y="1530.6" type="line"/>
      <point x="853.4" y="-194.4" type="line"/>
      <point x="923.8" y="-194.4" type="line"/>
      <point x="923.8" y="1530.6" type="line"/>
      <point x="994.8" y="1530.6" type="line"/>
      <point x="994.8" y="1591.6" type="line"/>
      <point x="489.6" y="1591.6" type="line" smooth="yes"/>
      <point x="138" y="1591.6"/>
      <point x="129.4" y="1338.8"/>
      <point x="129.4" y="1252.4" type="curve" smooth="yes"/>
      <point x="129.4" y="1090"/>
      <point x="204" y="884.2"/>
      <point x="548.4" y="884.2" type="curve"/>
    </contour>
  </outline>
</glyph>
<glyph name="cedilla" format="1">
  <advance width="619.600"/>
  <unicode hex="00B8"/>
  <outline>
    <contour>
      <point x="180" y="-373.2" type="line"/>
      <point x="250" y="-373.2" type="line"/>
      <point x="276" y="4.8" type="line"/>
      <point x="243.2" y="4.8" type="line"/>
    </contour>
  </outline>
</glyph>
<glyph name="uni00B9" format="1">
  <advance width="908.200"/>
  <unicode hex="00B9"/>
  <outline>
    <contour>
      <point x="240.6" y="729" type="line"/>
      <point x="762.4" y="729" type="line"/>
      <point x="762.4" y="825.6" type="line"/>
      <point x="571.4" y="825.6" type="line"/>
      <point x="571.4" y="1499.2" type="line"/>
      <point x="456.2" y="1499" type="line"/>
      <point x="409.4" y="1452.2"/>
      <point x="302.8" y="1414.8"/>
      <point x="244" y="1401.6" type="curve"/>
      <point x="244" y="1295.2" type="line"/>
      <point x="310" y="1309.6"/>
      <point x="408.4" y="1342"/>
      <point x="445.6" y="1368.6" type="curve"/>
      <point x="445.6" y="825.6" type="line"/>
      <point x="240.6" y="825.6" type="line"/>
    </contour>
  </outline>
</glyph>
<glyph name="guillemotright" format="1">
  <advance width="963.800"/>
  <unicode hex="00BB"/>
  <outline>
    <contour>
      <point x="546.8" y="911.2" type="line"/>
      <point x="494.6" y="899.4" type="line"/>
      <point x="752.2" y="534.2" type="line"/>
      <point x="487" y="177.2" type="line"/>
      <point x="543.8" y="163.2" type="line"/>
      <point x="815.6" y="537.2" type="line"/>
    </contour>
    <contour>
      <point x="234.6" y="911.2" type="line"/>
      <point x="182.8" y="899.4" type="line"/>
      <point x="439.4" y="534.2" type="line"/>
      <point x="173.6" y="177.2" type="line"/>
      <point x="231.2" y="163.2" type="line"/>
      <point x="503.4" y="537.2" type="line"/>
    </contour>
  </outline>
</glyph>
<glyph name="onequarter" format="1">
  <advance width="1628.20000026"/>
  <unicode hex="00BC"/>
  <outline>
    <contour>
      <point x="98.0000000745" y="645.400000185" type="line"/>
      <point x="507.199999943" y="645.400000185" type="line"/>
      <point x="507.199999943" y="717.799999967" type="line"/>
      <point x="362.999999911" y="717.799999967" type="line"/>
      <point x="362.999999911" y="1512.40000021" type="line"/>
      <point x="279.800000072" y="1512.20000021" type="line"/>
      <point x="232.999999955" y="1465.4000001"/>
      <point x="155.400000259" y="1435.20000029"/>
      <point x="94.2000001073" y="1413.60000023" type="curve"/>
      <point x="94.2000001073" y="1340.40000045" type="line"/>
      <point x="153.000000253" y="1360.8000005"/>
      <point x="230.800000161" y="1385.80000043"/>
      <point x="268.000000164" y="1412.40000045" type="curve"/>
      <point x="268.000000164" y="717.799999967" type="line"/>
      <point x="98.0000000745" y="717.799999967" type="line"/>
    </contour>
    <contour>
      <point x="1358.20000024" y="-0.600000023842" type="line"/>
      <point x="1450.80000006" y="-0.600000023842" type="line"/>
      <point x="1450.60000005" y="201.40000008" type="line"/>
      <point x="1582.20000011" y="201.40000008" type="line"/>
      <point x="1570.80000009" y="273.999999896" type="line"/>
      <point x="1452.80000006" y="273.999999896" type="line"/>
      <point x="1452.80000006" y="838.0" type="line"/>
      <point x="1348.20000024" y="838.0" type="line"/>
      <point x="978.400000229" y="250.399999827" type="line"/>
      <point x="978.400000229" y="201.40000008" type="line"/>
      <point x="1358.20000024" y="201.40000008" type="line"/>
    </contour>
    <contour>
      <point x="389.600000352" y="0.0" type="line"/>
      <point x="466.200000018" y="0.0" type="line"/>
      <point x="1336.99999981" y="1525.60000028" type="line"/>
      <point x="1260.40000013" y="1525.60000028" type="line"/>
    </contour>
    <contour>
      <point x="1085.59999998" y="273.999999896" type="line"/>
      <point x="1358.60000025" y="699.600000277" type="line"/>
      <point x="1358.60000025" y="273.999999896" type="line"/>
    </contour>
  </outline>
</glyph>
<glyph name="onehalf" format="1">
  <advance width="1683.00000022"/>
  <unicode hex="00BD"/>
  <outline>
    <contour>
      <point x="152.200000152" y="643.400000155" type="line"/>
      <point x="477.599999815" y="643.400000155" type="line"/>
      <point x="477.599999815" y="727.200000003" type="line"/>
      <point x="358.399999842" y="727.200000003" type="line"/>
      <point x="358.399999842" y="1512.40000021" type="line"/>
      <point x="280.000000075" y="1512.20000021" type="line"/>
      <point x="233.199999958" y="1465.4000001"/>
      <point x="212.200000346" y="1449.40000032"/>
      <point x="140.200000167" y="1413.40000023" type="curve"/>
      <point x="140.200000167" y="1326.80000041" type="line"/>
      <point x="191.800000295" y="1353.20000048"/>
      <point x="226.200000092" y="1371.40000036"/>
      <point x="263.600000098" y="1397.40000038" type="curve"/>
      <point x="263.600000098" y="727.200000003" type="line"/>
      <point x="152.200000152" y="727.200000003" type="line"/>
    </contour>
    <contour>
      <point x="1016.39999996" y="4.20000007749" type="line"/>
      <point x="1525.59999989" y="4.20000007749" type="line"/>
      <point x="1521.99999984" y="89.9999999255" type="line"/>
      <point x="1135.99999961" y="89.9999999255" type="line"/>
      <point x="1356.59999974" y="294.40000008"/>
      <point x="1536.39999987" y="435.800000191"/>
      <point x="1536.39999987" y="626.200000212" type="curve" smooth="yes"/>
      <point x="1536.39999987" y="784.000000179"/>
      <point x="1402.79999988" y="862.600000128"/>
      <point x="1268.3999999" y="862.600000128" type="curve" smooth="yes"/>
      <point x="1156.99999993" y="862.600000128"/>
      <point x="1033.79999988" y="791.600000054"/>
      <point x="984.399999902" y="693.600000024" type="curve"/>
      <point x="1052.99999988" y="647.200000212" type="line" smooth="yes"/>
      <point x="1121.19999994" y="738.600000292"/>
      <point x="1200.39999995" y="777.400000319"/>
      <point x="1286.8" y="777.400000319" type="curve" smooth="yes"/>
      <point x="1367.40000005" y="777.400000319"/>
      <point x="1438.00000007" y="729.200000301"/>
      <point x="1438.00000007" y="616.4000002" type="curve" smooth="yes"/>
      <point x="1438.00000007" y="495.600000218"/>
      <point x="1304.20000067" y="372.200000629"/>
      <point x="1016.19999996" y="82.9999999106" type="curve"/>
    </contour>
    <contour>
      <point x="336.600000203" y="-4.0000000596" type="line"/>
      <point x="414.199999869" y="-4.0000000596" type="line"/>
      <point x="1284.19999965" y="1525.60000028" type="line"/>
      <point x="1207.39999998" y="1525.60000028" type="line"/>
    </contour>
  </outline>
</glyph>
<glyph name="threequarters" format="1">
  <advance width="1711.200"/>
  <unicode hex="00BE"/>
  <outline>
    <contour>
      <point x="385.2" y="633.2" type="curve" smooth="yes"/>
      <point x="523.8" y="633.2"/>
      <point x="620.8" y="733.6"/>
      <point x="620.8" y="880.4" type="curve" smooth="yes"/>
      <point x="620.8" y="985.8"/>
      <point x="561" y="1070.6"/>
      <point x="424.6" y="1099.8" type="curve"/>
      <point x="543.8" y="1112.8"/>
      <point x="601.8" y="1194"/>
      <point x="601.8" y="1287.4" type="curve" smooth="yes"/>
      <point x="601.8" y="1438.8"/>
      <point x="488.4" y="1518.6"/>
      <point x="369.8" y="1518.6" type="curve" smooth="yes"/>
      <point x="291" y="1518.6"/>
      <point x="164.8" y="1483.2"/>
      <point x="115.6" y="1420" type="curve"/>
      <point x="157.8" y="1353" type="line"/>
      <point x="199.4" y="1401.6"/>
      <point x="303" y="1435"/>
      <point x="370.2" y="1435" type="curve" smooth="yes"/>
      <point x="441.6" y="1435"/>
      <point x="507.6" y="1392.4"/>
      <point x="507.6" y="1288.8" type="curve" smooth="yes"/>
      <point x="507.6" y="1186.2"/>
      <point x="397.6" y="1141.8"/>
      <point x="300.6" y="1141.8" type="curve" smooth="yes"/>
      <point x="239.4" y="1141.8" type="line"/>
      <point x="239.4" y="1052.6" type="line"/>
      <point x="306.8" y="1052.4" type="line"/>
      <point x="421.6" y="1052.4"/>
      <point x="523.6" y="996.2"/>
      <point x="523.6" y="886" type="curve" smooth="yes"/>
      <point x="523.6" y="773.8"/>
      <point x="450.4" y="719.4"/>
      <point x="371.2" y="719.4" type="curve" smooth="yes"/>
      <point x="307.4" y="719.4"/>
      <point x="211.6" y="749"/>
      <point x="156" y="798.2" type="curve"/>
      <point x="113.8" y="725.6" type="line"/>
      <point x="167" y="656.6"/>
      <point x="305" y="633.2"/>
    </contour>
    <contour>
      <point x="1368" y="-2.8" type="line"/>
      <point x="1460.6" y="-2.8" type="line"/>
      <point x="1460.4" y="197.6" type="line"/>
      <point x="1592" y="197.6" type="line"/>
      <point x="1580.4" y="270.4" type="line"/>
      <point x="1462.6" y="270.4" type="line"/>
      <point x="1462.6" y="833.4" type="line"/>
      <point x="1358.2" y="833.4" type="line"/>
      <point x="988" y="247.8" type="line"/>
      <point x="988" y="197.6" type="line"/>
      <point x="1368" y="197.6" type="line"/>
    </contour>
    <contour>
      <point x="446.6" y="-4" type="line"/>
      <point x="522.6" y="-4" type="line"/>
      <point x="1394" y="1525.6" type="line"/>
      <point x="1318" y="1525.6" type="line"/>
    </contour>
    <contour>
      <point x="1095.6" y="270.4" type="line"/>
      <point x="1368.4" y="696.4" type="line"/>
      <point x="1368.4" y="270.4" type="line"/>
    </contour>
  </outline>
</glyph>
<glyph name="Eth" format="1">
  <advance width="1570.200"/>
  <unicode hex="00D0"/>
  <outline>
    <contour>
      <point x="654.6" y="788.2" type="line"/>
      <point x="95.4" y="788.2" type="line"/>
      <point x="95.4" y="721.2" type="line"/>
      <point x="654.6" y="721.2" type="line"/>
    </contour>
    <component base="D"/>
  </outline>
</glyph>
<glyph name="multiply" format="1">
  <advance width="637"/>
  <unicode hex="00D7"/>
  <outline>
    <contour>
      <point x="586" y="250" type="line"/>
      <point x="622.4" y="289.6" type="line"/>
      <point x="622.4" y="289.6"/>
      <point x="349.2" y="591.8"/>
      <point x="362.8" y="578.2" type="curve"/>
      <point x="617.6" y="849" type="line"/>
      <point x="570.6" y="893.2" type="line"/>
      <point x="323.4" y="623.2" type="line"/>
      <point x="74.4" y="900.4" type="line"/>
      <point x="30.2" y="854.8" type="line"/>
      <point x="285.6" y="579.4" type="line"/>
      <point x="14.6" y="286.2" type="line"/>
      <point x="57.6" y="248.8" type="line"/>
      <point x="323.4" y="534.6" type="line"/>
    </contour>
  </outline>
</glyph>
<glyph name="Oslash" format="1">
  <advance width="1682.600"/>
  <unicode hex="00D8"/>
  <outline>
    <contour>
      <point x="493.4" y="-219.8" type="line"/>
      <point x="1224" y="1649.2" type="line"/>
      <point x="1148.4" y="1677.2" type="line"/>
      <point x="422.6" y="-196.8" type="line"/>
    </contour>
    <component base="O"/>
  </outline>
</glyph>
<glyph name="germandbls" format="1">
  <advance width="1183.60000005"/>
  <unicode hex="00DF"/>
  <outline>
    <contour>
      <point x="298.19999975" y="0.0" type="line"/>
      <point x="204.000000164" y="0.0" type="line"/>
      <point x="204.000000164" y="1025.20000009" type="line" smooth="yes"/>
      <point x="204.000000164" y="1315.80000012"/>
      <point x="298.0" y="1494.40000014"/>
      <point x="599.800000027" y="1494.40000014" type="curve" smooth="yes"/>
      <point x="822.200000018" y="1494.40000014"/>
      <point x="923.399999768" y="1353.20000003"/>
      <point x="923.399999768" y="1196.80000021" type="curve" smooth="yes"/>
      <point x="923.399999768" y="1010.00000034"/>
      <point x="687.79999961" y="851.200000048"/>
      <point x="687.79999961" y="745.199999958" type="curve" smooth="yes"/>
      <point x="687.79999961" y="615.599999875"/>
      <point x="1087.79999974" y="555.199999869"/>
      <point x="1087.79999974" y="272.399999917" type="curve" smooth="yes"/>
      <point x="1087.79999974" y="101.800000012"/>
      <point x="981.799999833" y="-18.3999999911"/>
      <point x="793.799999908" y="-18.3999999911" type="curve" smooth="yes"/>
      <point x="644.599999771" y="-18.3999999911"/>
      <point x="507.999999702" y="28.6000000685"/>
      <point x="458.399999872" y="62.6000000387" type="curve"/>
      <point x="490.5999998" y="140.999999776" type="line"/>
      <point x="556.799999863" y="105.599999741"/>
      <point x="665.399999917" y="60.999999702"/>
      <point x="799.800000057" y="60.999999702" type="curve" smooth="yes"/>
      <point x="961.400000259" y="60.999999702"/>
      <point x="1002.80000019" y="180.799999923"/>
      <point x="1002.80000019" y="259.799999863" type="curve" smooth="yes"/>
      <point x="1002.80000019" y="493.200000003"/>
      <point x="610.800000057" y="540.199999973"/>
      <point x="610.800000057" y="740.000000015" type="curve" smooth="yes"/>
      <point x="610.800000057" y="902.800000012"/>
      <point x="822.000000104" y="970.400000066"/>
      <point x="823.200000107" y="1199.60000023" type="curve" smooth="yes"/>
      <point x="824.40000011" y="1324.60000034"/>
      <point x="758.200000122" y="1422.20000045"/>
      <point x="596.799999982" y="1422.20000045" type="curve" smooth="yes"/>
      <point x="389.59999986" y="1422.20000045"/>
      <point x="298.19999975" y="1329.80000046"/>
      <point x="298.19999975" y="1037.00000013" type="curve" smooth="yes"/>
    </contour>
  </outline>
</glyph>
<glyph name="ae" format="1">
  <advance width="1819.40000053"/>
  <unicode hex="00E6"/>
  <outline>
    <contour>
      <point x="456.600000128" y="-12.7999999821" type="curve" smooth="yes"/>
      <point x="626.600000113" y="-12.7999999821"/>
      <point x="839.400000229" y="74.6000000685"/>
      <point x="926.400000229" y="188.600000158" type="curve"/>
      <point x="1004.80000024" y="55.6000000536"/>
      <point x="1141.60000034" y="-19.0"/>
      <point x="1311.80000034" y="-19.0" type="curve" smooth="yes"/>
      <point x="1462.40000029" y="-19.0"/>
      <point x="1563.60000028" y="18.0"/>
      <point x="1667.80000032" y="71.1999999583" type="curve"/>
      <point x="1638.40000044" y="131.799999684" type="line"/>
      <point x="1501.20000024" y="66.5999996215"/>
      <point x="1428.8000003" y="54.799999699"/>
      <point x="1327.60000034" y="54.799999699" type="curve"/>
      <point x="1107.2000002" y="54.399999693"/>
      <point x="937.399999961" y="186.199999824"/>
      <point x="927.399999961" y="528.600000203" type="curve"/>
      <point x="1502.00000012" y="528.600000203"/>
      <point x="1670.20000024" y="555.399999857"/>
      <point x="1670.20000024" y="797.400000095" type="curve" smooth="yes"/>
      <point x="1670.20000024" y="940.400000051"/>
      <point x="1539.00000013" y="1068.59999992"/>
      <point x="1302.80000028" y="1068.59999992" type="curve" smooth="yes"/>
      <point x="1132.40000021" y="1068.59999992"/>
      <point x="938.800000057" y="967.199999839"/>
      <point x="910.600000158" y="763.599999547" type="curve"/>
      <point x="907.400000259" y="987.999999851"/>
      <point x="747.800000116" y="1069.79999992"/>
      <point x="543.399999976" y="1069.79999992" type="curve" smooth="yes"/>
      <point x="431.000000104" y="1069.79999992"/>
      <point x="281.800000176" y="1032.19999994"/>
      <point x="197.800000206" y="985.599999964" type="curve"/>
      <point x="231.40000011" y="915.800000221" type="line"/>
      <point x="332.600000203" y="973.200000301"/>
      <point x="469.40000017" y="998.800000235"/>
      <point x="575.600000143" y="998.800000235" type="curve"/>
      <point x="769.000000298" y="1000.00000025"/>
      <point x="842.200000376" y="894.800000131"/>
      <point x="842.200000376" y="723.400000006" type="curve" smooth="yes"/>
      <point x="842.200000376" y="595.599999934" type="line"/>
      <point x="634.40000011" y="595.599999934" type="line" smooth="yes"/>
      <point x="272.599999964" y="595.599999934"/>
      <point x="135.000000134" y="496.799999863"/>
      <point x="135.000000134" y="292.799999952" type="curve" smooth="yes"/>
      <point x="135.000000134" y="60.1999998391"/>
      <point x="290.200000212" y="-12.7999999821"/>
    </contour>
    <contour>
      <point x="468.600000069" y="69.7999997735" type="curve" smooth="yes"/>
      <point x="332.399999931" y="69.7999997735"/>
      <point x="229.999999776" y="139.999999836"/>
      <point x="229.999999776" y="310.600000039" type="curve" smooth="yes"/>
      <point x="229.999999776" y="467.4000002"/>
      <point x="315.399999827" y="532.200000212"/>
      <point x="664.600000232" y="532.200000212" type="curve" smooth="yes"/>
      <point x="841.200000361" y="532.200000212" type="line"/>
      <point x="840.400000349" y="447.000000164"/>
      <point x="852.600000322" y="347.400000125"/>
      <point x="888.600000381" y="260.599999979" type="curve"/>
      <point x="796.800000355" y="149.399999857"/>
      <point x="612.4000002" y="69.7999997735"/>
    </contour>
    <contour>
      <point x="931.99999997" y="589.59999992" type="curve"/>
      <point x="953.799999967" y="812.199999869"/>
      <point x="1073.99999993" y="993.40000017"/>
      <point x="1304.40000023" y="993.40000017" type="curve" smooth="yes"/>
      <point x="1499.40000047" y="993.40000017"/>
      <point x="1593.60000056" y="885.800000027"/>
      <point x="1593.60000056" y="782.000000015" type="curve" smooth="yes"/>
      <point x="1593.60000056" y="614.399999827"/>
      <point x="1381.80000027" y="589.59999992"/>
    </contour>
  </outline>
</glyph>
<glyph name="eth" format="1">
  <advance width="1365.400"/>
  <unicode hex="00F0"/>
  <outline>
    <contour>
      <point x="661.6" y="-31.2" type="curve" smooth="yes"/>
      <point x="1010.2" y="-31.2"/>
      <point x="1146.8" y="220.2"/>
      <point x="1146.8" y="495.4" type="curve"/>
      <point x="1147" y="625.8"/>
      <point x="1117.6" y="774"/>
      <point x="1073" y="870.4" type="curve"/>
      <point x="1013.8" y="997.8"/>
      <point x="917" y="1137.6"/>
      <point x="663.2" y="1399.2" type="curve"/>
      <point x="957.8" y="1504.8" type="line"/>
      <point x="920.6" y="1560.2" type="line"/>
      <point x="610.8" y="1444.2" type="line"/>
      <point x="420.4" y="1628.8" type="line"/>
      <point x="319.2" y="1628.8" type="line"/>
      <point x="550.2" y="1423.8" type="line"/>
      <point x="285.8" y="1324.4" type="line"/>
      <point x="321" y="1267.4" type="line"/>
      <point x="591" y="1368.8" type="line"/>
      <point x="879.4" y="1094.2"/>
      <point x="978" y="942.4"/>
      <point x="1040.8" y="809.6" type="curve"/>
      <point x="962.8" y="879.6"/>
      <point x="891.8" y="974.6"/>
      <point x="666.8" y="974.6" type="curve" smooth="yes"/>
      <point x="388.2" y="974.6"/>
      <point x="179.8" y="776.4"/>
      <point x="179.8" y="483.8" type="curve" smooth="yes"/>
      <point x="179.8" y="233.6"/>
      <point x="322.8" y="-31.2"/>
    </contour>
    <contour>
      <point x="667.4" y="33.2" type="curve" smooth="yes"/>
      <point x="394.8" y="33.2"/>
      <point x="277.2" y="267.6"/>
      <point x="277.2" y="481.2" type="curve" smooth="yes"/>
      <point x="277.2" y="712.6"/>
      <point x="420" y="900.8"/>
      <point x="660.2" y="900.8" type="curve" smooth="yes"/>
      <point x="920.8" y="900.8"/>
      <point x="1060.4" y="691.2"/>
      <point x="1060.4" y="500" type="curve" smooth="yes"/>
      <point x="1060.4" y="220"/>
      <point x="932.2" y="33.2"/>
    </contour>
  </outline>
</glyph>
<glyph name="divide" format="1">
  <advance width="1021.39999935"/>
  <unicode hex="00F7"/>
  <outline>
    <contour>
      <point x="432.799999818" y="40.6000000536" type="line"/>
      <point x="564.199999467" y="40.6000000536" type="line"/>
      <point x="564.199999467" y="189.799999744" type="line"/>
      <point x="432.799999818" y="189.799999744" type="line"/>
    </contour>
    <contour>
      <point x="53.3999998271" y="515.200000122" type="line"/>
      <point x="941.599999458" y="515.200000122" type="line"/>
      <point x="941.599999458" y="607.999999866" type="line"/>
      <point x="53.3999998271" y="607.999999866" type="line"/>
    </contour>
    <contour>
      <point x="432.799999818" y="895.800000146" type="line"/>
      <point x="562.599999443" y="895.800000146" type="line"/>
      <point x="562.599999443" y="1046.19999987" type="line"/>
      <point x="432.799999818" y="1046.19999987" type="line"/>
    </contour>
  </outline>
</glyph>
<glyph name="oslash" format="1">
  <advance width="1246"/>
  <unicode hex="00F8"/>
  <outline>
    <contour>
      <point x="294.8" y="-151.6" type="line"/>
      <point x="1026.6" y="1190.6" type="line"/>
      <point x="962" y="1219.6" type="line"/>
      <point x="236.2" y="-121.4" type="line"/>
    </contour>
    <component base="o"/>
  </outline>
</glyph>
<glyph name="Dcroat" format="1">
  <advance width="1571.2000003"/>
  <unicode hex="0110"/>
  <outline>
    <contour>
      <point x="61.200000003" y="700.600000039" type="line"/>
      <point x="61.200000003" y="792.000000045" type="line"/>
      <point x="584.200000033" y="792.000000045" type="line"/>
      <point x="584.200000033" y="700.600000039" type="line"/>
    </contour>
    <component base="D"/>
  </outline>
</glyph>
<glyph name="Hbar" format="1">
  <advance width="1751.40000109"/>
  <unicode hex="0126"/>
  <outline>
    <contour>
      <point x="311.600000486" y="0.0" type="line"/>
      <point x="311.600000486" y="1094.59999993" type="line"/>
      <point x="214.600000441" y="1094.59999993" type="line"/>
      <point x="214.600000441" y="1152.19999972" type="line"/>
      <point x="311.600000486" y="1152.19999972" type="line"/>
      <point x="311.600000486" y="1488.40000021" type="line"/>
      <point x="370.599999964" y="1488.40000021" type="line"/>
      <point x="370.599999964" y="1152.19999972" type="line"/>
      <point x="1343.60000083" y="1152.19999972" type="line"/>
      <point x="1343.60000083" y="1488.40000021" type="line"/>
      <point x="1402.2000003" y="1488.40000021" type="line"/>
      <point x="1402.2000003" y="1152.19999972" type="line"/>
      <point x="1499.20000035" y="1152.19999972" type="line"/>
      <point x="1499.20000035" y="1094.59999993" type="line"/>
      <point x="1402.2000003" y="1094.59999993" type="line"/>
      <point x="1402.2000003" y="0.0" type="line"/>
      <point x="1343.60000083" y="0.0" type="line"/>
      <point x="1343.60000083" y="719.800000235" type="line"/>
      <point x="370.599999964" y="719.800000235" type="line"/>
      <point x="370.599999964" y="0.0" type="line"/>
    </contour>
    <contour>
      <point x="370.599999964" y="811.399999961" type="line"/>
      <point x="1343.60000083" y="811.399999961" type="line"/>
      <point x="1343.60000083" y="1094.59999993" type="line"/>
      <point x="370.599999964" y="1094.59999993" type="line"/>
    </contour>
  </outline>
</glyph>
<glyph name="hbar" format="1">
  <advance width="1326.400"/>
  <unicode hex="0127"/>
  <outline>
    <contour>
      <point x="334.2" y="0" type="line"/>
      <point x="389.2" y="0" type="line"/>
      <point x="389.2" y="726" type="line"/>
      <point x="396" y="837.8"/>
      <point x="564.4" y="1009.6"/>
      <point x="781.8" y="1009.6" type="curve" smooth="yes"/>
      <point x="1021.6" y="1009.6"/>
      <point x="1057.8" y="861.6"/>
      <point x="1057.8" y="555.8" type="curve" smooth="yes"/>
      <point x="1057.8" y="0" type="line"/>
      <point x="1113" y="0" type="line"/>
      <point x="1113" y="637.6" type="line" smooth="yes"/>
      <point x="1113" y="870.8"/>
      <point x="1073.2" y="1087.2"/>
      <point x="830.2" y="1087.2" type="curve" smooth="yes"/>
      <point x="634.2" y="1087.2"/>
      <point x="488" y="1008.2"/>
      <point x="389.2" y="870.4" type="curve"/>
      <point x="389.2" y="1292.6" type="line"/>
      <point x="647.8" y="1292.6" type="line"/>
      <point x="647.8" y="1367.4" type="line"/>
      <point x="389.2" y="1367.4" type="line"/>
      <point x="389.2" y="1462" type="line"/>
      <point x="334.2" y="1441.8" type="line"/>
      <point x="334.2" y="1367.4" type="line"/>
      <point x="249.8" y="1367.4" type="line"/>
      <point x="249.8" y="1292.6" type="line"/>
      <point x="334.2" y="1292.6" type="line"/>
    </contour>
  </outline>
</glyph>
<glyph name="dotlessi" format="1">
  <advance width="361.400"/>
  <unicode hex="0131"/>
  <outline>
    <contour>
      <point x="158.4" y="0" type="line"/>
      <point x="212.6" y="0" type="line"/>
      <point x="212.6" y="1052.6" type="line"/>
      <point x="158.4" y="1052.6" type="line"/>
    </contour>
  </outline>
</glyph>
<glyph name="Eng" format="1">
  <advance width="1453.600"/>
  <unicode hex="014A"/>
  <outline>
    <contour>
      <point x="861.4" y="-312.8" type="curve" smooth="yes"/>
      <point x="812.2" y="-312.8"/>
      <point x="757" y="-310.4"/>
      <point x="547.2" y="-290.8" type="curve"/>
      <point x="525" y="-242.2" type="line"/>
      <point x="756.6" y="-254.8"/>
      <point x="728.4" y="-255.8"/>
      <point x="764.6" y="-255.8" type="curve" smooth="yes"/>
      <point x="1145.2" y="-255.8"/>
      <point x="1161.2" y="-167.2"/>
      <point x="1161.2" y="185.6" type="curve" smooth="yes"/>
      <point x="1161.2" y="1031.8" type="line" smooth="yes"/>
      <point x="1161.2" y="1321.8"/>
      <point x="1078.8" y="1412.2"/>
      <point x="808.4" y="1412.2" type="curve" smooth="yes"/>
      <point x="487.4" y="1412.2"/>
      <point x="319.2" y="1227.2"/>
      <point x="218.2" y="1093.8" type="curve"/>
      <point x="218.2" y="0" type="line"/>
      <point x="198.2" y="0" type="line"/>
      <point x="193.4" y="1482.2" type="line"/>
      <point x="220" y="1482.2" type="line"/>
      <point x="231" y="1225" type="line"/>
      <point x="492.2" y="1496.4"/>
      <point x="657.6" y="1506.6"/>
      <point x="846.2" y="1506.6" type="curve" smooth="yes"/>
      <point x="1062.8" y="1506.6"/>
      <point x="1179.8" y="1354.8"/>
      <point x="1179.8" y="1032" type="curve" smooth="yes"/>
      <point x="1179.8" y="169.2" type="line" smooth="yes"/>
      <point x="1179.8" y="-120"/>
      <point x="1197.2" y="-312.8"/>
    </contour>
  </outline>
</glyph>
<glyph name="eng" format="1">
  <advance width="1251"/>
  <unicode hex="014B"/>
  <outline>
    <contour>
      <point x="640.8" y="-235" type="line"/>
      <point x="709.2" y="-235" type="line" smooth="yes"/>
      <point x="943.8" y="-235"/>
      <point x="967.2" y="-89.6"/>
      <point x="967" y="199.6" type="curve"/>
      <point x="967" y="628.8" type="line" smooth="yes"/>
      <point x="967" y="934.8"/>
      <point x="874.2" y="1071.4"/>
      <point x="633.2" y="1071.4" type="curve" smooth="yes"/>
      <point x="478" y="1071.4"/>
      <point x="363.4" y="1017.2"/>
      <point x="295" y="869" type="curve"/>
      <point x="280.8" y="1052.6" type="line"/>
      <point x="191.4" y="1052.6" type="line"/>
      <point x="191.4" y="0" type="line"/>
      <point x="284" y="0" type="line"/>
      <point x="284" y="639.8" type="line" smooth="yes"/>
      <point x="284" y="657.8"/>
      <point x="287" y="677"/>
      <point x="284.2" y="708.2" type="curve"/>
      <point x="310.2" y="873.4"/>
      <point x="384.2" y="1002.4"/>
      <point x="633.6" y="1002.4" type="curve" smooth="yes"/>
      <point x="830.4" y="1002.4"/>
      <point x="874.6" y="874.6"/>
      <point x="874.4" y="680.2" type="curve"/>
      <point x="874.4" y="145.8" type="line" smooth="yes"/>
      <point x="874.4" y="-97.2"/>
      <point x="855.8" y="-122.8"/>
      <point x="662.4" y="-122.8" type="curve" smooth="yes"/>
      <point x="646.2" y="-122.8" type="line"/>
    </contour>
  </outline>
</glyph>
<glyph name="OE" format="1">
  <advance width="1956.800"/>
  <unicode hex="0152"/>
  <outline>
    <contour>
      <point x="877" y="-27.6" type="curve" smooth="yes"/>
      <point x="257.6" y="-27.6"/>
      <point x="-9.6" y="344"/>
      <point x="-25.6" y="908.8" type="curve"/>
      <point x="-7.6" y="1418.8"/>
      <point x="309.2" y="1800.4"/>
      <point x="771.2" y="1800.4" type="curve"/>
      <point x="957.2" y="1800.4"/>
      <point x="937" y="1736.8"/>
      <point x="1007.8" y="1656.4" type="curve"/>
      <point x="1004" y="1720.4" type="line"/>
      <point x="1800.6" y="1720.4" type="line"/>
      <point x="1783.8" y="1514" type="line"/>
      <point x="1141" y="1514" type="line"/>
      <point x="1141" y="794.8" type="line"/>
      <point x="1734.6" y="794.8" type="line"/>
      <point x="1734.6" y="599.6" type="line"/>
      <point x="1135.6" y="599.6" type="line"/>
      <point x="1131.8" y="-153.8" type="line"/>
      <point x="1876.4" y="-153.8" type="line"/>
      <point x="1862" y="-272" type="line"/>
      <point x="1879.8" y="-283.4"/>
      <point x="1226.8" y="-289.8"/>
      <point x="1252.4" y="-289.8" type="curve" smooth="yes"/>
      <point x="1330.8" y="-289.8"/>
      <point x="1389.8" y="-122.2"/>
      <point x="1390.4" y="-38.8" type="curve"/>
      <point x="1376" y="-3.6"/>
      <point x="1087" y="-27.6"/>
    </contour>
    <contour>
      <point x="882.2" y="52" type="curve" smooth="yes"/>
      <point x="1069.4" y="51.8"/>
      <point x="1297.6" y="88"/>
      <point x="1337.2" y="44.8" type="curve"/>
      <point x="1336.8" y="-9"/>
      <point x="1307.2" y="1311.6"/>
      <point x="1252.4" y="1311.6" type="curve" smooth="yes"/>
      <point x="1128" y="1380"/>
      <point x="965.8" y="1446.8"/>
      <point x="803.6" y="1460" type="curve"/>
      <point x="392" y="1460"/>
      <point x="134" y="1327.8"/>
      <point x="119.6" y="868.2" type="curve"/>
      <point x="132.4" y="409.2"/>
      <point x="316.8" y="59.2"/>
    </contour>
  </outline>
</glyph>
<glyph name="uni0237" format="1">
  <advance width="379.600"/>
  <unicode hex="0237"/>
  <outline>
    <contour>
      <point x="-80.8" y="-495.2" type="line"/>
      <point x="-28.6" y="-495.2" type="line" smooth="yes"/>
      <point x="168.6" y="-495.2"/>
      <point x="213.2" y="-458.4"/>
      <point x="213.2" y="-236.4" type="curve" smooth="yes"/>
      <point x="213.2" y="1076.4" type="line"/>
      <point x="94.8" y="1076.4" type="line"/>
      <point x="94.8" y="-161.2" type="line" smooth="yes"/>
      <point x="94.8" y="-332.4"/>
      <point x="146.8" y="-401.2"/>
      <point x="-60" y="-401.2" type="curve" smooth="yes"/>
      <point x="-115.4" y="-401.2" type="line"/>
    </contour>
  </outline>
</glyph>
<glyph name="uni02BC" format="1">
  <advance width="640"/>
  <unicode hex="02BC"/>
  <outline>
    <contour>
      <point x="165.6" y="1210.2" type="line"/>
      <point x="232.4" y="1210.2" type="line"/>
      <point x="448.6" y="1617" type="line"/>
      <point x="363.8" y="1617" type="line"/>
    </contour>
  </outline>
</glyph>
<glyph name="circumflex" format="1">
  <advance width="844.400"/>
  <unicode hex="02C6"/>
  <outline>
    <contour>
      <point x="191.6" y="1320.2" type="line"/>
      <point x="247.2" y="1320.2" type="line"/>
      <point x="411.8" y="1644.2" type="line"/>
      <point x="556.2" y="1320.2" type="line"/>
      <point x="609.6" y="1320.2" type="line"/>
      <point x="498.4" y="1683.2" type="line"/>
      <point x="324.8" y="1683.2" type="line"/>
    </contour>
  </outline>
</glyph>
<glyph name="caron" format="1">
  <advance width="844.800"/>
  <unicode hex="02C7"/>
  <outline>
    <contour>
      <point x="302.4" y="1313.6" type="line"/>
      <point x="477.4" y="1313.6" type="line"/>
      <point x="607.8" y="1683.2" type="line"/>
      <point x="557.2" y="1683.2" type="line"/>
      <point x="394.2" y="1354.4" type="line"/>
      <point x="244" y="1683.2" type="line"/>
      <point x="193.8" y="1683.2" type="line"/>
    </contour>
  </outline>
</glyph>
<glyph name="breve" format="1">
  <advance width="817.400"/>
  <unicode hex="02D8"/>
  <outline>
    <contour>
      <point x="403.4" y="1352.4" type="curve" smooth="yes"/>
      <point x="503.2" y="1352.4"/>
      <point x="603.6" y="1409.2"/>
      <point x="603.6" y="1568.8" type="curve"/>
      <point x="556.2" y="1568.8" type="line"/>
      <point x="556.2" y="1448.4"/>
      <point x="464.6" y="1402"/>
      <point x="403.4" y="1402" type="curve" smooth="yes"/>
      <point x="342.2" y="1402"/>
      <point x="259" y="1448.4"/>
      <point x="259" y="1568.8" type="curve"/>
      <point x="209" y="1568.8" type="line"/>
      <point x="209" y="1407.8"/>
      <point x="304.6" y="1352.4"/>
    </contour>
  </outline>
</glyph>
<glyph name="dotaccent" format="1">
  <advance width="288"/>
  <unicode hex="02D9"/>
  <outline>
    <contour>
      <point x="93.4" y="1320.6" type="line"/>
      <point x="204.2" y="1320.6" type="line"/>
      <point x="204.2" y="1454.8" type="line"/>
      <point x="93.4" y="1454.8" type="line"/>
    </contour>
  </outline>
</glyph>
<glyph name="ring" format="1">
  <advance width="618"/>
  <unicode hex="02DA"/>
  <outline>
    <contour>
      <point x="309" y="1379.4" type="curve" smooth="yes"/>
      <point x="255" y="1379.4"/>
      <point x="208" y="1424.4"/>
      <point x="208" y="1479.4" type="curve" smooth="yes"/>
      <point x="208" y="1535.4"/>
      <point x="254.2" y="1578.4"/>
      <point x="309" y="1578.4" type="curve" smooth="yes"/>
      <point x="363.4" y="1578.4"/>
      <point x="411" y="1535.2"/>
      <point x="411" y="1479.4" type="curve" smooth="yes"/>
      <point x="411" y="1424.2"/>
      <point x="363.4" y="1379.4"/>
    </contour>
    <contour>
      <point x="309" y="1325" type="curve" smooth="yes"/>
      <point x="394.8" y="1325"/>
      <point x="469.8" y="1389.4"/>
      <point x="469.8" y="1480.6" type="curve" smooth="yes"/>
      <point x="469.8" y="1572"/>
      <point x="394.2" y="1636.4"/>
      <point x="309" y="1636.4" type="curve" smooth="yes"/>
      <point x="223.4" y="1636.4"/>
      <point x="148.2" y="1571.8"/>
      <point x="148.2" y="1480.6" type="curve" smooth="yes"/>
      <point x="148.2" y="1389.4"/>
      <point x="223.2" y="1325"/>
    </contour>
  </outline>
</glyph>
<glyph name="ogonek" format="1">
  <advance width="618"/>
  <unicode hex="02DB"/>
  <outline>
    <contour>
      <point x="419.6" y="-381.6" type="curve"/>
      <point x="419.6" y="-381.6"/>
      <point x="419.8" y="-314"/>
      <point x="421.2" y="-314" type="curve" smooth="yes"/>
      <point x="397.4" y="-325"/>
      <point x="362.8" y="-331.6"/>
      <point x="329.4" y="-331.6" type="curve" smooth="yes"/>
      <point x="281" y="-331.6"/>
      <point x="234.8" y="-317.2"/>
      <point x="234.8" y="-247.6" type="curve" smooth="yes"/>
      <point x="234.8" y="-159.6"/>
      <point x="360.2" y="-30"/>
      <point x="405.8" y="0" type="curve"/>
      <point x="349.2" y="0" type="line"/>
      <point x="225" y="-39.4"/>
      <point x="126.4" y="-182"/>
      <point x="126.4" y="-281" type="curve" smooth="yes"/>
      <point x="126.4" y="-345.8"/>
      <point x="167.4" y="-405.4"/>
      <point x="304" y="-405.4" type="curve" smooth="yes"/>
      <point x="344.4" y="-405.4"/>
      <point x="406" y="-391.6"/>
    </contour>
  </outline>
</glyph>
<glyph name="tilde" format="1">
  <advance width="1006.80000079"/>
  <unicode hex="02DC"/>
  <outline>
    <contour>
      <point x="244.600000188" y="1329.00000042" type="line"/>
      <point x="246.200000152" y="1398.00000042"/>
      <point x="271.200000152" y="1429.20000044"/>
      <point x="307.800000161" y="1429.20000044" type="curve" smooth="yes"/>
      <point x="386.200000197" y="1429.20000044"/>
      <point x="522.000000298" y="1329.00000042"/>
      <point x="621.200000271" y="1329.00000042" type="curve" smooth="yes"/>
      <point x="658.600000009" y="1329.00000042"/>
      <point x="729.000000075" y="1332.80000007"/>
      <point x="729.000000075" y="1491.2000002" type="curve"/>
      <point x="675.000000268" y="1491.2000002" type="line"/>
      <point x="671.800000295" y="1422.60000017"/>
      <point x="649.200000286" y="1399.80000016"/>
      <point x="614.800000265" y="1399.80000016" type="curve" smooth="yes"/>
      <point x="546.400000229" y="1399.80000016"/>
      <point x="428.800000146" y="1492.4000002"/>
      <point x="322.000000209" y="1492.4000002" type="curve" smooth="yes"/>
      <point x="271.400000468" y="1492.4000002"/>
      <point x="195.400000393" y="1482.20000051"/>
      <point x="195.400000393" y="1329.00000042" type="curve"/>
    </contour>
  </outline>
</glyph>
<glyph name="hungarumlaut" format="1">
  <advance width="660.600"/>
  <unicode hex="02DD"/>
  <outline>
    <contour>
      <point x="103.8" y="1336.8" type="line"/>
      <point x="141" y="1336.8" type="line"/>
      <point x="284.8" y="1627.8" type="line"/>
      <point x="185.8" y="1627.8" type="line"/>
    </contour>
    <contour>
      <point x="301.8" y="1336.8" type="line"/>
      <point x="343" y="1336.8" type="line"/>
      <point x="546" y="1627.8" type="line"/>
      <point x="434.4" y="1627.8" type="line"/>
    </contour>
  </outline>
</glyph>
<glyph name="uni0307" format="1">
  <advance width="259"/>
  <unicode hex="0307"/>
  <outline>
    <contour>
      <point x="59.2" y="1360" type="line"/>
      <point x="170" y="1360" type="line"/>
      <point x="170" y="1519.6" type="line"/>
      <point x="59.2" y="1519.6" type="line"/>
    </contour>
  </outline>
</glyph>
<glyph name="uni0311" format="1">
  <advance width="728.200"/>
  <unicode hex="0311"/>
  <outline>
    <contour>
      <point x="156.6" y="1334" type="curve"/>
      <point x="202.8" y="1334" type="line"/>
      <point x="202.8" y="1457.4"/>
      <point x="262.4" y="1515.4"/>
      <point x="351.2" y="1515.4" type="curve" smooth="yes"/>
      <point x="437.4" y="1515.4"/>
      <point x="501.4" y="1456"/>
      <point x="501.4" y="1334" type="curve"/>
      <point x="550" y="1334" type="line"/>
      <point x="550" y="1507.4"/>
      <point x="445" y="1573"/>
      <point x="346.8" y="1573" type="curve" smooth="yes"/>
      <point x="251.4" y="1573"/>
      <point x="156.6" y="1508.8"/>
    </contour>
  </outline>
</glyph>
<glyph name="uni031B" format="1">
  <advance width="457.200"/>
  <unicode hex="031B"/>
  <outline>
    <contour>
      <point x="233.4" y="484" type="line"/>
      <point x="234.6" y="479.8"/>
      <point x="237" y="459.2"/>
      <point x="237" y="431.2" type="curve" smooth="yes"/>
      <point x="237" y="348.8"/>
      <point x="209.8" y="220.2"/>
      <point x="80.6" y="220.2" type="curve" smooth="yes"/>
      <point x="69.8" y="220.2"/>
      <point x="60.6" y="221.4"/>
      <point x="48.6" y="222.6" type="curve"/>
      <point x="48.6" y="159.8" type="line"/>
      <point x="71.2" y="156.6"/>
      <point x="94.2" y="153.2"/>
      <point x="113.4" y="153.2" type="curve" smooth="yes"/>
      <point x="284.2" y="153.2"/>
      <point x="317.2" y="290.8"/>
      <point x="317.2" y="389.6" type="curve" smooth="yes"/>
      <point x="317.2" y="438.2"/>
      <point x="309" y="478.4"/>
      <point x="306.6" y="484" type="curve"/>
    </contour>
  </outline>
</glyph>
<glyph name="Delta" format="1">
  <advance width="1735.200"/>
  <unicode hex="0394"/>
  <outline>
    <contour>
      <point x="221.8" y="0" type="line"/>
      <point x="792.4" y="1447.6" type="line"/>
      <point x="911.8" y="1447.6" type="line"/>
      <point x="1485" y="0" type="line"/>
    </contour>
    <contour>
      <point x="383.6" y="103.6" type="line"/>
      <point x="1324" y="103.6" type="line"/>
      <point x="850.8" y="1336.8" type="line"/>
    </contour>
  </outline>
</glyph>
<glyph name="Lambda" format="1">
  <advance width="1735.200"/>
  <unicode hex="039B"/>
  <outline>
    <contour>
      <point x="223.2" y="0" type="line"/>
      <point x="767.6" y="1452.4" type="line"/>
      <point x="939.4" y="1452.4" type="line"/>
      <point x="1485" y="0" type="line"/>
      <point x="1327.6" y="0" type="line"/>
      <point x="852.2" y="1311.4" type="line"/>
      <point x="385.6" y="0" type="line"/>
    </contour>
  </outline>
</glyph>
<glyph name="Pi" format="1">
  <advance width="1506.400"/>
  <unicode hex="03A0"/>
  <outline>
    <contour>
      <point x="158.6" y="0" type="line"/>
      <point x="158.6" y="1452.4" type="line"/>
      <point x="1318.6" y="1452.4" type="line"/>
      <point x="1318.6" y="0" type="line"/>
      <point x="1165" y="0" type="line"/>
      <point x="1165" y="1321.6" type="line"/>
      <point x="315.8" y="1321.6" type="line"/>
      <point x="315.8" y="0" type="line"/>
    </contour>
  </outline>
</glyph>
<glyph name="Sigma" format="1">
  <advance width="1239.400"/>
  <unicode hex="03A3"/>
  <outline>
    <contour>
      <point x="155.6" y="0" type="line"/>
      <point x="155.6" y="1449.8" type="line"/>
      <point x="1014.4" y="1449.8" type="line"/>
      <point x="1012" y="1385.6" type="line"/>
      <point x="210.2" y="1385.6" type="line"/>
      <point x="210.2" y="781.4" type="line"/>
      <point x="928.8" y="781.4" type="line"/>
      <point x="928.8" y="711.4" type="line"/>
      <point x="210.2" y="711.4" type="line"/>
      <point x="210.2" y="64.2" type="line"/>
      <point x="1004" y="64.2" type="line"/>
      <point x="995.8" y="0" type="line"/>
    </contour>
  </outline>
</glyph>
<glyph name="Phi" format="1">
  <advance width="1775.200"/>
  <unicode hex="03A6"/>
  <outline>
    <contour>
      <point x="789" y="0" type="line"/>
      <point x="789" y="168" type="line"/>
      <point x="360.8" y="193.6"/>
      <point x="144.4" y="439.4"/>
      <point x="144.4" y="751.8" type="curve" smooth="yes"/>
      <point x="144.4" y="1072"/>
      <point x="379.6" y="1294.4"/>
      <point x="789" y="1319.2" type="curve"/>
      <point x="789" y="1452.4" type="line"/>
      <point x="945.4" y="1452.4" type="line"/>
      <point x="945.4" y="1319.2" type="line"/>
      <point x="1364.6" y="1295.2"/>
      <point x="1592.4" y="1071.4"/>
      <point x="1592.4" y="751.8" type="curve" smooth="yes"/>
      <point x="1592.4" y="435.6"/>
      <point x="1373.4" y="190.2"/>
      <point x="945.4" y="168" type="curve"/>
      <point x="945.4" y="0" type="line"/>
    </contour>
    <contour>
      <point x="789" y="292.2" type="curve"/>
      <point x="789" y="1196.2" type="line"/>
      <point x="472.2" y="1170.6"/>
      <point x="311.4" y="997.6"/>
      <point x="311.4" y="751.8" type="curve" smooth="yes"/>
      <point x="311.4" y="513.8"/>
      <point x="460.4" y="318.2"/>
    </contour>
    <contour>
      <point x="945.4" y="292.2" type="line"/>
      <point x="1281.4" y="317.4"/>
      <point x="1426.8" y="514.4"/>
      <point x="1426.8" y="751.8" type="curve" smooth="yes"/>
      <point x="1426.8" y="999.4"/>
      <point x="1265.8" y="1171.6"/>
      <point x="945.4" y="1196.2" type="curve"/>
    </contour>
  </outline>
</glyph>
<glyph name="Omega" format="1">
  <advance width="1627.600"/>
  <unicode hex="03A9"/>
  <outline>
    <contour>
      <point x="804.6" y="107.2" type="curve" smooth="yes"/>
      <point x="1164.8" y="107.2"/>
      <point x="1322" y="365"/>
      <point x="1322" y="715.4" type="curve" smooth="yes"/>
      <point x="1322" y="1080.4"/>
      <point x="1157.8" y="1337.4"/>
      <point x="805.8" y="1337.4" type="curve" smooth="yes"/>
      <point x="453.8" y="1337.4"/>
      <point x="286.4" y="1081.6"/>
      <point x="286.4" y="715.4" type="curve" smooth="yes"/>
      <point x="286.4" y="365"/>
      <point x="444.4" y="107.2"/>
    </contour>
    <contour>
      <point x="804.6" y="-21.4" type="curve" smooth="yes"/>
      <point x="354.4" y="-21.4"/>
      <point x="123.8" y="271.8"/>
      <point x="123.8" y="716.2" type="curve" smooth="yes"/>
      <point x="123.8" y="1173"/>
      <point x="363.6" y="1466.8"/>
      <point x="805.8" y="1466.8" type="curve" smooth="yes"/>
      <point x="1238.4" y="1466.8"/>
      <point x="1487.2" y="1169.4"/>
      <point x="1487.2" y="715" type="curve" smooth="yes"/>
      <point x="1487.2" y="279"/>
      <point x="1248.8" y="-21.4"/>
    </contour>
  </outline>
</glyph>
<glyph name="rho" format="1">
  <advance width="1357.800"/>
  <unicode hex="03C1"/>
  <outline>
    <contour>
      <point x="139.6" y="-490.4" type="line"/>
      <point x="235" y="-483.4" type="line"/>
      <point x="235" y="-101.2" type="line" smooth="yes"/>
      <point x="235" y="1"/>
      <point x="234.2" y="91.8"/>
      <point x="230" y="184.4" type="curve"/>
      <point x="300" y="62.6"/>
      <point x="472.2" y="-26.2"/>
      <point x="634" y="-26.2" type="curve" smooth="yes"/>
      <point x="913" y="-26.2"/>
      <point x="1131.2" y="200"/>
      <point x="1131.2" y="510.2" type="curve" smooth="yes"/>
      <point x="1131.2" y="853"/>
      <point x="942.4" y="1071.4"/>
      <point x="606.8" y="1071.4" type="curve" smooth="yes"/>
      <point x="448.8" y="1071.4"/>
      <point x="304.4" y="998.6"/>
      <point x="249.6" y="821.4" type="curve"/>
      <point x="237.6" y="1051.2" type="line"/>
      <point x="139.6" y="1051.2" type="line"/>
    </contour>
    <contour>
      <point x="627.4" y="39.2" type="curve" smooth="yes"/>
      <point x="312" y="39.2"/>
      <point x="236.6" y="255.2"/>
      <point x="236.6" y="539.2" type="curve"/>
      <point x="235" y="790.8"/>
      <point x="330.4" y="1003.6"/>
      <point x="633" y="1003.6" type="curve" smooth="yes"/>
      <point x="920.8" y="1003.6"/>
      <point x="1035.6" y="775.6"/>
      <point x="1035.6" y="520.6" type="curve" smooth="yes"/>
      <point x="1035.6" y="248.4"/>
      <point x="909.4" y="39.2"/>
    </contour>
  </outline>
</glyph>
<glyph name="uni040A" format="1">
  <advance width="2192"/>
  <unicode hex="040A"/>
  <outline>
    <contour>
      <point x="1095.2" y="0" type="line"/>
      <point x="1509.8" y="0" type="line" smooth="yes"/>
      <point x="1926.8" y="0"/>
      <point x="1982" y="193.8"/>
      <point x="1982" y="401.8" type="curve" smooth="yes"/>
      <point x="1982" y="596.8"/>
      <point x="1910.2" y="786.8"/>
      <point x="1500" y="786.8" type="curve" smooth="yes"/>
      <point x="1150" y="786.8" type="line"/>
      <point x="1178.8" y="771" type="line"/>
      <point x="1181.2" y="1458.2" type="line"/>
      <point x="1095.2" y="1458.2" type="line"/>
      <point x="1095.2" y="760.6" type="line"/>
      <point x="1149.4" y="786.8" type="line"/>
      <point x="274" y="786.8" type="line"/>
      <point x="323.2" y="760.6" type="line"/>
      <point x="323.2" y="1458.2" type="line"/>
      <point x="237.2" y="1458.2" type="line"/>
      <point x="237.2" y="0" type="line"/>
      <point x="323.2" y="0" type="line"/>
      <point x="323.2" y="753.8" type="line"/>
      <point x="274" y="727" type="line"/>
      <point x="1150.4" y="727" type="line"/>
      <point x="1095.2" y="753.8" type="line"/>
    </contour>
    <contour>
      <point x="1178.6" y="15.6" type="line"/>
      <point x="1178.6" y="758.2" type="line"/>
      <point x="1148.4" y="727" type="line"/>
      <point x="1502.4" y="727" type="line" smooth="yes"/>
      <point x="1806.8" y="727"/>
      <point x="1905.6" y="642.8"/>
      <point x="1905.6" y="398.8" type="curve" smooth="yes"/>
      <point x="1905.6" y="160.4"/>
      <point x="1806.2" y="57.8"/>
      <point x="1524.6" y="57.8" type="curve" smooth="yes"/>
      <point x="1138" y="57.8" type="line"/>
    </contour>
  </outline>
</glyph>
<glyph name="uni0411" format="1">
  <advance width="1291.200"/>
  <unicode hex="0411"/>
  <outline>
    <contour>
      <point x="221.6" y="0" type="line"/>
      <point x="677.2" y="0" type="line" smooth="yes"/>
      <point x="1094.2" y="0"/>
      <point x="1137.4" y="208.2"/>
      <point x="1137.4" y="416.2" type="curve" smooth="yes"/>
      <point x="1137.4" y="611.2"/>
      <point x="1077.8" y="817.8"/>
      <point x="667.6" y="817.8" type="curve" smooth="yes"/>
      <point x="274.6" y="817.8" type="line"/>
      <point x="307.6" y="783.2" type="line"/>
      <point x="307.6" y="1431.4" type="line"/>
      <point x="262.4" y="1385.4" type="line"/>
      <point x="1001.4" y="1385.4" type="line"/>
      <point x="1001.4" y="1453.6" type="line"/>
      <point x="221.6" y="1453.6" type="line"/>
    </contour>
    <contour>
      <point x="307.6" y="27.6" type="line"/>
      <point x="307.6" y="769.6" type="line"/>
      <point x="272.2" y="749.2" type="line"/>
      <point x="670" y="749.2" type="line" smooth="yes"/>
      <point x="964.8" y="749.2"/>
      <point x="1051.6" y="655.4"/>
      <point x="1051.6" y="411.4" type="curve" smooth="yes"/>
      <point x="1051.6" y="173"/>
      <point x="960.6" y="67.4"/>
      <point x="692.2" y="67.4" type="curve" smooth="yes"/>
      <point x="270.4" y="67.4" type="line"/>
    </contour>
  </outline>
</glyph>
<glyph name="uni041B" format="1">
  <advance width="1626.600"/>
  <unicode hex="041B"/>
  <outline>
    <contour>
      <point x="75.8" y="-21.4" type="line"/>
      <point x="125.8" y="-21.4" type="line" smooth="yes"/>
      <point x="461.4" y="-21.4"/>
      <point x="482.8" y="110.8"/>
      <point x="482.8" y="389" type="curve" smooth="yes"/>
      <point x="482.8" y="1424.6" type="line"/>
      <point x="434.6" y="1399" type="line"/>
      <point x="1345" y="1397.8" type="line"/>
      <point x="1290" y="1423.4" type="line"/>
      <point x="1290" y="-1.2" type="line"/>
      <point x="1373.6" y="-2.4" type="line"/>
      <point x="1376" y="1457" type="line"/>
      <point x="396.8" y="1458.2" type="line"/>
      <point x="396.8" y="352.4" type="line" smooth="yes"/>
      <point x="396.8" y="99.2"/>
      <point x="358.8" y="50.6"/>
      <point x="134" y="50.6" type="curve" smooth="yes"/>
      <point x="75.8" y="50.6" type="line"/>
    </contour>
  </outline>
</glyph>
<glyph name="uni041F" format="1">
  <advance width="1536.600"/>
  <unicode hex="041F"/>
  <outline>
    <contour>
      <point x="237.2" y="0" type="line"/>
      <point x="323.2" y="0" type="line"/>
      <point x="323.2" y="1424.6" type="line"/>
      <point x="273.8" y="1399" type="line"/>
      <point x="1255" y="1399" type="line"/>
      <point x="1200" y="1424.6" type="line"/>
      <point x="1200" y="0" type="line"/>
      <point x="1286" y="0" type="line"/>
      <point x="1286" y="1458.2" type="line"/>
      <point x="237.2" y="1458.2" type="line"/>
    </contour>
  </outline>
</glyph>
<glyph name="uni0424" format="1">
  <advance width="1661.800"/>
  <unicode hex="0424"/>
  <outline>
    <contour>
      <point x="774.2" y="0" type="line"/>
      <point x="817.2" y="0" type="line"/>
      <point x="817.2" y="92" type="line"/>
      <point x="1270" y="136.4"/>
      <point x="1498.2" y="323.6"/>
      <point x="1498.2" y="715.6" type="curve" smooth="yes"/>
      <point x="1498.2" y="1114.8"/>
      <point x="1274.4" y="1310.8"/>
      <point x="817.2" y="1355.6" type="curve"/>
      <point x="817.2" y="1488.4" type="line"/>
      <point x="774.2" y="1488.4" type="line"/>
      <point x="775.8" y="1352" type="line"/>
      <point x="315" y="1293.4"/>
      <point x="123.2" y="1080.2"/>
      <point x="123.2" y="715.6" type="curve" smooth="yes"/>
      <point x="123.2" y="360.2"/>
      <point x="310.6" y="153"/>
      <point x="775.8" y="94.4" type="curve"/>
    </contour>
    <contour>
      <point x="775.8" y="174.4" type="line"/>
      <point x="385.4" y="229.4"/>
      <point x="211.4" y="402.6"/>
      <point x="211.4" y="718.6" type="curve" smooth="yes"/>
      <point x="211.4" y="1039.4"/>
      <point x="382.4" y="1219.4"/>
      <point x="775.8" y="1274.4" type="curve"/>
    </contour>
    <contour>
      <point x="817.2" y="170.8" type="curve"/>
      <point x="817.2" y="1276.8" type="line"/>
      <point x="1234.4" y="1226.4"/>
      <point x="1409.8" y="1043.2"/>
      <point x="1409.8" y="718.6" type="curve" smooth="yes"/>
      <point x="1409.8" y="403"/>
      <point x="1238.8" y="221.2"/>
    </contour>
  </outline>
</glyph>
<glyph name="uni0427" format="1">
  <advance width="698"/>
  <unicode hex="0427"/>
  <outline>
    <contour>
      <point x="788.4" y="-17.8" type="line"/>
      <point x="903.4" y="-17.8" type="line"/>
      <point x="903.4" y="1466.4" type="line"/>
      <point x="788.4" y="1466.4" type="line"/>
      <point x="788.4" y="515.2" type="line"/>
      <point x="829.4" y="530"/>
      <point x="376.2" y="552.8"/>
      <point x="406.8" y="552.8" type="curve" smooth="yes"/>
      <point x="274.4" y="552.8"/>
      <point x="199" y="596"/>
      <point x="199" y="873.8" type="curve" smooth="yes"/>
      <point x="199" y="1466.4" type="line"/>
      <point x="66.4" y="1466.4" type="line"/>
      <point x="66.4" y="826.4" type="line" smooth="yes"/>
      <point x="66.4" y="668.2"/>
      <point x="98.6" y="446.8"/>
      <point x="300.4" y="446.8" type="curve" smooth="yes"/>
      <point x="268.2" y="446.8"/>
      <point x="849.8" y="436.2"/>
      <point x="788.6" y="415.2" type="curve"/>
    </contour>
  </outline>
</glyph>
<glyph name="uni0428" format="1">
  <advance width="1522"/>
  <unicode hex="0428"/>
  <outline>
    <contour>
      <point x="167.6" y="0" type="line"/>
      <point x="1319" y="0" type="line"/>
      <point x="1319" y="1453.6" type="line"/>
      <point x="1261.6" y="1453.6" type="line"/>
      <point x="1261.6" y="94.8" type="line"/>
      <point x="752.8" y="94.8" type="line"/>
      <point x="752.8" y="1453.6" type="line"/>
      <point x="693.8" y="1453.6" type="line"/>
      <point x="693.8" y="94.8" type="line"/>
      <point x="225.4" y="94.8" type="line"/>
      <point x="225.4" y="1453.6" type="line"/>
      <point x="167.6" y="1453.6" type="line"/>
    </contour>
  </outline>
</glyph>
<glyph name="uni0429" format="1">
  <advance width="1613.200"/>
  <unicode hex="0429"/>
  <outline>
    <contour>
      <point x="1360.6" y="-266.4" type="line"/>
      <point x="1448.2" y="-266.4" type="line"/>
      <point x="1448.2" y="181.6" type="line"/>
      <point x="1373" y="181.6" type="line"/>
      <point x="1373" y="1453.6" type="line"/>
      <point x="1314.2" y="1453.6" type="line"/>
      <point x="1314.2" y="94.8" type="line"/>
      <point x="806.8" y="94.8" type="line"/>
      <point x="806.8" y="1453.6" type="line"/>
      <point x="747.8" y="1453.6" type="line"/>
      <point x="747.8" y="94.8" type="line"/>
      <point x="279.4" y="94.8" type="line"/>
      <point x="279.4" y="1453.6" type="line"/>
      <point x="221.6" y="1453.6" type="line"/>
      <point x="221.6" y="0" type="line"/>
      <point x="1362" y="0" type="line"/>
    </contour>
  </outline>
</glyph>
<glyph name="uni042A" format="1">
  <advance width="1264.800"/>
  <unicode hex="042A"/>
  <outline>
    <contour>
      <point x="266" y="0" type="line"/>
      <point x="697.6" y="0" type="line" smooth="yes"/>
      <point x="1114.6" y="0"/>
      <point x="1157.8" y="208.2"/>
      <point x="1157.8" y="416.2" type="curve" smooth="yes"/>
      <point x="1157.8" y="611.2"/>
      <point x="1099.4" y="817.8"/>
      <point x="689.2" y="817.8" type="curve" smooth="yes"/>
      <point x="319" y="817.8" type="line"/>
      <point x="352" y="783.2" type="line"/>
      <point x="351.8" y="1458.4" type="line"/>
      <point x="9.2" y="1458.4" type="line"/>
      <point x="9.4" y="1388.8" type="line"/>
      <point x="311" y="1391.2" type="line"/>
      <point x="266" y="1434" type="line"/>
    </contour>
    <contour>
      <point x="352" y="27.6" type="line"/>
      <point x="352" y="768.8" type="line"/>
      <point x="316.6" y="748.6" type="line"/>
      <point x="691.6" y="748.6" type="line" smooth="yes"/>
      <point x="986.4" y="748.6"/>
      <point x="1072" y="654.8"/>
      <point x="1072" y="410.8" type="curve" smooth="yes"/>
      <point x="1072" y="172.4"/>
      <point x="981" y="67.4"/>
      <point x="712.6" y="67.4" type="curve" smooth="yes"/>
      <point x="315" y="67.4" type="line"/>
    </contour>
  </outline>
</glyph>
<glyph name="uni042C" format="1">
  <advance width="1283.600"/>
  <unicode hex="042C"/>
  <outline>
    <contour>
      <point x="221.6" y="0" type="line"/>
      <point x="681" y="0" type="line" smooth="yes"/>
      <point x="1098" y="0"/>
      <point x="1141.2" y="208.2"/>
      <point x="1141.2" y="416.2" type="curve" smooth="yes"/>
      <point x="1141.2" y="611.2"/>
      <point x="1081.6" y="817.8"/>
      <point x="671.4" y="817.8" type="curve" smooth="yes"/>
      <point x="274.6" y="817.8" type="line"/>
      <point x="307.6" y="783.2" type="line"/>
      <point x="307.4" y="1457.2" type="line"/>
      <point x="221.6" y="1457.4" type="line"/>
    </contour>
    <contour>
      <point x="307.6" y="27.6" type="line"/>
      <point x="307.6" y="768.8" type="line"/>
      <point x="272.2" y="748.6" type="line"/>
      <point x="673.8" y="748.6" type="line" smooth="yes"/>
      <point x="968.6" y="748.6"/>
      <point x="1055.4" y="654.8"/>
      <point x="1055.4" y="410.8" type="curve" smooth="yes"/>
      <point x="1055.4" y="172.4"/>
      <point x="964.4" y="67.4"/>
      <point x="696" y="67.4" type="curve" smooth="yes"/>
      <point x="270.4" y="67.4" type="line"/>
    </contour>
  </outline>
</glyph>
<glyph name="uni0433" format="1">
  <advance width="914"/>
  <unicode hex="0433"/>
  <outline>
    <contour>
      <point x="193" y="0" type="line"/>
      <point x="193" y="1055" type="line"/>
      <point x="859" y="1055" type="line"/>
      <point x="859" y="961" type="line"/>
      <point x="315" y="961" type="line"/>
      <point x="315" y="0" type="line"/>
    </contour>
  </outline>
</glyph>
<glyph name="uni043C" format="1">
  <advance width="1359"/>
  <unicode hex="043C"/>
  <outline>
    <contour>
      <point x="193" y="0" type="line"/>
      <point x="193" y="1055" type="line"/>
      <point x="302" y="1055" type="line"/>
      <point x="683" y="291" type="line"/>
      <point x="1061" y="1055" type="line"/>
      <point x="1167" y="1055" type="line"/>
      <point x="1167" y="0" type="line"/>
      <point x="1054" y="0" type="line"/>
      <point x="1054" y="819" type="line"/>
      <point x="727" y="162" type="line"/>
      <point x="636" y="162" type="line"/>
      <point x="306" y="819" type="line"/>
      <point x="306" y="0" type="line"/>
    </contour>
  </outline>
</glyph>
<glyph name="uni0447" format="1">
  <advance width="1080.800"/>
  <unicode hex="0447"/>
  <outline>
    <contour>
      <point x="713.2" y="0" type="line"/>
      <point x="815" y="0" type="line"/>
      <point x="815" y="1052.6" type="line"/>
      <point x="713.2" y="1052.6" type="line"/>
      <point x="713.2" y="443.2" type="line"/>
      <point x="714.4" y="454.2"/>
      <point x="510.2" y="472"/>
      <point x="540.8" y="472" type="curve" smooth="yes"/>
      <point x="405.8" y="472"/>
      <point x="297.4" y="463.8"/>
      <point x="297.4" y="784.4" type="curve" smooth="yes"/>
      <point x="297.4" y="1052.6" type="line"/>
      <point x="193" y="1052.6" type="line"/>
      <point x="193" y="797.2" type="line" smooth="yes"/>
      <point x="193" y="397.2"/>
      <point x="357.2" y="402.8"/>
      <point x="552" y="403.4" type="curve"/>
      <point x="526" y="403.4"/>
      <point x="724.2" y="396"/>
      <point x="713.2" y="385.2" type="curve"/>
    </contour>
  </outline>
</glyph>
<glyph name="uni044F" format="1">
  <advance width="1136"/>
  <unicode hex="044F"/>
  <outline>
    <contour>
      <point x="181" y="0" type="line"/>
      <point x="381" y="439" type="line"/>
      <point x="186" y="487"/>
      <point x="124" y="642"/>
      <point x="124" y="752" type="curve" smooth="yes"/>
      <point x="124" y="893"/>
      <point x="218" y="1055"/>
      <point x="489" y="1055" type="curve" smooth="yes"/>
      <point x="944" y="1055" type="line"/>
      <point x="944" y="0" type="line"/>
      <point x="822" y="0" type="line"/>
      <point x="822" y="432" type="line"/>
      <point x="504" y="432" type="line"/>
      <point x="310" y="0" type="line"/>
    </contour>
    <contour>
      <point x="510" y="521" type="curve" smooth="yes"/>
      <point x="822" y="521" type="line"/>
      <point x="822" y="969" type="line"/>
      <point x="489" y="969" type="line" smooth="yes"/>
      <point x="278" y="969"/>
      <point x="241" y="851"/>
      <point x="241" y="745" type="curve" smooth="yes"/>
      <point x="241" y="610"/>
      <point x="336" y="521"/>
    </contour>
  </outline>
</glyph>
<glyph name="uni045A" format="1">
  <advance width="1643.200"/>
  <unicode hex="045A"/>
  <outline>
    <contour>
      <point x="213" y="0" type="line"/>
      <point x="307.4" y="0" type="line"/>
      <point x="307.4" y="527.4" type="line"/>
      <point x="872.6" y="527.4" type="line"/>
      <point x="872.6" y="0" type="line"/>
      <point x="1240.4" y="0" type="line" smooth="yes"/>
      <point x="1479.4" y="0"/>
      <point x="1552.8" y="150"/>
      <point x="1552.8" y="290" type="curve" smooth="yes"/>
      <point x="1552.8" y="425.8"/>
      <point x="1489.6" y="586.2"/>
      <point x="1240.2" y="586.2" type="curve" smooth="yes"/>
      <point x="966.6" y="586.2" type="line"/>
      <point x="966.6" y="1055" type="line"/>
      <point x="872.6" y="1055" type="line"/>
      <point x="872.6" y="586.4" type="line"/>
      <point x="307.4" y="586.4" type="line"/>
      <point x="307.4" y="1055" type="line"/>
      <point x="213" y="1055" type="line"/>
    </contour>
    <contour>
      <point x="966.6" y="63" type="line"/>
      <point x="966.6" y="522" type="line"/>
      <point x="1241.6" y="522" type="line" smooth="yes"/>
      <point x="1428.2" y="522"/>
      <point x="1474.8" y="410.2"/>
      <point x="1474.8" y="290" type="curve" smooth="yes"/>
      <point x="1474.8" y="173.2"/>
      <point x="1424.2" y="63"/>
      <point x="1241.4" y="63" type="curve" smooth="yes"/>
    </contour>
  </outline>
</glyph>
<glyph name="uni045F" format="1">
  <advance width="1120.200"/>
  <unicode hex="045F"/>
  <outline>
    <contour>
      <point x="569.8" y="-217" type="line"/>
      <point x="605.6" y="-217" type="line"/>
      <point x="603.2" y="0" type="line"/>
      <point x="907.2" y="0" type="line"/>
      <point x="907.2" y="1052.6" type="line"/>
      <point x="852.2" y="1052.6" type="line"/>
      <point x="852.2" y="51.8" type="line"/>
      <point x="241.4" y="51.8" type="line"/>
      <point x="241.4" y="1052.6" type="line"/>
      <point x="187.8" y="1052.6" type="line"/>
      <point x="187.8" y="0" type="line"/>
      <point x="569.2" y="0" type="line"/>
    </contour>
  </outline>
</glyph>
<glyph name="endash" format="1">
  <advance width="1325.40000053"/>
  <unicode hex="2013"/>
  <outline>
    <contour>
      <point x="149.200000182" y="579.200000346" type="line"/>
      <point x="1128.00000003" y="579.200000346" type="line"/>
      <point x="1128.00000003" y="670.200000092" type="line"/>
      <point x="149.200000182" y="670.200000092" type="line"/>
    </contour>
  </outline>
</glyph>
<glyph name="emdash" format="1">
  <advance width="2687.20000197"/>
  <unicode hex="2014"/>
  <outline>
    <contour>
      <point x="212.000000477" y="579.200000346" type="line"/>
      <point x="2432.40000112" y="579.200000346" type="line"/>
      <point x="2432.40000112" y="670.200000092" type="line"/>
      <point x="212.000000477" y="670.200000092" type="line"/>
    </contour>
  </outline>
</glyph>
<glyph name="quoteleft" format="1">
  <advance width="520.800"/>
  <unicode hex="2018"/>
  <outline>
    <contour>
      <point x="198.2" y="1006.4" type="line"/>
      <point x="295.4" y="1006.4" type="line"/>
      <point x="350.4" y="1454.8" type="line"/>
      <point x="313.6" y="1454.8" type="line"/>
    </contour>
  </outline>
</glyph>
<glyph name="quoteright" format="1">
  <advance width="509.000000313"/>
  <unicode hex="2019"/>
  <outline>
    <contour>
      <point x="187.200000346" y="1006.39999995" type="line"/>
      <point x="227.400000006" y="1006.39999995" type="line"/>
      <point x="328.399999872" y="1454.80000009" type="line"/>
      <point x="261.200000271" y="1454.80000009" type="line"/>
    </contour>
  </outline>
</glyph>
<glyph name="quotesinglbase" format="1">
  <advance width="400.399999782"/>
  <unicode hex="201A"/>
  <outline>
    <contour>
      <point x="93.7999999821" y="-252.800000027" type="line"/>
      <point x="136.199999645" y="-252.800000027" type="line"/>
      <point x="238.199999511" y="179.199999854" type="line"/>
      <point x="165.199999899" y="179.199999854" type="line"/>
    </contour>
  </outline>
</glyph>
<glyph name="quotedblleft" format="1">
  <advance width="843.400"/>
  <unicode hex="201C"/>
  <outline>
    <contour>
      <point x="327.8" y="1189.2" type="line"/>
      <point x="341" y="1985.4" type="line"/>
      <point x="214.6" y="1593" type="line"/>
      <point x="185.2" y="793.8" type="line"/>
    </contour>
    <contour>
      <point x="655.2" y="1189.2" type="line"/>
      <point x="651.6" y="1985.4" type="line"/>
      <point x="537" y="1592.8" type="line"/>
      <point x="496.2" y="793.8" type="line"/>
    </contour>
  </outline>
</glyph>
<glyph name="quotedblright" format="1">
  <advance width="569.799999326"/>
  <unicode hex="201D"/>
  <outline>
    <contour>
      <point x="77.1999999583" y="1163.60000034" type="line"/>
      <point x="116.999999613" y="1163.60000034" type="line"/>
      <point x="231.999999538" y="1601.20000045" type="line"/>
      <point x="149.399999872" y="1601.20000045" type="line"/>
    </contour>
    <contour>
      <point x="340.399999782" y="1169.60000035" type="line"/>
      <point x="390.79999949" y="1169.60000035" type="line"/>
      <point x="497.599999368" y="1601.20000045" type="line"/>
      <point x="416.999999732" y="1601.20000045" type="line"/>
    </contour>
  </outline>
</glyph>
<glyph name="quotedblbase" format="1">
  <advance width="585.99999927"/>
  <unicode hex="201E"/>
  <outline>
    <contour>
      <point x="113.199999928" y="-252.800000027" type="line"/>
      <point x="151.599999577" y="-252.800000027" type="line"/>
      <point x="241.599999398" y="179.199999854" type="line"/>
      <point x="176.999999821" y="179.199999854" type="line"/>
    </contour>
    <contour>
      <point x="330.399999663" y="-252.800000027" type="line"/>
      <point x="362.799999282" y="-252.800000027" type="line"/>
      <point x="461.59999913" y="179.199999854" type="line"/>
      <point x="389.399999529" y="179.199999854" type="line"/>
    </contour>
  </outline>
</glyph>
<glyph name="dagger" format="1">
  <advance width="950.800"/>
  <unicode hex="2020"/>
  <outline>
    <contour>
      <point x="434.8" y="126.2" type="line"/>
      <point x="484" y="126.2" type="line"/>
      <point x="484" y="1010.8" type="line"/>
      <point x="755" y="1010.8" type="line"/>
      <point x="755" y="1045" type="line"/>
      <point x="475.2" y="1045" type="line"/>
      <point x="475.2" y="1453.2" type="line"/>
      <point x="434.8" y="1453.2" type="line"/>
      <point x="434.8" y="1045" type="line"/>
      <point x="153" y="1045" type="line"/>
      <point x="153" y="1010.8" type="line"/>
      <point x="434.8" y="1010.8" type="line"/>
    </contour>
  </outline>
</glyph>
<glyph name="daggerdbl" format="1">
  <advance width="1057.20000046"/>
  <unicode hex="2021"/>
  <outline>
    <contour>
      <point x="762.799999848" y="508.000000387" type="line"/>
      <point x="762.799999848" y="544.600000054" type="line"/>
      <point x="478.599999771" y="544.600000054" type="line"/>
      <point x="478.799999774" y="1012.80000027" type="line"/>
      <point x="762.199999839" y="1012.80000027" type="line"/>
      <point x="762.199999839" y="1048.1999999" type="line"/>
      <point x="471.599999756" y="1048.1999999" type="line"/>
      <point x="471.599999756" y="1454.40000008" type="line"/>
      <point x="431.200000152" y="1454.40000008" type="line"/>
      <point x="431.200000152" y="1048.1999999" type="line"/>
      <point x="141.600000069" y="1048.1999999" type="line"/>
      <point x="141.600000069" y="1012.80000027" type="line"/>
      <point x="431.200000152" y="1012.80000027" type="line"/>
      <point x="431.200000152" y="544.600000054" type="line"/>
      <point x="142.000000075" y="544.600000054" type="line"/>
      <point x="142.000000075" y="508.000000387" type="line"/>
      <point x="431.200000152" y="508.000000387" type="line"/>
      <point x="431.200000152" y="152.400000438" type="line"/>
      <point x="478.599999771" y="152.400000438" type="line"/>
      <point x="478.599999771" y="508.000000387" type="line"/>
    </contour>
  </outline>
</glyph>
<glyph name="bullet" format="1">
  <advance width="802.600"/>
  <unicode hex="2022"/>
  <outline>
    <contour>
      <point x="390.6" y="464.8" type="curve" smooth="yes"/>
      <point x="248.2" y="464.8"/>
      <point x="98.2" y="561.6"/>
      <point x="98.2" y="778.6" type="curve" smooth="yes"/>
      <point x="98.2" y="999.2"/>
      <point x="251.8" y="1100"/>
      <point x="396.8" y="1100" type="curve" smooth="yes"/>
      <point x="540.8" y="1100"/>
      <point x="693" y="1000.4"/>
      <point x="693" y="782.2" type="curve" smooth="yes"/>
      <point x="693" y="564.2"/>
      <point x="535.4" y="464.8"/>
    </contour>
  </outline>
</glyph>
<glyph name="guilsinglleft" format="1">
  <advance width="663.400"/>
  <unicode hex="2039"/>
  <outline>
    <contour>
      <point x="530" y="1006.6" type="line"/>
      <point x="454.8" y="1006.6" type="line"/>
      <point x="131.8" y="566.8" type="line"/>
      <point x="451.4" y="137.8" type="line"/>
      <point x="525.4" y="137.8" type="line"/>
      <point x="211.8" y="565.6" type="line"/>
    </contour>
  </outline>
</glyph>
<glyph name="guilsinglright" format="1">
  <advance width="676.600000411"/>
  <unicode hex="203A"/>
  <outline>
    <contour>
      <point x="162.400000304" y="137.799999937" type="line"/>
      <point x="237.599999964" y="137.799999937" type="line"/>
      <point x="560.000000104" y="579.800000072" type="line"/>
      <point x="241.199999958" y="1006.60000016" type="line"/>
      <point x="167.200000301" y="1006.60000016" type="line"/>
      <point x="479.600000471" y="581.000000075" type="line"/>
    </contour>
  </outline>
</glyph>
<glyph name="fraction" format="1">
  <advance width="1215.40000045"/>
  <unicode hex="2044"/>
  <outline>
    <contour>
      <point x="198.800000429" y="0.0" type="line"/>
      <point x="282.600000113" y="0.0" type="line"/>
      <point x="1001.99999981" y="1576.0000004" type="line"/>
      <point x="929.40000014" y="1576.0000004" type="line"/>
    </contour>
  </outline>
</glyph>
<glyph name="uni2074" format="1">
  <advance width="713.800"/>
  <unicode hex="2074"/>
  <outline>
    <contour>
      <point x="464.6" y="694.2" type="line"/>
      <point x="494.6" y="694.2" type="line"/>
      <point x="493.2" y="925.8" type="line"/>
      <point x="587.6" y="925.8" type="line"/>
      <point x="584.4" y="978.2" type="line"/>
      <point x="496.6" y="978.2" type="line"/>
      <point x="496.6" y="1553.4" type="line"/>
      <point x="438.6" y="1553.4" type="line"/>
      <point x="154.8" y="989.2" type="line"/>
      <point x="154.8" y="925.8" type="line"/>
      <point x="464.6" y="925.8" type="line"/>
    </contour>
    <contour>
      <point x="162" y="978.2" type="line"/>
      <point x="467.4" y="1493.6" type="line"/>
      <point x="465" y="978.2" type="line"/>
    </contour>
  </outline>
</glyph>
<glyph name="Euro" format="1">
  <advance width="1327.200"/>
  <unicode hex="20AC"/>
  <outline>
    <contour>
      <point x="1212.8" y="67.4" type="line"/>
      <point x="1162.6" y="34.2"/>
      <point x="1044" y="-19"/>
      <point x="838.6" y="-19" type="curve" smooth="yes"/>
      <point x="480.8" y="-19"/>
      <point x="225.8" y="209.4"/>
      <point x="166.2" y="588.4" type="curve"/>
      <point x="211.8" y="548.8" type="line"/>
      <point x="37.2" y="548.8" type="line"/>
      <point x="50.4" y="633.2" type="line"/>
      <point x="202" y="633.2" type="line"/>
      <point x="166.2" y="591.2" type="line"/>
      <point x="163" y="623.2"/>
      <point x="157.4" y="699"/>
      <point x="157.4" y="731.8" type="curve" smooth="yes"/>
      <point x="157.4" y="771.2"/>
      <point x="162.2" y="843.6"/>
      <point x="165.6" y="882" type="curve"/>
      <point x="198" y="848" type="line"/>
      <point x="48" y="848" type="line"/>
      <point x="60" y="928.8" type="line"/>
      <point x="199.8" y="928.8" type="line"/>
      <point x="168.2" y="889" type="line"/>
      <point x="230.6" y="1240.4"/>
      <point x="444.6" y="1474"/>
      <point x="825.2" y="1474" type="curve" smooth="yes"/>
      <point x="1011.6" y="1474"/>
      <point x="1147.8" y="1424.6"/>
      <point x="1224.6" y="1362.2" type="curve"/>
      <point x="1182.8" y="1311.4" type="line"/>
      <point x="1096.2" y="1370"/>
      <point x="968.6" y="1407.4"/>
      <point x="838.2" y="1407.4" type="curve" smooth="yes"/>
      <point x="507.4" y="1407.4"/>
      <point x="317.4" y="1204.4"/>
      <point x="257.8" y="889" type="curve"/>
      <point x="205.4" y="928.8" type="line"/>
      <point x="985.6" y="928.8" type="line"/>
      <point x="972.4" y="848" type="line"/>
      <point x="197.2" y="848" type="line"/>
      <point x="252.6" y="882" type="line"/>
      <point x="248" y="842.6"/>
      <point x="243.2" y="765.6"/>
      <point x="243.2" y="724" type="curve" smooth="yes"/>
      <point x="243.2" y="693.6"/>
      <point x="249" y="621"/>
      <point x="252.2" y="591.2" type="curve"/>
      <point x="201.8" y="633.2" type="line"/>
      <point x="972.4" y="633.2" type="line"/>
      <point x="959.2" y="548.8" type="line"/>
      <point x="216.2" y="548.8" type="line"/>
      <point x="251.6" y="588.4" type="line"/>
      <point x="306" y="259.2"/>
      <point x="497.2" y="47.4"/>
      <point x="860.4" y="47.4" type="curve" smooth="yes"/>
      <point x="998.6" y="47.4"/>
      <point x="1097.6" y="84"/>
      <point x="1183" y="126.6" type="curve"/>
    </contour>
  </outline>
</glyph>
<glyph name="trademark" format="1">
  <advance width="1889.40000071"/>
  <unicode hex="2122"/>
  <outline>
    <contour>
      <point x="896.400000393" y="551.799999818" type="line"/>
      <point x="930.200000048" y="551.799999818" type="line"/>
      <point x="930.200000048" y="1521.00000107" type="line"/>
      <point x="1271.40000045" y="674.800000086" type="line"/>
      <point x="1323.60000031" y="674.800000086" type="line"/>
      <point x="1688.00000075" y="1510.80000103" type="line"/>
      <point x="1688.00000075" y="551.799999818" type="line"/>
      <point x="1728.40000042" y="551.799999818" type="line"/>
      <point x="1728.40000042" y="1477.80000016" type="line"/>
      <point x="1654.00000075" y="1477.80000016" type="line"/>
      <point x="1305.80000038" y="686.599999458" type="line"/>
      <point x="972.600000039" y="1477.80000016" type="line"/>
      <point x="896.400000393" y="1477.80000016" type="line"/>
    </contour>
    <contour>
      <point x="369.400000185" y="551.799999818" type="line"/>
      <point x="407.799999848" y="551.799999818" type="line"/>
      <point x="407.799999848" y="1448.4000005" type="line"/>
      <point x="690.799999982" y="1448.4000005" type="line"/>
      <point x="690.799999982" y="1477.80000016" type="line"/>
      <point x="104.600000113" y="1477.80000016" type="line"/>
      <point x="103.200000107" y="1448.4000005" type="line"/>
      <point x="369.400000185" y="1448.4000005" type="line"/>
    </contour>
  </outline>
</glyph>
<glyph name="uni2206" format="1">
  <advance width="1358"/>
  <unicode hex="2206"/>
  <outline>
    <contour>
      <point x="106" y="0" type="line"/>
      <point x="106" y="83" type="line"/>
      <point x="588" y="1500" type="line"/>
      <point x="774" y="1500" type="line"/>
      <point x="1255" y="83" type="line"/>
      <point x="1255" y="0" type="line"/>
    </contour>
    <contour>
      <point x="302" y="169" type="line"/>
      <point x="1059" y="169" type="line"/>
      <point x="710" y="1163" type="line"/>
      <point x="676" y="1278" type="line"/>
      <point x="644" y="1163" type="line"/>
    </contour>
  </outline>
</glyph>
